<svg width="530" height="600" viewBox="0 0 530 600" fill="none" xmlns="http://www.w3.org/2000/svg">
    <path
        d="M351.722 357.794C387.427 360.077 409.5 357.794 416.621 357.794C446.607 353.303 459.423 406.229 421.781 434C410.543 442.291 405 441 381 441C356.976 441 331.007 449.95 316.5 445.863C275.378 434.278 268.157 404.508 271.847 388.124C276.839 365.96 287 353.657 351.722 357.794Z"
        fill="white" />
    <mask id="mask0_8_865" style="mask-type:alpha" maskUnits="userSpaceOnUse" x="271" y="357" width="174" height="90">
        <path
            d="M351.722 357.794C387.427 360.077 409.5 357.794 416.621 357.794C446.607 353.303 459.423 406.229 421.781 434C410.543 442.291 405 441 381 441C356.976 441 331.007 449.95 316.5 445.863C275.378 434.278 268.157 404.508 271.847 388.124C276.839 365.96 287 353.657 351.722 357.794Z"
            fill="white" />
    </mask>
    <g mask="url(#mask0_8_865)">
        <path fill-rule="evenodd" clip-rule="evenodd"
            d="M285.823 450.002L303.275 342.63L309.197 343.592L291.746 450.964L285.823 450.002ZM363.226 464.259L367.502 354.675L373.498 354.909L369.221 464.493L363.226 464.259ZM430.037 434.468L416.409 348.124L422.336 347.189L435.963 433.532L430.037 434.468Z"
            fill="#D1D3D4" />
    </g>
</svg>