<svg width="1661" height="1881" viewBox="0 0 1661 1881" fill="none" xmlns="http://www.w3.org/2000/svg">
    <path
        d="M1102.28 1121.69C1214.18 1128.84 1283.36 1121.69 1305.67 1121.69C1399.65 1107.6 1439.81 1273.53 1321.84 1360.59C1286.62 1386.58 1269.25 1382.54 1194.04 1382.54C1118.75 1382.54 1037.36 1410.59 991.899 1397.78C863.025 1361.46 840.393 1268.13 851.958 1216.77C867.604 1147.28 899.447 1108.72 1102.28 1121.69Z"
        fill="white" />
    <mask id="mask0_8_576" style="mask-type:alpha" maskUnits="userSpaceOnUse" x="849" y="1119" width="546" height="283">
        <path
            d="M1102.28 1121.69C1214.18 1128.84 1283.36 1121.69 1305.67 1121.69C1399.65 1107.6 1439.81 1273.53 1321.84 1360.59C1286.62 1386.58 1269.25 1382.54 1194.04 1382.54C1118.75 1382.54 1037.36 1410.59 991.899 1397.78C863.025 1361.46 840.393 1268.13 851.958 1216.77C867.604 1147.28 899.447 1108.72 1102.28 1121.69Z"
            fill="white" />
    </mask>
    <g mask="url(#mask0_8_576)">
        <path fill-rule="evenodd" clip-rule="evenodd"
            d="M895.76 1410.76L950.452 1074.14L969.012 1077.16L914.32 1413.77L895.76 1410.76ZM1138.34 1455.45L1151.74 1111.91L1170.53 1112.64L1157.12 1456.19L1138.34 1455.45ZM1347.72 1362.06L1305.01 1091.37L1323.58 1088.44L1366.29 1359.12L1347.72 1362.06Z"
            fill="#D1D3D4" />
    </g>
</svg>