<svg width="1661" height="1881" viewBox="0 0 1661 1881" fill="none" xmlns="http://www.w3.org/2000/svg">
    <path
        d="M1232.74 1150.37C1242.19 1155.8 1308.26 1072.8 1352.25 1098.05C1367.1 1106.57 1378.43 1121.11 1386.94 1136.82C1405.63 1171.38 1412.03 1213.36 1404.5 1252.09C1393.84 1306.85 1356.9 1351.69 1313.45 1381.4C1196.53 1461.34 1103.77 1446.23 978.98 1399.96C880.752 1363.54 746.916 1288.57 774.643 1153.3C823.449 915.2 1232.61 1150.3 1232.74 1150.37Z"
        fill="#873C41" />
    <path
        d="M894.232 1135.15C926.007 1154.88 964.697 1156.91 999.397 1149.04C1006.03 1147.53 1011.37 1153.11 1013.02 1159.51C1029.96 1225.36 1126.03 1259.73 1174.2 1217.51C1177.94 1214.23 1184.57 1213.45 1188.49 1217.17C1214.49 1241.84 1256.15 1248.54 1286.74 1231.84C1329.94 1208.27 1329.73 1142.04 1317.96 1095.91C1279.89 1107.54 1239.92 1154.49 1232.74 1150.35C1232.64 1150.29 981.463 1006.02 849.224 1058.07C852.028 1090.04 866.706 1118.05 894.232 1135.15Z"
        fill="white" />
    <path
        d="M1254.5 1391.27C1185.8 1328.21 1101.32 1292.98 1015.67 1267.99C942.4 1246.61 859.91 1232.75 785.753 1253.97C820.118 1327.74 908.541 1373.82 978.979 1399.94C1088.14 1440.42 1172.79 1457.05 1270.54 1407.08C1265.21 1401.79 1260.02 1396.34 1254.5 1391.27Z"
        fill="#EE7E8B" />
    <mask id="mask0_8_576" style="mask-type:alpha" maskUnits="userSpaceOnUse" x="770" y="1046" width="638" height="393">
        <path
            d="M1232.74 1150.37C1242.19 1155.8 1308.26 1072.8 1352.25 1098.05C1367.1 1106.57 1378.43 1121.11 1386.94 1136.82C1405.63 1171.38 1412.03 1213.36 1404.5 1252.09C1393.84 1306.85 1356.9 1351.69 1313.45 1381.4C1196.53 1461.34 1103.77 1446.23 978.98 1399.96C880.751 1363.54 746.916 1288.57 774.643 1153.3C823.448 915.2 1232.61 1150.3 1232.74 1150.37Z"
            fill="#873C41" />
    </mask>
    <g mask="url(#mask0_8_576)">
        <path fill-rule="evenodd" clip-rule="evenodd"
            d="M855.084 1040.96C856.74 1038.96 859.703 1038.68 861.703 1040.33C868.861 1046.26 882.554 1054.28 897.947 1062.54C911.803 1069.97 926.682 1077.41 938.702 1083.41C939.93 1084.03 941.128 1084.62 942.291 1085.21C990.695 1109.42 1065.28 1135.08 1104.22 1148.48C1106.6 1149.3 1108.85 1150.08 1110.96 1150.8C1156.28 1166.44 1212.02 1183.44 1272.25 1183.46C1280.92 1182.95 1287.16 1182.19 1293.84 1180.31C1300.59 1178.4 1307.99 1175.29 1318.86 1169.85C1321.19 1168.69 1324.01 1169.63 1325.17 1171.95C1326.33 1174.28 1325.39 1177.1 1323.07 1178.26C1312.01 1183.8 1303.99 1187.22 1296.39 1189.36C1288.73 1191.52 1281.69 1192.33 1272.67 1192.86C1272.57 1192.86 1272.48 1192.87 1272.39 1192.87C1210.45 1192.87 1153.41 1175.4 1107.89 1159.69C1105.77 1158.96 1103.49 1158.18 1101.06 1157.34C1062.23 1143.98 987.085 1118.13 938.087 1093.62C936.924 1093.04 935.725 1092.44 934.495 1091.82C922.489 1085.82 907.488 1078.33 893.505 1070.83C878.211 1062.63 863.699 1054.19 855.709 1047.58C853.709 1045.92 853.429 1042.96 855.084 1040.96Z"
            fill="#C4C4C4" />
        <rect width="37.6075" height="37.62" rx="2"
            transform="matrix(0.998469 0.0553148 -0.0552781 0.998471 1252.53 1166.22)" fill="#A09E9E" />
        <rect width="37.6084" height="37.6192" rx="2"
            transform="matrix(0.965904 0.258899 -0.258739 0.965947 1094.08 1131.73)" fill="#A09E9E" />
        <rect width="37.61" height="37.6175" rx="2"
            transform="matrix(0.896029 0.443995 -0.44376 0.896146 931.811 1065.9)" fill="#A09E9E" />
    </g>
</svg>