<svg width="530" height="600" viewBox="0 0 530 600" fill="none" xmlns="http://www.w3.org/2000/svg">
    <path
        d="M393.348 366.944C396.363 368.675 417.445 342.201 431.482 350.255C436.221 352.974 439.836 357.611 442.551 362.622C448.517 373.645 450.558 387.037 448.155 399.391C444.754 416.859 432.967 431.16 419.102 440.639C381.794 466.139 352.197 461.318 312.378 446.557C281.034 434.94 238.329 411.026 247.177 367.88C262.75 291.93 393.308 366.922 393.348 366.944Z"
        fill="#873C41" />
    <path
        d="M285.336 362.088C295.475 368.382 307.82 369.031 318.892 366.521C321.01 366.039 322.712 367.817 323.239 369.86C328.645 390.864 359.298 401.827 374.67 388.359C375.863 387.313 377.979 387.066 379.229 388.251C387.525 396.122 400.818 398.257 410.58 392.933C424.364 385.413 424.297 364.286 420.542 349.573C408.393 353.284 395.639 368.259 393.347 366.939C393.317 366.92 313.17 320.899 270.974 337.501C271.869 347.701 276.553 356.636 285.336 362.088Z"
        fill="white" />
    <path
        d="M400.293 443.788C378.37 423.671 351.414 412.435 324.083 404.462C300.706 397.641 274.384 393.221 250.722 399.989C261.687 423.523 289.902 438.22 312.377 446.553C347.21 459.464 374.221 464.768 405.409 448.829C403.71 447.143 402.053 445.404 400.293 443.788Z"
        fill="#EE7E8B" />
    <mask id="mask0_11_365" style="mask-type:alpha" maskUnits="userSpaceOnUse" x="245" y="333" width="205" height="126">
        <path
            d="M393.348 366.944C396.363 368.675 417.445 342.201 431.482 350.255C436.221 352.974 439.836 357.611 442.551 362.622C448.517 373.645 450.558 387.037 448.155 399.391C444.754 416.859 432.967 431.16 419.102 440.639C381.794 466.139 352.197 461.318 312.378 446.557C281.034 434.94 238.329 411.026 247.177 367.88C262.75 291.93 393.308 366.922 393.348 366.944Z"
            fill="#873C41" />
    </mask>
    <g mask="url(#mask0_11_365)">
        <path fill-rule="evenodd" clip-rule="evenodd"
            d="M272.844 332.044C273.373 331.405 274.318 331.316 274.956 331.844C277.24 333.735 281.61 336.294 286.521 338.928C290.942 341.298 295.69 343.67 299.526 345.586C299.917 345.782 300.3 345.973 300.671 346.158C316.116 353.881 339.916 362.068 352.34 366.342C353.101 366.604 353.818 366.851 354.489 367.082C368.953 372.069 386.737 377.492 405.956 377.5C408.721 377.336 410.713 377.094 412.843 376.494C414.999 375.886 417.358 374.894 420.829 373.158C421.57 372.788 422.471 373.088 422.842 373.829C423.212 374.57 422.912 375.471 422.171 375.842C418.642 377.606 416.084 378.697 413.657 379.381C411.215 380.07 408.967 380.328 406.088 380.497C406.059 380.499 406.029 380.5 406 380.5C386.236 380.5 368.036 374.927 353.511 369.918C352.833 369.684 352.105 369.434 351.333 369.168C338.941 364.906 314.964 356.659 299.329 348.842C298.958 348.656 298.576 348.465 298.183 348.269C294.352 346.355 289.566 343.964 285.104 341.572C280.224 338.956 275.593 336.265 273.044 334.156C272.405 333.627 272.316 332.682 272.844 332.044Z"
            fill="#C4C4C4" />
        <rect x="399.664" y="372" width="12" height="12" rx="2" transform="rotate(3.16987 399.664 372)"
            fill="#A09E9E" />
        <rect x="349.106" y="361" width="12" height="12" rx="2" transform="rotate(15 349.106 361)" fill="#A09E9E" />
        <rect x="297.327" y="340" width="12" height="12" rx="2" transform="rotate(26.3515 297.327 340)"
            fill="#A09E9E" />
    </g>
</svg>