<svg width="1661" height="1881" viewBox="0 0 1661 1881" fill="none" xmlns="http://www.w3.org/2000/svg">
    <path
        d="M1232.74 1150.37C1242.19 1155.8 1308.26 1072.8 1352.25 1098.05C1367.1 1106.57 1378.43 1121.11 1386.94 1136.82C1405.63 1171.38 1412.03 1213.36 1404.5 1252.09C1393.84 1306.85 1356.9 1351.69 1313.45 1381.4C1196.53 1461.34 1103.77 1446.23 978.98 1399.96C880.752 1363.54 746.916 1288.57 774.643 1153.3C823.449 915.2 1232.61 1150.3 1232.74 1150.37Z"
        fill="#873C41" />
    <path
        d="M999.397 1149.04C964.696 1156.91 926.007 1154.88 894.231 1135.15C866.706 1118.05 852.028 1090.04 849.224 1058.07C931.63 1025.63 1060.22 1069.44 1145.46 1107.07L1104.72 1228.92C1064.46 1222.31 1023.32 1199.56 1013.02 1159.51C1011.37 1153.11 1006.03 1147.53 999.397 1149.04Z"
        fill="white" />
    <path
        d="M1317.96 1095.91C1329.73 1142.04 1299.92 1205.35 1256.72 1228.92C1213.04 1256.34 1158.51 1250.78 1139.2 1234.57L1174.2 1120.25C1209.8 1137.18 1232.71 1150.34 1232.74 1150.35C1239.92 1154.49 1279.89 1107.54 1317.96 1095.91Z"
        fill="white" />
    <path
        d="M1254.5 1391.27C1185.8 1328.21 1101.32 1292.98 1015.67 1267.99C942.4 1246.61 859.91 1232.75 785.753 1253.97C820.118 1327.74 908.541 1373.82 978.979 1399.94C1088.14 1440.42 1172.79 1457.05 1270.54 1407.08C1265.21 1401.79 1260.02 1396.34 1254.5 1391.27Z"
        fill="#EE7E8B" />
</svg>