<svg width="1661" height="1881" viewBox="0 0 1661 1881" fill="none" xmlns="http://www.w3.org/2000/svg">
    <path fill-rule="evenodd" clip-rule="evenodd"
        d="M1212.39 1122.34C1215.79 1122.21 1219.09 1123.48 1221.54 1125.84C1234.63 1138.45 1257.43 1154.75 1282.6 1162.55C1307.42 1170.23 1333.06 1169.34 1355.12 1150.43C1360.37 1145.92 1368.29 1146.53 1372.79 1151.79C1377.3 1157.05 1376.69 1164.96 1371.43 1169.47C1340.84 1195.7 1305.37 1195.85 1275.18 1186.51C1250.89 1178.98 1229.09 1165.12 1213.66 1152.37C1099.19 1270.45 955.268 1235.4 896.426 1202.22C890.394 1198.82 888.261 1191.18 891.66 1185.14C895.06 1179.11 902.705 1176.98 908.736 1180.38C963.339 1211.16 1098.63 1243.33 1203.52 1126.49C1205.79 1123.96 1208.99 1122.46 1212.39 1122.34Z"
        fill="#592125" />
</svg>