<svg width="530" height="600" viewBox="0 0 530 600" fill="none" xmlns="http://www.w3.org/2000/svg">
    <path fill-rule="evenodd" clip-rule="evenodd"
        d="M386.855 358.003C387.939 357.963 388.993 358.366 389.775 359.119C393.952 363.141 401.228 368.343 409.258 370.829C417.177 373.28 425.358 372.996 432.397 366.963C434.074 365.525 436.599 365.72 438.037 367.397C439.475 369.074 439.28 371.599 437.603 373.037C427.842 381.404 416.523 381.453 406.892 378.471C399.141 376.071 392.183 371.649 387.262 367.582C350.735 405.246 304.812 394.067 286.036 383.485C284.111 382.4 283.431 379.96 284.515 378.036C285.6 376.111 288.04 375.431 289.964 376.515C307.387 386.336 350.558 396.596 384.024 359.328C384.749 358.52 385.771 358.042 386.855 358.003Z"
        fill="#592125" />
</svg>