<svg width="530" height="600" viewBox="0 0 530 600" fill="none" xmlns="http://www.w3.org/2000/svg">
    <path
        d="M311.352 362.309C338.996 345.934 362.636 344.893 379.294 343.866C412.609 341.812 440.42 352.722 447.79 386.567C454.586 417.78 430.941 435.996 419.992 435.666C409.043 435.336 406.747 423.355 380.681 422.768C354.615 422.181 317.339 465.697 295.165 449.36C272.991 433.024 276.797 382.779 311.352 362.309Z"
        fill="#873C41" />
    <mask id="mask0_11_190" style="mask-type:alpha" maskUnits="userSpaceOnUse" x="281" y="343" width="169" height="110">
        <path
            d="M311.392 362.279C339.072 345.93 362.743 344.889 379.423 343.864C412.781 341.812 440.627 352.701 448.005 386.488C454.808 417.647 431.132 435.833 420.168 435.504C409.205 435.175 406.907 423.214 380.807 422.63C354.708 422.045 317.381 465.488 295.179 449.181C272.977 432.874 276.791 382.715 311.392 362.279Z"
            fill="#873C41" />
    </mask>
    <g mask="url(#mask0_11_190)">
        <path
            d="M430.562 428.316C404.434 411.546 374.718 404.803 345.198 401.482C319.948 398.641 292.099 398.793 268.98 409.972C284.452 432.209 280.881 457.475 305.474 462.032C343.587 469.091 407.501 454.536 436.72 432.585C434.673 431.156 432.66 429.663 430.562 428.316Z"
            fill="#EE7E8B" />
        <path
            d="M299.12 376.93C311.361 379.211 323.61 375.169 333.426 368.537C335.302 367.267 337.63 368.351 338.917 370.139C352.124 388.514 386.078 387.571 395.927 368.657C396.691 367.189 398.655 366.147 400.319 366.826C411.365 371.339 425.098 368.383 432.575 359.511C443.131 346.981 435.068 326.464 425.848 313.579C415.439 321.786 408.707 341.175 405.979 340.759C405.942 340.753 310.592 326.343 275.849 358.459C280.58 368.038 288.516 374.953 299.12 376.93Z"
            fill="white" />
    </g>
</svg>