<svg width="1661" height="1881" viewBox="0 0 1661 1881" fill="none" xmlns="http://www.w3.org/2000/svg">
    <path
        d="M975.766 1135.84C1062.4 1084.5 1136.49 1081.24 1188.69 1078.02C1293.1 1071.58 1380.26 1105.78 1403.36 1211.89C1424.66 1309.74 1350.55 1366.85 1316.24 1365.81C1281.92 1364.78 1274.73 1327.22 1193.04 1325.38C1111.35 1323.54 994.528 1459.96 925.035 1408.74C855.543 1357.53 867.472 1200.01 975.766 1135.84Z"
        fill="#873C41" />
    <mask id="mask0_8_576" style="mask-type:alpha" maskUnits="userSpaceOnUse" x="881" y="1077" width="527" height="343">
        <path
            d="M975.89 1135.74C1062.64 1084.49 1136.82 1081.23 1189.1 1078.01C1293.64 1071.58 1380.91 1105.72 1404.03 1211.64C1425.35 1309.32 1351.15 1366.34 1316.79 1365.31C1282.43 1364.27 1275.23 1326.78 1193.44 1324.94C1111.64 1323.11 994.659 1459.31 925.079 1408.18C855.499 1357.06 867.453 1199.81 975.89 1135.74Z"
            fill="#873C41" />
    </mask>
    <g mask="url(#mask0_8_576)">
        <path
            d="M1349.36 1342.77C1267.48 1290.2 1174.35 1269.06 1081.84 1258.65C1002.7 1249.74 915.428 1250.22 842.975 1285.26C891.461 1354.98 880.271 1434.18 957.344 1448.47C1076.79 1470.6 1277.09 1424.97 1368.66 1356.15C1362.25 1351.67 1355.94 1346.99 1349.36 1342.77Z"
            fill="#EE7E8B" />
        <path
            d="M937.43 1181.67C975.792 1188.83 1014.18 1176.15 1044.94 1155.36C1050.82 1151.38 1058.12 1154.78 1062.15 1160.38C1103.54 1217.99 1209.95 1215.04 1240.82 1155.74C1243.21 1151.14 1249.37 1147.87 1254.59 1150C1289.2 1164.15 1332.24 1154.88 1355.67 1127.07C1388.76 1087.79 1363.49 1023.46 1334.59 983.072C1301.97 1008.8 1280.87 1069.58 1272.32 1068.28C1272.21 1068.26 973.383 1023.09 864.499 1123.77C879.326 1153.8 904.197 1175.48 937.43 1181.67Z"
            fill="white" />
    </g>
</svg>