<svg width="530" height="600" viewBox="0 0 530 600" fill="none" xmlns="http://www.w3.org/2000/svg">
    <path
        d="M393.348 366.944C396.363 368.675 417.445 342.201 431.482 350.255C436.221 352.974 439.836 357.611 442.551 362.622C448.517 373.645 450.558 387.037 448.155 399.391C444.754 416.859 432.967 431.16 419.102 440.639C381.794 466.139 352.197 461.318 312.378 446.557C281.035 434.94 238.33 411.026 247.177 367.88C262.75 291.93 393.309 366.922 393.348 366.944Z"
        fill="#873C41" />
    <path
        d="M285.336 362.088C295.475 368.382 307.82 369.031 318.892 366.521C321.01 366.039 322.712 367.817 323.239 369.86C328.645 390.864 359.298 401.827 374.67 388.359C375.863 387.313 377.979 387.066 379.229 388.251C387.525 396.122 400.818 398.257 410.58 392.933C424.364 385.413 424.297 364.286 420.542 349.573C408.393 353.284 395.639 368.259 393.347 366.939C393.317 366.92 313.17 320.899 270.974 337.501C271.869 347.701 276.553 356.636 285.336 362.088Z"
        fill="white" />
    <path
        d="M400.293 443.788C378.37 423.671 351.415 412.435 324.084 404.462C300.706 397.641 274.384 393.221 250.722 399.989C261.687 423.523 289.902 438.22 312.378 446.553C347.21 459.464 374.221 464.768 405.409 448.829C403.71 447.143 402.053 445.404 400.293 443.788Z"
        fill="#EE7E8B" />
</svg>