<svg width="530" height="600" viewBox="0 0 530 600" fill="none" xmlns="http://www.w3.org/2000/svg">
    <path
        d="M385.305 380.359C394.659 380.618 403.628 377.943 411.353 369.915C415.395 365.718 419.494 363.408 425.293 366.998C439.178 375.596 442.447 397.075 438.715 411.477C434.617 427.28 422.273 440.021 408.048 448.33C369.768 470.69 340.407 465.658 301.237 451.365C270.404 440.117 228.72 417.444 239.286 378.422C252.371 330.107 308.763 353.304 340.581 366.338C354.092 371.877 370.2 379.94 385.305 380.359Z"
        fill="white" />
    <mask id="mask0_8_574" style="mask-type:alpha" maskUnits="userSpaceOnUse" x="237" y="349" width="204" height="115">
        <path
            d="M385.305 380.359C394.659 380.618 403.628 377.943 411.353 369.915C415.395 365.718 419.494 363.408 425.293 366.998C439.178 375.596 442.447 397.075 438.715 411.477C434.617 427.28 422.273 440.021 408.048 448.33C369.768 470.69 340.407 465.658 301.237 451.365C270.404 440.117 228.72 417.444 239.286 378.422C252.371 330.107 308.763 353.304 340.581 366.338C354.092 371.877 370.2 379.94 385.305 380.359Z"
            fill="white" />
    </mask>
    <g mask="url(#mask0_8_574)">
        <path fill-rule="evenodd" clip-rule="evenodd"
            d="M257.597 434.026L297.669 332.894L303.247 335.105L263.175 436.236L257.597 434.026ZM339.937 466.702L367.616 360.585L373.421 362.099L345.743 468.216L339.937 466.702ZM422.317 441.08L407.044 363.28L412.932 362.125L428.204 439.924L422.317 441.08Z"
            fill="#D1D3D4" />
    </g>
</svg>