<svg width="1661" height="1881" viewBox="0 0 1661 1881" fill="none" xmlns="http://www.w3.org/2000/svg">
    <path
        d="M1207.53 1192.43C1236.85 1193.24 1264.96 1184.85 1289.17 1159.68C1301.83 1146.53 1314.68 1139.28 1332.85 1150.54C1376.37 1177.49 1386.61 1244.83 1374.92 1289.98C1362.07 1339.52 1323.39 1379.47 1278.81 1405.52C1158.84 1475.61 1066.82 1459.84 944.064 1415.03C847.436 1379.77 716.798 1308.69 749.913 1186.35C790.92 1034.89 967.652 1107.61 1067.37 1148.47C1109.71 1165.83 1160.19 1191.11 1207.53 1192.43Z"
        fill="white" />
    <mask id="mask0_8_576" style="mask-type:alpha" maskUnits="userSpaceOnUse" x="744" y="1094" width="636" height="360">
        <path
            d="M1207.53 1192.43C1236.84 1193.24 1264.96 1184.85 1289.16 1159.68C1301.83 1146.53 1314.68 1139.28 1332.85 1150.54C1376.37 1177.49 1386.61 1244.83 1374.91 1289.98C1362.07 1339.52 1323.39 1379.47 1278.81 1405.52C1158.84 1475.61 1066.82 1459.84 944.064 1415.03C847.436 1379.77 716.798 1308.69 749.913 1186.35C790.92 1034.89 967.652 1107.61 1067.37 1148.47C1109.71 1165.83 1160.19 1191.11 1207.53 1192.43Z"
            fill="white" />
    </mask>
    <g mask="url(#mask0_8_576)">
        <path fill-rule="evenodd" clip-rule="evenodd"
            d="M807.299 1360.67L932.885 1043.62L950.366 1050.55L824.781 1367.6L807.299 1360.67ZM1065.35 1463.11L1152.09 1130.43L1170.29 1135.18L1083.54 1467.86L1065.35 1463.11ZM1323.52 1382.79L1275.66 1138.88L1294.11 1135.26L1341.98 1379.16L1323.52 1382.79Z"
            fill="#D1D3D4" />
    </g>
</svg>