<svg width="1656" height="1875" viewBox="0 0 1656 1875" fill="none" xmlns="http://www.w3.org/2000/svg">
    <path
        d="M846.726 984.259C988.438 934.965 1120.77 985.663 1209.19 1015.63C1307.62 998.438 1375.11 994.256 1418.54 1045.31C1453.27 1086.16 1468.04 1132.66 1451.34 1131.25C1524.17 1189.39 1480.25 1364.29 1465.05 1389.63C1452.9 1409.9 1438.22 1394.97 1432.4 1384.98C1407.65 1480.84 1308.14 1667.77 1108.11 1648.55C908.083 1629.32 714.953 1507.89 691.4 1449.53C663.02 1465.75 630.276 1461.77 644.511 1361.79C652.995 1302.21 700.203 1231.73 723.72 1222.54C710.136 1226.39 681.667 1226.97 676.461 1198.44C669.952 1162.77 705.015 1033.55 846.726 984.259Z"
        fill="#71472D" />
</svg>