<svg width="530" height="600" viewBox="0 0 530 600" fill="none" xmlns="http://www.w3.org/2000/svg">
    <path
        d="M406.541 457.335C394.627 461.859 369.62 464.979 358.605 465.973L357.736 475.426C354.704 488.394 359.419 490.466 362.156 489.882C365.506 497.214 375.31 503.133 388.467 503.841C398.993 504.408 402.584 498.282 403.064 495.149C410.817 495.862 412.333 483.959 412.122 477.919C416.446 475.908 410.203 463.359 406.541 457.335Z"
        fill="#71472D" />
    <path fill-rule="evenodd" clip-rule="evenodd"
        d="M403.036 495.314C403.056 494.836 403.042 494.394 403 494C385.5 503 369.5 492 364.334 484C365.934 485.2 367 484.5 367 483C363.728 479.001 363.513 470.293 364.627 465.361C362.351 465.614 360.31 465.819 358.605 465.973L357.736 475.426C354.704 488.393 359.419 490.466 362.156 489.881C365.506 497.214 375.31 503.133 388.467 503.841C398.811 504.398 402.458 498.492 403.036 495.314Z"
        fill="#5E351B" />
</svg>