<svg width="1656" height="1875" viewBox="0 0 1656 1875" fill="none" xmlns="http://www.w3.org/2000/svg">
    <path
        d="M1270.25 1429.17C1233.02 1443.31 1154.89 1453.06 1120.47 1456.17L1117.76 1485.71C1108.28 1526.23 1123.01 1532.71 1131.57 1530.88C1142.03 1553.79 1172.66 1572.29 1213.78 1574.5C1246.66 1576.27 1257.89 1557.13 1259.38 1547.34C1283.61 1549.57 1288.35 1512.37 1287.69 1493.5C1301.2 1487.21 1281.69 1448 1270.25 1429.17Z"
        fill="#71472D" />
    <path fill-rule="evenodd" clip-rule="evenodd"
        d="M1259.3 1547.86C1259.36 1546.36 1259.31 1544.98 1259.19 1543.75C1204.51 1571.87 1154.51 1537.5 1138.37 1512.5C1143.37 1516.25 1146.7 1514.06 1146.7 1509.37C1136.48 1496.88 1135.81 1469.67 1139.29 1454.25C1132.18 1455.04 1125.8 1455.68 1120.47 1456.16L1117.76 1485.71C1108.28 1526.23 1123.02 1532.71 1131.57 1530.88C1142.03 1553.79 1172.67 1572.29 1213.78 1574.5C1246.1 1576.24 1257.49 1557.79 1259.3 1547.86Z"
        fill="#5E351B" />
</svg>