<svg width="1656" height="1875" viewBox="0 0 1656 1875" fill="none" xmlns="http://www.w3.org/2000/svg">
    <path fill-rule="evenodd" clip-rule="evenodd"
        d="M1229.51 1030.25C1257.81 1013.91 1325.52 985.668 1372.36 1002.1C1399.36 1011.58 1418.72 1033.03 1435.75 1051.9C1455.29 1073.56 1471.76 1091.82 1493.21 1084.71C1493.52 1084.6 1493.82 1084.99 1493.57 1085.2C1480.5 1096.31 1412.27 1149.82 1367.63 1152.03C1316.72 1154.54 1292.01 1130.11 1253.82 1092.34C1250.06 1088.62 1246.17 1084.77 1242.11 1080.8C1230.06 1112.74 1185.75 1154.92 1084.59 1205.63C894.666 1300.83 772.278 1190.42 716.049 1121.71C715.816 1121.43 716.289 1121.06 716.577 1121.29C740.853 1140.78 764.533 1130.1 834.78 1097.7C864.117 1084.17 890.454 1070.29 914.959 1057.37C975.315 1025.56 1024.56 999.606 1080.16 999.137C1142.7 998.609 1208.23 1018.81 1227.71 1028.8C1228.33 1029.28 1228.93 1029.76 1229.51 1030.25Z"
        fill="#71472D" />
    <path
        d="M1061.21 1054.82C1095.45 1039.64 1162.92 1051.25 1192.38 1058.96C1089.32 1055.7 1059.98 1093.86 977.304 1138.15C911.164 1173.58 846.523 1154.87 822.47 1141.08C909.126 1168.83 1018.41 1073.79 1061.21 1054.82Z"
        fill="#5E351B" />
    <path
        d="M1145.42 1110.63C1119.66 1134.3 1057.2 1181.94 1013.4 1183.06C1045.96 1158.55 1117.94 1109.76 1145.42 1110.63Z"
        fill="#5E351B" />
    <path
        d="M1285.19 1040C1299.48 1033.15 1334.46 1024.04 1360.14 1042.36C1389.02 1062.96 1411.66 1080.83 1426.25 1081.13C1427.97 1080.97 1429.5 1080.77 1430.84 1080.55C1429.41 1080.97 1427.88 1081.16 1426.25 1081.13C1411.17 1082.51 1382.52 1080.68 1359.45 1064.23C1333.77 1045.91 1299.25 1040.44 1285.19 1040Z"
        fill="#5E351B" />
</svg>