<svg width="1401" height="1463" viewBox="0 0 1401 1463" fill="none" xmlns="http://www.w3.org/2000/svg">
    <path
        d="M828.295 120.974C828.295 120.974 1240.54 185.476 1209.28 772.897C1209.16 775.075 1256.94 806.796 1260.68 810.185C1294 840.316 1321.95 878.906 1334.18 924.048C1377.7 1084.79 1222.09 1250.42 1096.25 1294.39C1049.25 1310.81 999.563 1318.78 949.783 1320.23C626.172 1329.65 197.729 1123.97 175.724 722.286C174.936 707.874 174.742 693.446 175.113 679.052C177.063 602.782 195.471 528.502 223.214 459.534C223.202 459.536 403.305 12.8083 828.295 120.974Z"
        fill="$fillColor" />
    <path opacity="0.4" d="M1013.49 807.795C1013.49 807.795 1078.89 745.575 1129.51 804.073L1013.49 807.795Z"
        fill="#8f6545" />
    <path
        d="M403.741 1117.91C186.169 1226.96 -11.436 953.289 51.7701 799.502C92.0888 701.407 209.75 693.812 277.964 783.444C318.221 836.344 350.806 903.957 369.316 968.634"
        fill="$fillColor" />
    <path opacity="0.4"
        d="M224.424 873.697C252.435 902.207 274.958 944.487 302.632 968.075C297.504 928.616 289.327 886.478 270.157 850.915C250.692 814.795 215.308 785.036 179.291 787.477C134.655 790.507 97.9227 842.507 93.2149 889.661C96.0292 861.442 152.76 842.361 174.418 845.04C208.354 908.996 221.531 1035.03 221.531 1035.03C249.755 963.692 238.297 907.57 224.424 873.697Z"
        fill="#8f6545" />

</svg>