<svg width="1663" height="1881" viewBox="0 0 1663 1881" fill="none" xmlns="http://www.w3.org/2000/svg">
    <path
        d="M859.74 326.04C1138.37 333.564 1275.49 531.382 1302.16 634.837C1129.58 607.667 701.138 526.807 643.236 683.43C514.589 1031.41 596.17 1445.23 643.236 1614.53C470.033 1627.07 255.202 1565.41 169.438 1533.02C152.18 1512.64 164.029 1592.46 138.06 1206.97C94.1319 554.895 458.109 421.657 577.343 368.362C672.731 325.726 806.398 317.68 859.74 326.04Z"
        fill="#220F00" />
    <path
        d="M1375.9 1525.18C1367.11 1508.88 1367.01 1451.5 1368.05 1424.86C1290.24 1495.08 1209.07 1527.27 1178.22 1534.58C1238.46 1542.11 1335.11 1531.45 1375.9 1525.18Z"
        fill="#220F00" />
    <mask id="mask0_8_377" style="mask-type:alpha" maskUnits="userSpaceOnUse" x="134" y="323" width="1242"
        height="1294">
        <path
            d="M859.74 326.04C1138.37 333.564 1251.96 504.735 1273.92 589.38C1101.35 562.21 701.138 526.807 643.236 683.43C514.589 1031.41 596.17 1445.23 643.236 1614.53C470.033 1627.07 255.203 1565.41 169.438 1533.02C152.18 1512.64 164.03 1592.46 138.06 1206.97C94.1322 554.895 458.11 421.657 577.344 368.362C672.731 325.726 806.398 317.68 859.74 326.04Z"
            fill="#2A1200" />
        <path
            d="M1375.9 1525.18C1367.11 1508.88 1367.01 1451.5 1368.05 1424.86C1290.24 1495.08 1209.07 1527.27 1178.22 1534.58C1238.46 1542.11 1335.11 1531.45 1375.9 1525.18Z"
            fill="#2A1200" />
    </mask>
    <g mask="url(#mask0_8_377)">
        <path
            d="M950.833 458.419C950.833 458.419 912.256 446.878 867.654 482.145C867.654 482.145 889.32 441.984 912.449 429.937C912.449 429.937 824.42 424.683 755.735 509.341C755.735 509.341 788.914 426.453 840.833 400.193C840.833 400.193 774.74 411.229 745.646 437.882C745.646 437.882 750.285 388.933 784.564 368.075C784.564 368.075 727.021 338.319 675.713 350.409C675.713 350.409 774.129 319.809 807.077 322.77C868.805 311.524 952.548 342.545 952.548 342.545C932.124 343.645 909.814 361.276 909.814 361.276C963.778 359.708 1022.17 384.302 1022.17 384.302C994.991 383.694 975.072 402.824 975.072 402.824C1035.48 415.41 1078.19 454.848 1078.19 454.848C1063.44 443.065 1015.94 448.058 1015.94 448.058C1045.91 463.695 1074.82 501.423 1074.82 501.423L1019.93 482.177C1019.93 482.177 992.646 571.925 981.042 588.684C981.042 588.684 995.614 511.828 984.549 488.453C984.549 488.453 928.308 551.197 878.897 594.195C878.904 594.158 917.088 486.58 950.833 458.419Z"
            fill="#1B0C01" />
    </g>
    <path
        d="M899.775 849.311C1132.43 852.993 1296.35 818.628 1349.23 800.986C1341.67 681.322 1261.83 449.399 988.387 442.035C714.939 434.671 569.925 675.185 533.415 800.986C611.975 843.328 785.838 847.01 863.894 849.311L886.556 748.057L899.775 849.311Z"
        fill="#220F00" />
    <path
        d="M605.583 539.22C542.828 722.095 444.303 1178.76 552.242 1542.42C465.431 1340.74 354.564 857.736 605.583 539.22Z"
        fill="#150901" />
    <path
        d="M338.876 946.77C338.876 766.194 464.385 566.39 527.14 489.06C198.305 639.54 224.871 1042.91 279.259 1225.79C231.565 947.397 311.682 767.03 357.702 711.645C332.6 789.393 334.692 900.79 338.876 946.77Z"
        fill="#150901" />
    <path
        d="M1088.79 514.14C1143.18 541.31 1253.21 630.762 1258.23 771.21C1268.69 693.88 1249.45 534.204 1088.79 514.14Z"
        fill="#150901" />
    <path
        d="M891.117 539.22C872.291 571.615 835.265 654.588 837.775 727.32C821.041 691.79 808.281 604.428 891.117 539.22Z"
        fill="#150901" />
</svg>