<svg width="530" height="600" viewBox="0 0 530 600" fill="none" xmlns="http://www.w3.org/2000/svg">
    <path
        d="M423 224.5C398 120.5 307.5 101.5 270.5 103C106.1 105 69.6667 238.167 72 310.5C73 308.5 75 307 75 307C88 300 95.5 302 98 302C141.5 304 156.833 355.5 154 377.5C161.9 384.907 172.727 377.684 177.329 374.614L177.5 374.5C181.1 372.1 177.5 361 177.5 354.5C168.5 312.5 170.5 252.5 173 252.5C175 252.5 202.5 250.167 213.5 248.5C212.7 238.1 209.833 208.167 213.5 203C210.3 208.2 223.667 239.833 225 246C274.5 251 375.5 233 378.5 231.5C380.9 230.3 377.5 203.667 375.5 190.5C383.1 197.7 389.333 222.167 390.5 231.5C400.1 230.7 416.167 226.5 423 224.5Z"
        fill="#71472D" />
    <path d="M283 119C306.333 120.667 360.4 135.2 390 180C378.333 155.667 340.6 109.4 283 119Z" fill="#613D25" />
    <path d="M331 167C338 176 352.2 200.6 353 227C358 216.333 360.6 189.4 331 167Z" fill="#613D25" />
    <path
        d="M132 251C136.8 197.4 172 158 189 145C125 165.8 111 234.333 112 266C112.8 226 135.667 192 147 180C136.6 198.4 132.667 235 132 251Z"
        fill="#613D25" />
</svg>