<svg width="1663" height="1881" viewBox="0 0 1663 1881" fill="none" xmlns="http://www.w3.org/2000/svg">
    <path
        d="M1327.26 703.808C1248.82 377.768 964.854 318.203 848.758 322.905C332.914 329.175 218.596 746.653 225.917 973.418C229.055 967.148 235.33 962.445 235.33 962.445C276.121 940.5 299.654 946.77 307.498 946.77C443.99 953.04 492.102 1114.49 483.211 1183.46C508.001 1206.68 541.971 1184.04 556.412 1174.41L556.948 1174.06C568.244 1166.53 556.948 1131.73 556.948 1111.36C528.708 979.688 534.984 791.588 542.828 791.588C549.104 791.588 635.391 784.273 669.907 779.048C667.396 746.444 658.402 652.603 669.907 636.405C659.866 652.707 701.807 751.878 705.991 771.21C861.308 786.885 1178.22 730.455 1187.63 725.753C1195.16 721.991 1184.5 638.495 1178.22 597.218C1202.07 619.79 1221.63 696.493 1225.29 725.753C1255.41 723.245 1305.82 710.078 1327.26 703.808Z"
        fill="#71472D" />
    <path
        d="M887.979 373.065C961.193 378.29 1130.84 423.852 1223.72 564.3C1187.11 488.015 1068.71 342.969 887.979 373.065Z"
        fill="#613D25" />
    <path
        d="M1038.59 523.545C1060.55 551.76 1105.11 628.881 1107.62 711.645C1123.31 678.205 1131.47 593.769 1038.59 523.545Z"
        fill="#613D25" />
    <path
        d="M414.181 786.885C429.242 618.849 539.691 495.33 593.032 454.575C392.217 519.783 348.289 734.635 351.426 833.91C353.937 708.51 425.686 601.92 461.247 564.3C428.615 621.984 416.273 736.725 414.181 786.885Z"
        fill="#613D25" />
</svg>