<svg width="530" height="600" viewBox="0 0 530 600" fill="none" xmlns="http://www.w3.org/2000/svg">
    <path
        d="M144 337.5C245 304.5 318.5 212 351 167C365 200.6 402.833 225 420 233C412 195 391 157 349 128.5C315.4 105.7 264.833 103.667 245 106C18.9997 127.5 27.0089 382 49.3422 487C77.2896 507 148.316 545.6 208.842 540C201.242 520.8 206.833 478.833 210 462C197.6 457.2 162.167 427.667 151 419C134.5 426 128 426 107.5 422C33.4999 388 65.4999 334.5 65.4999 334.5C65.4999 334.5 75.4999 314.5 103 314C125 313.6 137.167 325.833 144 337.5Z"
        fill="#220F01" />
    <path
        d="M433.5 525C426.7 515.4 430.667 471.833 433.5 457C405.5 480.5 389 492 331.5 493.5C350 504 396.3 525 433.5 525Z"
        fill="#220F01" />
    <path fill-rule="evenodd" clip-rule="evenodd"
        d="M257.693 115.97C239.748 135.446 208.648 166.032 173.273 194.941C138.769 223.138 99.1784 250.594 63.2416 264.024C61.9365 265.368 59.2657 268.862 56.1967 276.353C52.53 285.303 48.8273 298.662 46.1374 317.527C40.76 355.241 39.18 391.272 49.5 478C50.3157 484.855 45 488.846 37 487C30.5 485.5 26.3157 479.855 25.5 473C15.0201 384.928 15.6068 354.542 21.3877 313.998C24.2771 293.734 28.4014 278.253 33.0628 266.875C37.5347 255.96 43.1363 247.245 50.04 242.617L51.3161 241.762L52.7613 241.241C85.0973 229.585 122.84 203.87 157.453 175.583C187.411 151.101 214.231 125.354 232.03 106.769C233.724 105 246 101.5 260.748 105C261.521 108.799 260.52 112.902 257.693 115.97ZM205.369 116.309C180.799 141.046 124.715 195.21 69.2041 219C66.771 220.043 81.7041 217.251 67 220C70.568 205.399 79.8141 188.06 85.8809 182C117.194 164.003 140.583 141.681 163.868 121C172.503 117.182 193.546 109.738 208.637 110.5C208.113 112.626 207.024 114.642 205.369 116.309ZM91.2644 293.765C204.266 233.517 284.476 146.531 307.5 110.5C299.9 104.1 285.978 104.346 279.967 105.769C259.489 137.815 188.389 214.178 77.1605 272.948L76.4539 273.321L75.8007 273.781C72.132 276.366 69.9993 280.204 68.7307 282.926C67.2697 286.062 65.9878 289.898 64.8437 294.349C62.5472 303.282 60.4967 315.925 58.9974 333.1C55.9937 367.511 54.5828 409.183 59 490.5C59.3745 497.393 67.5 503 71.5 504.5L71.6457 504.5C73.5541 504.506 83.0459 504.533 84 499.5C81.9577 461.902 81.553 432.232 81.4785 406C81.2372 405.592 80.4893 404.944 79.4044 404.005C73.8415 399.187 59.418 386.696 58.9974 359.5C61.4933 338.303 67.0967 331.617 69.2041 329.102C69.6319 328.592 69.9157 328.253 70 328C80 318 85.8809 317.5 85.8809 317.5C86.8912 310.303 87.9846 304.743 89.0565 300.573C89.9108 297.25 90.6855 295.072 91.2644 293.765ZM124.31 475.41C124.451 482.722 124.496 488.739 124.535 493.992C124.616 504.861 124.673 512.46 125.5 521.5C126.129 528.375 118.5 528.5 114.5 528.5C109.5 527.5 102.129 523.875 101.5 517L101.436 516.303L101.303 514.855C100.177 502.589 99.7352 497.781 99.3148 475.89C98.9341 456.062 99.3192 435.076 101.581 419C104.958 421 114.568 424.5 126 424.5C124.34 438.024 123.951 456.708 124.31 475.41ZM106.16 299.948C217.24 241.257 298.442 146.17 319 114C325.167 114.811 338.8 118.14 344 124.967C320.891 161.13 238.021 256.991 123.5 317.5C122.683 317.931 120.759 317.237 118.407 316.387C116.439 315.677 114.171 314.858 112 314.5C108.008 313.841 101 314 101 314C97.7749 307.896 100.057 303.173 106.16 299.948ZM352.332 174.453C323.086 214.67 247 297.5 150 337C144.532 339.889 144.226 339.29 141.904 334.747L141.901 334.742C141.632 334.215 141.335 333.634 141 333C139.822 330.771 138.178 329.192 136.863 327.93C134.578 325.736 133.286 324.495 137.16 322.448C247.934 263.919 318.226 182.226 338.967 149.769C340.74 146.994 343.426 145.156 346.382 144.395C351.88 140.956 359.183 142.294 363.08 147.608C369.156 155.894 380.12 169.301 392.899 182.071C397.879 187.048 402.981 191.771 408.045 196C412.51 206.12 421.438 227.973 421.438 234.429C405.262 227.265 389.039 217.03 375.5 203.5C369.83 197.833 364.378 190.457 359.512 183.871L359.511 183.87C356.936 180.386 354.525 177.123 352.332 174.453ZM161.64 474.25C161.395 460.642 161.451 447.516 161.974 436.304C162.13 432.952 162.268 430.845 162.5 428L151 419C147.8 420.6 140.667 422.667 137.5 423.5C137.265 426.033 137.209 428.261 137.149 430.655C137.113 432.061 137.076 433.524 137.001 435.139C136.444 447.088 136.394 460.799 136.644 474.7C137.13 501.641 138.011 512.932 139.367 530.297L139.5 532C140.037 538.883 152.5 542 152.5 542C152.5 542 163.5 541.5 164 538C162.598 520.022 162.13 501.455 161.64 474.25ZM177.644 474.7C177.812 483.994 177.859 491.761 177.901 498.668C177.984 512.429 178.047 522.779 179 535C179.537 541.883 186.617 545.037 193.5 544.5C200.383 543.963 205.037 542.883 204.5 536C199.985 514.34 200.289 506.953 201.101 487.208C201.227 484.138 201.365 480.768 201.5 477C201.448 474.139 201.736 470.372 202.015 466.703C202.259 463.506 202.497 460.383 202.5 458C199 456 184.41 445.5 177.5 440C177.188 449.73 177.398 461.242 177.598 472.188V472.189C177.614 473.03 177.629 473.867 177.644 474.7ZM424.539 464.5C429.772 460.211 434.16 455.854 434 457C433.84 458.146 433.651 459.443 433.445 460.863C432.217 469.317 430.355 482.128 430.019 493.228C429.609 506.782 432.015 518.186 434 524C434.854 526.5 427 526 420.5 526C413.5 526 407.012 523.5 406.5 522C402.885 511.414 404.624 505.902 405.031 492.472C405.184 487.393 405.472 482.32 405.835 477.5C405.835 477.5 416 471.5 424.539 464.5ZM399 481C399 480.5 394 483.5 385.5 486C376.5 489 371.5 489.5 371.5 489.5C371.5 495.168 371.312 492.58 370.829 502.037C370.68 504.943 370.672 503.166 370.829 506.5C370.829 506.5 370.829 511 370.829 512.5C374.089 518.585 377 518.097 384 519.597C391 520.194 397 521 396.5 517C396 513 395.371 511.631 395.796 503.313C396.188 495.653 399 485.672 399 481Z"
        fill="#451E00" />
    <mask id="mask0_134_133" style="mask-type:alpha" maskUnits="userSpaceOnUse" x="17" y="103" width="418" height="442">
        <path fill-rule="evenodd" clip-rule="evenodd"
            d="M257.693 115.97C239.748 135.446 208.648 166.032 173.273 194.941C138.769 223.138 99.1784 250.594 63.2416 264.024C61.9365 265.368 59.2657 268.862 56.1967 276.353C52.53 285.303 48.8273 298.662 46.1374 317.527C40.76 355.241 39.18 391.272 49.5 478C50.3157 484.855 45 488.846 37 487C30.5 485.5 26.3157 479.855 25.5 473C15.0201 384.928 15.6068 354.542 21.3877 313.998C24.2771 293.734 28.4014 278.253 33.0628 266.875C37.5347 255.96 43.1363 247.245 50.04 242.617L51.3161 241.762L52.7613 241.241C85.0973 229.585 122.84 203.87 157.453 175.583C187.411 151.101 214.231 125.354 232.03 106.769C233.724 105 246 101.5 260.748 105C261.521 108.799 260.52 112.902 257.693 115.97ZM205.369 116.309C180.799 141.046 124.241 195.21 68.7307 219C66.2976 220.043 69.4105 218.494 67 218C70.568 203.399 79.8141 187.56 85.8809 181.5C117.194 163.503 140.583 141.681 163.868 121C172.503 117.182 193.546 109.738 208.637 110.5C208.113 112.626 207.024 114.642 205.369 116.309ZM91.2644 293.765C204.266 233.517 284.476 146.531 307.5 110.5C299.9 104.1 285.978 104.346 279.967 105.769C259.489 137.815 188.389 214.178 77.1605 272.948L76.4539 273.321L75.8007 273.781C72.132 276.366 69.9993 280.204 68.7307 282.926C67.2697 286.062 65.9878 289.898 64.8437 294.349C62.5472 303.282 60.4967 315.925 58.9974 333.1C55.9937 367.511 54.5828 409.183 59 490.5C59.3745 497.393 67.5 503 71.5 504.5L71.6457 504.5C73.5541 504.506 83.0459 504.533 84 499.5C81.9577 461.902 81.553 432.232 81.4785 406C81.2372 405.592 80.4893 404.944 79.4044 404.005C73.8415 399.187 59.418 386.696 58.9974 359.5C61.4933 338.303 67.0967 331.617 69.2041 329.102C69.6319 328.592 69.9157 328.253 70 328C80 318 85.8809 317.5 85.8809 317.5C86.8912 310.303 87.9846 304.743 89.0565 300.573C89.9108 297.25 90.6855 295.072 91.2644 293.765ZM124.31 475.41C124.451 482.722 124.496 488.739 124.535 493.992C124.616 504.861 124.673 512.46 125.5 521.5C126.129 528.375 118.5 528.5 114.5 528.5C109.5 527.5 102.129 523.875 101.5 517L101.436 516.303L101.303 514.855C100.177 502.589 99.7352 497.781 99.3148 475.89C98.9341 456.062 99.3192 435.076 101.581 419C104.958 421 114.568 424.5 126 424.5C124.34 438.024 123.951 456.708 124.31 475.41ZM106.16 299.948C217.24 241.257 298.442 146.17 319 114C325.167 114.811 338.8 118.14 344 124.967C320.891 161.13 238.021 256.991 123.5 317.5C122.683 317.931 120.759 317.237 118.407 316.387C116.439 315.677 114.171 314.858 112 314.5C108.008 313.841 101 314 101 314C97.7749 307.896 100.057 303.173 106.16 299.948ZM352.332 174.453C323.086 214.67 247 297.5 150 337C144.532 339.889 144.226 339.29 141.904 334.747L141.901 334.742C141.632 334.215 141.335 333.634 141 333C139.822 330.771 138.178 329.192 136.863 327.93C134.578 325.736 133.286 324.495 137.16 322.448C247.934 263.919 318.226 182.226 338.967 149.769C340.74 146.994 343.426 145.156 346.382 144.395C351.88 140.956 359.183 142.294 363.08 147.608C369.156 155.894 380.12 169.301 392.899 182.071C397.879 187.048 402.981 191.771 408.045 196C412.51 206.12 421.438 227.973 421.438 234.429C405.262 227.265 389.039 217.03 375.5 203.5C369.83 197.833 364.378 190.457 359.512 183.871L359.511 183.87C356.936 180.386 354.525 177.123 352.332 174.453ZM161.64 474.25C161.395 460.642 161.451 447.516 161.974 436.304C162.13 432.952 162.268 430.845 162.5 428L151 419C147.8 420.6 140.667 422.667 137.5 423.5C137.265 426.033 137.209 428.261 137.149 430.655C137.113 432.061 137.076 433.524 137.001 435.139C136.444 447.088 136.394 460.799 136.644 474.7C137.13 501.641 138.011 512.932 139.367 530.297L139.5 532C140.037 538.883 152.5 542 152.5 542C152.5 542 163.5 541.5 164 538C162.598 520.022 162.13 501.455 161.64 474.25ZM177.644 474.7C177.812 483.994 177.859 491.761 177.901 498.668C177.984 512.429 178.047 522.779 179 535C179.537 541.883 186.617 545.037 193.5 544.5C200.383 543.963 205.037 542.883 204.5 536C199.985 514.34 200.289 506.953 201.101 487.208C201.227 484.138 201.365 480.768 201.5 477C201.448 474.139 201.736 470.372 202.015 466.703C202.259 463.506 202.497 460.383 202.5 458C199 456 184.41 445.5 177.5 440C177.188 449.73 177.398 461.242 177.598 472.188V472.189C177.614 473.03 177.629 473.867 177.644 474.7ZM424.539 464.5C429.772 460.211 434.16 455.854 434 457C433.84 458.146 433.651 459.443 433.445 460.863C432.217 469.317 430.355 482.128 430.019 493.228C429.609 506.782 432.015 518.186 434 524C434.854 526.5 427 526 420.5 526C413.5 526 407.012 523.5 406.5 522C402.885 511.414 404.624 505.902 405.031 492.472C405.184 487.393 405.472 482.32 405.835 477.5C405.835 477.5 416 471.5 424.539 464.5ZM399 481C399 480.5 394 483.5 385.5 486C376.5 489 371.5 489.5 371.5 489.5C371.5 495.168 371.312 492.58 370.829 502.037C370.68 504.943 370.672 503.166 370.829 506.5C370.829 506.5 370.829 511 370.829 512.5C374.089 518.585 377 518.097 384 519.597C391 520.194 397 521 396.5 517C396 513 395.371 511.631 395.796 503.313C396.188 495.653 399 485.672 399 481Z"
            fill="#C4C4C4" />
    </mask>
    <g mask="url(#mask0_134_133)">
        <path fill-rule="evenodd" clip-rule="evenodd"
            d="M323.032 170.746C323.46 164.095 324.919 157.755 326.222 154.273L332.778 156.727C331.748 159.479 330.407 165.132 330.018 171.194C329.683 176.408 330.094 181.339 331.553 184.915C332.738 184.824 333.937 184.746 335.122 184.669L335.136 184.668C337.15 184.536 339.128 184.407 341.046 184.225C344.948 183.855 348.236 183.295 350.633 182.278L353.367 188.722C349.916 190.186 345.712 190.814 341.706 191.194C339.683 191.385 337.616 191.52 335.634 191.65L335.593 191.653C333.577 191.784 331.652 191.911 329.837 192.086C320.092 193.028 306.598 192.469 301.255 192.094L301.745 185.111C306.113 185.417 315.893 185.833 324.328 185.45C322.915 180.783 322.729 175.471 323.032 170.746Z"
            fill="#351700" />
        <path fill-rule="evenodd" clip-rule="evenodd"
            d="M286.537 210.974C286.604 204.817 287.725 198.879 288.856 195.565L295.481 197.825C294.62 200.349 293.596 205.538 293.537 211.05C293.486 215.759 294.149 220.102 295.719 223.177C296.928 223.019 298.153 222.873 299.366 222.728L299.378 222.726C301.38 222.487 303.352 222.251 305.261 221.971C309.145 221.4 312.429 220.689 314.797 219.603L317.714 225.966C314.379 227.495 310.248 228.313 306.278 228.896C304.273 229.191 302.222 229.436 300.248 229.672L300.209 229.677C298.205 229.916 296.286 230.146 294.478 230.415C284.858 231.844 267.886 232.526 262.483 232.5L262.517 225.5C266.874 225.521 279.224 225.05 288.493 224.098C286.934 219.932 286.492 215.193 286.537 210.974Z"
            fill="#351700" />
        <path fill-rule="evenodd" clip-rule="evenodd"
            d="M241.565 253.993C241.767 247.839 243.018 241.927 244.22 238.639L250.794 241.043C249.878 243.547 248.742 248.713 248.562 254.222C248.408 258.929 248.976 263.285 250.477 266.394C251.689 266.263 252.918 266.143 254.134 266.024L254.145 266.023C256.153 265.828 258.129 265.635 260.044 265.396C263.939 264.911 267.238 264.272 269.63 263.238L272.406 269.664C269.038 271.119 264.891 271.847 260.909 272.343C258.898 272.593 256.842 272.794 254.864 272.986L254.824 272.99C252.815 273.186 250.892 273.374 249.078 273.603C244.086 274.233 236.258 274.259 229.214 274.129C224.31 274.038 219.562 273.865 216.276 273.745C214.834 273.692 213.674 273.65 212.906 273.629L213.094 266.632C213.971 266.655 215.206 266.7 216.708 266.755C219.97 266.875 224.491 267.04 229.343 267.13C234.181 267.219 239.133 267.227 243.195 267.046C241.76 262.875 241.429 258.173 241.565 253.993Z"
            fill="#351700" />
        <path fill-rule="evenodd" clip-rule="evenodd"
            d="M191.632 292.993C191.76 286.836 192.94 280.91 194.103 277.608L200.706 279.933C199.82 282.448 198.745 287.627 198.631 293.138C198.533 297.846 199.153 302.196 200.691 305.286C201.902 305.14 203.129 305.006 204.343 304.873L204.355 304.872C206.36 304.652 208.333 304.436 210.245 304.175C214.135 303.643 217.425 302.964 219.805 301.902L222.658 308.294C219.308 309.79 215.169 310.567 211.193 311.11C209.186 311.384 207.132 311.609 205.156 311.826L205.117 311.83C203.11 312.05 201.189 312.261 199.379 312.511C194.356 313.207 184.28 313.213 175.106 313.061C170.454 312.985 165.934 312.865 162.252 312.759C161.219 312.729 160.256 312.701 159.376 312.675C157.099 312.608 155.381 312.558 154.448 312.544L154.552 305.545C155.54 305.559 157.343 305.612 159.655 305.68C160.522 305.706 161.46 305.734 162.453 305.762C166.125 305.867 170.612 305.986 175.222 306.062C181.835 306.171 188.51 306.186 193.398 305.972C191.929 301.831 191.546 297.156 191.632 292.993Z"
            fill="#351700" />
        <path fill-rule="evenodd" clip-rule="evenodd"
            d="M139.231 451.048C134.85 446.721 131.36 441.788 129.763 438.672L135.992 435.479C137.208 437.852 140.228 442.194 144.15 446.068C147.501 449.377 151.084 451.919 154.385 452.927C155.112 451.949 155.859 450.965 156.597 449.993L156.604 449.983C157.824 448.377 159.025 446.796 160.15 445.228C162.439 442.039 164.21 439.184 165.076 436.726L171.678 439.051C170.459 442.512 168.177 446.05 165.837 449.31C164.655 450.956 163.405 452.602 162.204 454.185L162.18 454.216C160.959 455.824 159.791 457.364 158.727 458.85C155.673 463.12 149.272 468.873 143.537 473.785C141.438 475.583 139.36 477.325 137.491 478.891C136.757 479.506 136.055 480.095 135.397 480.649C132.989 482.675 131.283 484.147 130.505 484.945L125.496 480.055C126.569 478.956 128.584 477.233 130.889 475.293C131.568 474.722 132.282 474.123 133.024 473.501C134.884 471.943 136.915 470.241 138.983 468.469C142.965 465.058 146.851 461.583 149.714 458.625C145.758 456.837 142.156 453.937 139.231 451.048Z"
            fill="#351700" />
        <path fill-rule="evenodd" clip-rule="evenodd"
            d="M138.871 507.048C134.49 502.721 131 497.788 129.403 494.672L135.632 491.479C136.848 493.852 139.868 498.194 143.79 502.068C147.14 505.377 150.724 507.919 154.025 508.927C154.752 507.949 155.499 506.965 156.237 505.993L156.244 505.983C157.464 504.377 158.665 502.796 159.79 501.228C162.079 498.039 163.85 495.184 164.715 492.726L171.318 495.051C170.099 498.512 167.817 502.05 165.476 505.31C164.295 506.956 163.045 508.602 161.843 510.185L161.82 510.216C160.599 511.824 159.431 513.364 158.367 514.85C155.313 519.12 148.912 524.873 143.177 529.785C141.078 531.583 139 533.325 137.131 534.891C136.397 535.506 135.695 536.095 135.037 536.649C132.629 538.675 130.923 540.147 130.145 540.945L125.136 536.055C126.209 534.956 128.224 533.233 130.529 531.293C131.208 530.722 131.922 530.123 132.664 529.501C134.524 527.943 136.554 526.241 138.623 524.469C142.605 521.058 146.491 517.583 149.354 514.625C145.398 512.837 141.796 509.937 138.871 507.048Z"
            fill="#351700" />
        <path fill-rule="evenodd" clip-rule="evenodd"
            d="M178.871 482.048C174.49 477.721 171 472.788 169.403 469.672L175.632 466.479C176.848 468.852 179.868 473.194 183.79 477.067C187.14 480.377 190.724 482.919 194.025 483.927C194.752 482.949 195.499 481.965 196.237 480.993L196.244 480.983C197.464 479.377 198.665 477.795 199.79 476.228C202.079 473.039 203.85 470.183 204.715 467.726L211.318 470.051C210.099 473.512 207.817 477.05 205.476 480.31C204.295 481.956 203.045 483.602 201.843 485.185L201.82 485.216C200.599 486.824 199.431 488.364 198.367 489.85C195.313 494.119 188.912 499.872 183.177 504.785C181.078 506.583 179 508.325 177.131 509.891C176.397 510.506 175.695 511.095 175.037 511.649C172.629 513.675 170.923 515.147 170.145 515.945L165.136 511.055C166.209 509.956 168.224 508.233 170.529 506.293C171.208 505.722 171.922 505.123 172.664 504.501C174.524 502.943 176.554 501.241 178.623 499.469C182.605 496.058 186.491 492.583 189.354 489.625C185.398 487.837 181.796 484.937 178.871 482.048Z"
            fill="#351700" />
        <path fill-rule="evenodd" clip-rule="evenodd"
            d="M374.21 184.481C367.566 183.959 361.084 184.502 357.451 185.296L358.948 192.135C361.819 191.506 367.604 190.983 373.661 191.46C378.869 191.87 383.692 192.977 387.023 194.93C386.766 196.09 386.517 197.266 386.272 198.428L386.269 198.442C385.853 200.417 385.443 202.356 384.991 204.228C384.07 208.039 383.048 211.213 381.7 213.442L387.69 217.064C389.63 213.856 390.85 209.784 391.795 205.873C392.272 203.897 392.7 201.871 393.11 199.927L393.119 199.887C393.536 197.91 393.934 196.023 394.366 194.251C396.684 184.739 398.049 171.303 398.438 165.961L391.456 165.453C391.139 169.82 390.159 179.56 388.581 187.855C384.162 185.792 378.93 184.853 374.21 184.481Z"
            fill="#351700" />
        <path fill-rule="evenodd" clip-rule="evenodd"
            d="M422.918 213.612C422.852 207.454 421.73 201.516 420.6 198.203L413.975 200.463C414.836 202.986 415.859 208.176 415.918 213.687C415.969 218.396 415.306 222.739 413.737 225.814C412.528 225.657 411.302 225.51 410.09 225.365L410.078 225.364C408.075 225.124 406.104 224.888 404.194 224.608C400.311 224.038 397.027 223.326 394.658 222.24L391.742 228.604C395.077 230.132 399.207 230.951 403.177 231.534C405.182 231.828 407.234 232.073 409.207 232.309L409.247 232.314C411.251 232.554 413.17 232.784 414.978 233.052C424.598 234.482 441.569 235.164 446.972 235.137L446.938 228.137C442.581 228.159 430.232 227.688 420.963 226.735C422.521 222.57 422.963 217.83 422.918 213.612Z"
            fill="#351700" />
        <path fill-rule="evenodd" clip-rule="evenodd"
            d="M434.374 487.048C438.755 482.721 442.245 477.788 443.842 474.672L437.613 471.479C436.397 473.852 433.377 478.194 429.455 482.068C426.104 485.377 422.521 487.919 419.22 488.927C418.493 487.949 417.746 486.965 417.008 485.993L417.001 485.983C415.781 484.377 414.58 482.796 413.455 481.228C411.166 478.039 409.395 475.184 408.529 472.726L401.927 475.051C403.146 478.512 405.428 482.05 407.768 485.31C408.95 486.956 410.2 488.602 411.401 490.185L411.425 490.216C412.646 491.824 413.814 493.364 414.878 494.85C417.932 499.12 424.333 504.873 430.068 509.785C432.167 511.583 434.245 513.325 436.114 514.891C436.848 515.506 437.55 516.095 438.208 516.649C440.616 518.675 442.322 520.147 443.1 520.945L448.109 516.055C447.036 514.956 445.02 513.233 442.716 511.293C442.037 510.722 441.323 510.123 440.581 509.501C438.721 507.943 436.69 506.241 434.622 504.469C430.64 501.058 426.754 497.583 423.891 494.625C427.847 492.837 431.449 489.937 434.374 487.048Z"
            fill="#351700" />
        <path fill-rule="evenodd" clip-rule="evenodd"
            d="M395.374 501.048C399.755 496.721 403.245 491.788 404.842 488.672L398.613 485.479C397.397 487.852 394.377 492.194 390.455 496.068C387.104 499.377 383.521 501.919 380.22 502.927C379.493 501.949 378.746 500.965 378.008 499.993L378.001 499.983C376.781 498.377 375.58 496.796 374.455 495.228C372.166 492.039 370.395 489.184 369.529 486.726L362.927 489.051C364.146 492.512 366.428 496.05 368.768 499.31C369.95 500.956 371.2 502.602 372.401 504.185L372.425 504.216C373.646 505.824 374.814 507.364 375.878 508.85C378.932 513.12 385.333 518.873 391.068 523.785C393.167 525.583 395.245 527.325 397.114 528.891C397.848 529.506 398.55 530.095 399.208 530.649C401.616 532.675 403.322 534.147 404.1 534.945L409.109 530.055C408.036 528.956 406.02 527.233 403.716 525.293C403.037 524.722 402.323 524.123 401.581 523.501C399.721 521.943 397.69 520.241 395.622 518.469C391.64 515.058 387.754 511.583 384.891 508.625C388.847 506.837 392.449 503.937 395.374 501.048Z"
            fill="#351700" />
        <path fill-rule="evenodd" clip-rule="evenodd"
            d="M271.151 171.353C272.044 164.749 273.945 158.528 275.49 155.146L281.857 158.054C280.636 160.727 278.902 166.271 278.087 172.292C277.387 177.469 277.45 182.417 278.654 186.086C279.843 186.079 281.045 186.085 282.232 186.091L282.246 186.091C284.265 186.102 286.246 186.112 288.172 186.065C292.091 185.97 295.41 185.643 297.873 184.797L300.147 191.417C296.601 192.635 292.363 192.966 288.341 193.063C286.309 193.112 284.239 193.102 282.252 193.092L282.211 193.091C280.19 193.081 278.262 193.072 276.438 193.119C266.652 193.373 253.23 191.868 247.927 191.118L248.906 184.187C253.242 184.8 262.968 185.901 271.41 186.112C270.328 181.357 270.516 176.046 271.151 171.353Z"
            fill="#351700" />
        <path fill-rule="evenodd" clip-rule="evenodd"
            d="M306.769 128.721C307.663 122.117 309.564 115.896 311.109 112.514L317.476 115.422C316.255 118.095 314.52 123.639 313.706 129.66C313.005 134.837 313.068 139.785 314.272 143.454C315.461 143.447 316.663 143.453 317.85 143.459L317.864 143.459C319.883 143.469 321.865 143.479 323.79 143.433C327.71 143.338 331.029 143.011 333.491 142.165L335.765 148.785C332.22 150.003 327.982 150.334 323.959 150.431C321.928 150.48 319.857 150.469 317.87 150.459L317.829 150.459C315.809 150.449 313.88 150.44 312.057 150.487C302.27 150.741 288.849 149.236 283.545 148.486L284.525 141.555C288.86 142.168 298.587 143.269 307.028 143.48C305.946 138.725 306.134 133.413 306.769 128.721Z"
            fill="#351700" />
        <path fill-rule="evenodd" clip-rule="evenodd"
            d="M231.919 208.918C232.418 202.78 233.954 196.936 235.314 193.71L241.764 196.43C240.728 198.886 239.342 203.991 238.896 209.485C238.514 214.179 238.87 218.558 240.22 221.735C241.437 221.663 242.67 221.603 243.89 221.544L243.901 221.543C245.916 221.445 247.899 221.348 249.823 221.203C253.738 220.907 257.063 220.428 259.502 219.511L261.965 226.064C258.53 227.354 254.353 227.88 250.351 228.183C248.331 228.335 246.267 228.436 244.282 228.533L244.242 228.535C242.226 228.633 240.295 228.728 238.473 228.868C228.776 229.618 211.799 229.106 206.411 228.7L206.937 221.72C211.282 222.047 223.634 222.445 232.947 222.147C231.685 217.882 231.577 213.123 231.919 208.918Z"
            fill="#351700" />
        <path fill-rule="evenodd" clip-rule="evenodd"
            d="M184.035 248.67C184.668 242.545 186.331 236.736 187.762 233.54L194.151 236.4C193.061 238.834 191.564 243.907 190.998 249.39C190.513 254.074 190.774 258.46 192.053 261.666C193.272 261.621 194.506 261.587 195.726 261.555L195.738 261.554C197.754 261.5 199.739 261.447 201.666 261.344C205.586 261.133 208.921 260.727 211.38 259.864L213.698 266.469C210.236 267.684 206.048 268.119 202.041 268.334C200.018 268.442 197.952 268.498 195.965 268.551L195.926 268.552C193.908 268.606 191.976 268.658 190.151 268.759C185.127 269.037 177.317 268.513 170.299 267.888C165.414 267.453 160.689 266.946 157.419 266.595C155.985 266.442 154.831 266.318 154.067 266.243L154.746 259.276C155.619 259.362 156.848 259.493 158.342 259.654C161.587 260.002 166.085 260.485 170.92 260.915C175.739 261.345 180.678 261.7 184.743 261.805C183.605 257.543 183.605 252.83 184.035 248.67Z"
            fill="#351700" />
        <path fill-rule="evenodd" clip-rule="evenodd"
            d="M131.484 284.064C132.044 277.932 133.638 272.103 135.03 268.891L141.453 271.674C140.393 274.121 138.956 279.212 138.455 284.701C138.027 289.391 138.34 293.773 139.657 296.963C140.875 296.903 142.109 296.856 143.329 296.808L143.341 296.808C145.356 296.73 147.34 296.653 149.266 296.526C153.183 296.269 156.513 295.823 158.961 294.931L161.358 301.508C157.911 302.764 153.728 303.249 149.724 303.511C147.702 303.644 145.637 303.724 143.651 303.801L143.612 303.803C141.595 303.881 139.664 303.956 137.84 304.079C132.781 304.42 122.73 303.717 113.589 302.922C108.954 302.518 104.453 302.081 100.788 301.717C99.7593 301.615 98.8006 301.519 97.925 301.431C95.6579 301.204 93.9479 301.033 93.0184 300.954L93.6139 293.979C94.5979 294.063 96.393 294.243 98.6948 294.473C99.5573 294.56 100.491 294.653 101.48 294.751C105.135 295.114 109.603 295.548 114.196 295.948C120.786 296.522 127.443 297.006 132.334 297.135C131.16 292.901 131.106 288.211 131.484 284.064Z"
            fill="#351700" />
        <path fill-rule="evenodd" clip-rule="evenodd"
            d="M102.242 444.554C98.1014 439.997 94.8829 434.882 93.4565 431.685L99.8493 428.833C100.935 431.268 103.717 435.768 107.423 439.847C110.59 443.333 114.031 446.064 117.273 447.25C118.052 446.312 118.851 445.37 119.641 444.439L119.648 444.43C120.953 442.892 122.237 441.377 123.445 439.873C125.904 436.812 127.826 434.057 128.823 431.649L135.29 434.328C133.886 437.718 131.416 441.127 128.903 444.256C127.634 445.836 126.298 447.412 125.012 448.928L124.986 448.958C123.681 450.497 122.431 451.971 121.289 453.398C118.12 457.357 110.809 464.29 104.045 470.489C100.614 473.632 97.25 476.653 94.5044 479.108C93.7337 479.798 93.015 480.439 92.3586 481.026C90.6591 482.543 89.3772 483.688 88.6904 484.319L83.9528 479.166C84.6798 478.497 86.0254 477.296 87.751 475.755C88.3976 475.178 89.0975 474.553 89.8383 473.891C92.5765 471.442 95.9159 468.443 99.3153 465.328C104.192 460.859 109.048 456.28 112.45 452.763C108.536 450.767 105.042 447.636 102.242 444.554Z"
            fill="#351700" />
        <path fill-rule="evenodd" clip-rule="evenodd"
            d="M101.242 501.554C97.1014 496.997 93.8829 491.882 92.4565 488.685L98.8493 485.833C99.9355 488.268 102.717 492.768 106.423 496.847C109.59 500.333 113.031 503.064 116.273 504.25C117.052 503.312 117.851 502.37 118.641 501.439L118.648 501.43C119.953 499.892 121.237 498.377 122.445 496.873C124.904 493.812 126.826 491.057 127.823 488.649L134.29 491.328C132.886 494.718 130.416 498.127 127.903 501.256C126.634 502.836 125.298 504.412 124.012 505.928L123.986 505.958C122.681 507.497 121.431 508.971 120.289 510.398C117.12 514.357 109.809 521.29 103.045 527.489C99.614 530.632 96.25 533.653 93.5044 536.108C92.7337 536.798 92.015 537.439 91.3586 538.026C89.6591 539.543 88.3772 540.688 87.6904 541.319L82.9528 536.166C83.6798 535.497 85.0254 534.296 86.751 532.755C87.3976 532.178 88.0975 531.553 88.8383 530.891C91.5765 528.442 94.9159 525.443 98.3153 522.328C103.192 517.859 108.048 513.28 111.45 509.763C107.536 507.767 104.042 504.636 101.242 501.554Z"
            fill="#351700" />
        <path fill-rule="evenodd" clip-rule="evenodd"
            d="M229.366 164.133C230.351 157.543 232.338 151.348 233.93 147.988L240.256 150.984C238.998 153.64 237.187 159.16 236.29 165.168C235.518 170.335 235.512 175.283 236.665 178.969C237.854 178.978 239.056 179.001 240.242 179.024L240.257 179.024C242.275 179.062 244.257 179.099 246.183 179.079C250.103 179.039 253.426 178.757 255.9 177.945L258.082 184.597C254.52 185.765 250.278 186.038 246.255 186.079C244.223 186.1 242.152 186.061 240.166 186.023L240.125 186.023C238.105 185.984 236.176 185.948 234.353 185.971C224.563 186.089 211.164 184.398 205.872 183.575L206.947 176.658C211.273 177.331 220.984 178.567 229.421 178.895C228.405 174.125 228.667 168.817 229.366 164.133Z"
            fill="#351700" />
        <path fill-rule="evenodd" clip-rule="evenodd"
            d="M265.571 121.998C266.556 115.407 268.543 109.213 270.135 105.852L276.461 108.848C275.203 111.505 273.392 117.024 272.495 123.033C271.723 128.199 271.717 133.148 272.87 136.833C274.059 136.843 275.261 136.866 276.447 136.888L276.462 136.889C278.48 136.927 280.462 136.964 282.388 136.944C286.308 136.904 289.631 136.622 292.105 135.81L294.287 142.461C290.725 143.63 286.483 143.902 282.46 143.944C280.428 143.965 278.357 143.926 276.371 143.888L276.33 143.887C274.31 143.849 272.381 143.813 270.558 143.835C260.768 143.954 247.369 142.263 242.077 141.44L243.152 134.523C247.478 135.196 257.189 136.432 265.626 136.76C264.61 131.99 264.872 126.681 265.571 121.998Z"
            fill="#351700" />
        <path fill-rule="evenodd" clip-rule="evenodd"
            d="M189.619 201.152C190.202 195.022 191.819 189.199 193.224 185.992L199.636 188.801C198.566 191.243 197.11 196.328 196.587 201.815C196.141 206.504 196.436 210.887 197.741 214.083C198.959 214.028 200.193 213.985 201.414 213.942L201.425 213.942C203.441 213.871 205.425 213.802 207.351 213.683C211.269 213.441 214.601 213.008 217.053 212.126L219.424 218.712C215.972 219.955 211.788 220.423 207.782 220.67C205.76 220.795 203.695 220.867 201.709 220.936L201.669 220.937C199.652 221.008 197.72 221.075 195.896 221.191C186.19 221.807 169.222 221.06 163.84 220.579L164.462 213.607C168.802 213.994 181.148 214.563 190.464 214.393C189.261 210.111 189.219 205.351 189.619 201.152Z"
            fill="#351700" />
        <path fill-rule="evenodd" clip-rule="evenodd"
            d="M141.189 240.237C141.907 234.122 143.651 228.336 145.125 225.16L151.474 228.109C150.351 230.527 148.784 235.579 148.141 241.053C147.592 245.731 147.792 250.119 149.027 253.343C150.246 253.315 151.48 253.299 152.701 253.283L152.713 253.283C154.73 253.256 156.715 253.231 158.643 253.154C162.566 252.998 165.906 252.638 168.377 251.809L170.603 258.446C167.125 259.613 162.931 259.989 158.922 260.148C156.897 260.229 154.831 260.256 152.843 260.281L152.804 260.282C150.786 260.308 148.853 260.334 147.027 260.409C141.999 260.618 134.197 259.985 127.188 259.263C122.31 258.761 117.593 258.189 114.328 257.793C112.897 257.619 111.744 257.48 110.981 257.395L111.756 250.438C112.628 250.535 113.855 250.684 115.347 250.865C118.587 251.258 123.078 251.803 127.906 252.3C132.719 252.796 137.653 253.22 141.715 253.381C140.636 249.104 140.702 244.391 141.189 240.237Z"
            fill="#351700" />
        <path fill-rule="evenodd" clip-rule="evenodd"
            d="M88.1539 274.901C88.7986 268.777 90.4729 262.971 91.9096 259.778L98.2931 262.651C97.1991 265.082 95.6925 270.152 95.1154 275.634C94.6223 280.318 94.8742 284.703 96.1476 287.912C97.3661 287.869 98.6004 287.838 99.8211 287.808L99.8328 287.808C101.849 287.757 103.834 287.708 105.761 287.608C109.681 287.405 113.018 287.005 115.478 286.147L117.784 292.756C114.319 293.965 110.131 294.391 106.123 294.599C104.099 294.703 102.034 294.755 100.047 294.804L100.007 294.805C97.9895 294.856 96.0572 294.904 94.232 295.002C84.4284 295.526 62.8101 293.447 57.6542 292.935L58.3462 285.969C62.904 286.422 78.5796 287.916 88.8469 288.074C87.7069 283.801 87.7148 279.072 88.1539 274.901Z"
            fill="#351700" />
        <path fill-rule="evenodd" clip-rule="evenodd"
            d="M61.4662 331.27C56.9643 327.069 53.336 322.237 51.6513 319.168L57.7877 315.8C59.0706 318.137 62.2125 322.392 66.2421 326.153C69.6854 329.366 73.3391 331.805 76.6679 332.72C77.367 331.721 78.0854 330.717 78.796 329.724L78.8028 329.714C79.9765 328.074 81.1318 326.459 82.2122 324.86C84.4102 321.608 86.0992 318.703 86.8947 316.222L93.5604 318.359C92.4402 321.853 90.259 325.455 88.0121 328.78C86.8776 330.458 85.6752 332.139 84.5187 333.755L84.4957 333.787C83.3212 335.429 82.1968 337.001 81.1759 338.517C75.6927 346.661 61.019 362.672 57.5063 366.481L52.3606 361.735C55.4659 358.368 66.0951 346.75 72.4026 338.647C68.3037 336.985 64.5324 334.132 61.4662 331.27Z"
            fill="#351700" />
        <path fill-rule="evenodd" clip-rule="evenodd"
            d="M57.4664 417.27C52.9645 413.069 49.3361 408.237 47.6514 405.168L53.7878 401.8C55.0707 404.137 58.2126 408.392 62.2423 412.153C65.6855 415.366 69.3392 417.805 72.668 418.72C73.3671 417.721 74.0856 416.717 74.7961 415.724L74.8029 415.714C75.9766 414.074 77.1319 412.459 78.2123 410.86C80.4103 407.608 82.0993 404.703 82.8949 402.222L89.5606 404.359C88.4403 407.853 86.2591 411.455 84.0122 414.78C82.8777 416.458 81.6753 418.139 80.5188 419.755L80.4958 419.787C79.3213 421.429 78.1969 423.001 77.1761 424.517C71.6928 432.661 57.0191 448.672 53.5064 452.481L48.3607 447.735C51.466 444.368 62.0953 432.75 68.4027 424.647C64.3038 422.985 60.5325 420.132 57.4664 417.27Z"
            fill="#351700" />
        <path fill-rule="evenodd" clip-rule="evenodd"
            d="M57.4662 482.27C52.9643 478.069 49.336 473.237 47.6513 470.168L53.7877 466.8C55.0706 469.137 58.2125 473.392 62.2421 477.153C65.6854 480.366 69.3391 482.805 72.6679 483.72C73.367 482.721 74.0854 481.717 74.796 480.724L74.8028 480.714C75.9765 479.074 77.1318 477.459 78.2122 475.86C80.4102 472.608 82.0992 469.703 82.8947 467.222L89.5604 469.359C88.4402 472.853 86.259 476.455 84.0121 479.78C82.8776 481.458 81.6752 483.139 80.5187 484.755L80.4957 484.787C79.3212 486.429 78.1968 488.001 77.1759 489.517C71.6927 497.661 57.019 513.672 53.5063 517.481L48.3606 512.735C51.4659 509.368 62.0951 497.75 68.4026 489.647C64.3037 487.985 60.5324 485.132 57.4662 482.27Z"
            fill="#351700" />
        <path fill-rule="evenodd" clip-rule="evenodd"
            d="M182.999 151.002C183.984 144.411 185.971 138.216 187.563 134.856L193.889 137.852C192.631 140.508 190.82 146.028 189.923 152.036C189.151 157.203 189.145 162.152 190.298 165.837C191.487 165.847 192.689 165.869 193.875 165.892L193.89 165.892C195.908 165.93 197.89 165.968 199.816 165.948C203.736 165.907 207.059 165.626 209.533 164.814L211.715 171.465C208.153 172.634 203.911 172.906 199.888 172.947C197.856 172.968 195.785 172.929 193.799 172.892L193.758 172.891C191.738 172.853 189.809 172.817 187.986 172.839C178.196 172.958 164.797 171.266 159.504 170.444L160.58 163.527C164.906 164.199 174.617 165.435 183.054 165.763C182.038 160.993 182.3 155.685 182.999 151.002Z"
            fill="#351700" />
        <path fill-rule="evenodd" clip-rule="evenodd"
            d="M222.732 112.947C223.717 106.356 225.704 100.162 227.296 96.8013L233.622 99.7973C232.364 102.454 230.553 107.973 229.656 113.982C228.884 119.148 228.878 124.097 230.031 127.782C231.22 127.792 232.422 127.815 233.608 127.837L233.623 127.837C235.641 127.876 237.623 127.913 239.549 127.893C243.469 127.853 246.792 127.571 249.266 126.759L251.448 133.41C247.886 134.579 243.644 134.851 239.621 134.893C237.589 134.914 235.518 134.875 233.532 134.837L233.491 134.836C231.471 134.798 229.542 134.762 227.719 134.784C217.929 134.903 204.53 133.212 199.238 132.389L200.313 125.472C204.639 126.145 214.35 127.381 222.787 127.709C221.771 122.939 222.033 117.63 222.732 112.947Z"
            fill="#351700" />
        <path fill-rule="evenodd" clip-rule="evenodd"
            d="M142.476 185.54C143.06 179.41 144.677 173.588 146.082 170.381L152.493 173.19C151.424 175.632 149.967 180.717 149.445 186.204C148.998 190.893 149.294 195.276 150.599 198.471C151.817 198.416 153.051 198.373 154.271 198.331L154.283 198.33C156.299 198.26 158.283 198.191 160.209 198.072C164.127 197.83 167.459 197.397 169.911 196.514L172.282 203.1C168.83 204.343 164.646 204.811 160.64 205.059C158.618 205.183 156.553 205.255 154.566 205.325L154.527 205.326C152.51 205.396 150.578 205.464 148.754 205.58C139.048 206.195 122.079 205.448 116.697 204.968L117.32 197.995C121.66 198.383 134.005 198.952 143.321 198.782C142.118 194.5 142.076 189.74 142.476 185.54Z"
            fill="#351700" />
        <path fill-rule="evenodd" clip-rule="evenodd"
            d="M98.5129 220.975C99.7913 215.257 102.066 209.954 103.841 207.083L109.795 210.766C108.477 212.895 106.473 217.453 105.344 222.502C104.384 226.798 104.192 230.855 105.09 233.936C106.325 234.033 107.576 234.146 108.814 234.256L108.824 234.257C110.832 234.437 112.812 234.615 114.74 234.738C118.66 234.99 122.036 234.991 124.589 234.457L126.021 241.309C122.476 242.05 118.291 241.98 114.292 241.724C112.273 241.594 110.217 241.41 108.237 241.233L108.199 241.229C106.19 241.049 104.262 240.877 102.436 240.763C94.1213 240.243 77.8617 236.675 70.1189 234.976C68.7383 234.673 67.6285 234.43 66.8828 234.274L68.3182 227.422C69.1839 227.604 70.4166 227.874 71.9144 228.201C78.3405 229.608 89.6462 232.082 97.7875 233.225C97.1671 229.121 97.6663 224.762 98.5129 220.975Z"
            fill="#351700" />
        <path fill-rule="evenodd" clip-rule="evenodd"
            d="M39.6765 262.093C37.1129 256.494 35.5973 250.645 35.2079 247.165L42.1645 246.387C42.461 249.036 43.7464 254.167 46.041 259.179C48.0017 263.461 50.4518 267.107 53.1817 269.22C54.2085 268.563 55.2551 267.908 56.2901 267.26L56.3 267.254C58.0099 266.184 59.6929 265.13 61.3007 264.063C64.5713 261.892 67.2389 259.849 68.9191 257.858L74.2692 262.372C71.9033 265.176 68.5152 267.676 65.1717 269.895C63.4836 271.016 61.7319 272.112 60.0472 273.166L60.0137 273.187C58.3027 274.258 56.6644 275.284 55.1433 276.297C46.9727 281.74 27.3086 290.96 22.6104 293.144L19.6589 286.797C23.8121 284.866 38.0638 278.169 46.981 273.078C43.8236 269.98 41.4224 265.906 39.6765 262.093Z"
            fill="#351700" />
        <path fill-rule="evenodd" clip-rule="evenodd"
            d="M22.4661 344.27C17.9642 340.069 14.3358 335.237 12.6511 332.168L18.7875 328.8C20.0704 331.137 23.2124 335.392 27.242 339.153C30.6853 342.366 34.339 344.805 37.6678 345.72C38.3669 344.721 39.0853 343.717 39.7958 342.724L39.8026 342.714C40.9764 341.074 42.1316 339.459 43.2121 337.86C45.41 334.608 47.099 331.703 47.8946 329.222L54.5603 331.359C53.4401 334.853 51.2589 338.455 49.0119 341.78C47.8775 343.458 46.675 345.139 45.5186 346.755L45.4955 346.787C44.321 348.429 43.1967 350.001 42.1758 351.517C36.6926 359.661 22.0189 375.672 18.5061 379.481L13.3605 374.735C16.4657 371.368 27.095 359.75 33.4024 351.647C29.3035 349.985 25.5323 347.132 22.4661 344.27Z"
            fill="#351700" />
        <path fill-rule="evenodd" clip-rule="evenodd"
            d="M16.4661 408.27C11.9642 404.069 8.33584 399.237 6.65113 396.168L12.7875 392.8C14.0704 395.137 17.2124 399.392 21.242 403.153C24.6853 406.366 28.339 408.805 31.6678 409.72C32.3669 408.721 33.0853 407.717 33.7958 406.724L33.8026 406.714C34.9764 405.074 36.1316 403.459 37.2121 401.86C39.41 398.608 41.099 395.703 41.8946 393.222L48.5603 395.359C47.4401 398.853 45.2589 402.455 43.0119 405.78C41.8775 407.458 40.675 409.139 39.5186 410.755L39.4955 410.787C38.321 412.429 37.1967 414.001 36.1758 415.517C30.6926 423.661 16.0189 439.672 12.5061 443.481L7.3605 438.735C10.4657 435.368 21.095 423.75 27.4024 415.647C23.3035 413.985 19.5323 411.132 16.4661 408.27Z"
            fill="#351700" />
        <path fill-rule="evenodd" clip-rule="evenodd"
            d="M20.4661 468.27C15.9642 464.069 12.3358 459.237 10.6511 456.168L16.7875 452.8C18.0704 455.137 21.2124 459.392 25.242 463.153C28.6853 466.366 32.339 468.805 35.6678 469.72C36.3669 468.721 37.0853 467.717 37.7958 466.724L37.8026 466.714C38.9764 465.074 40.1316 463.459 41.2121 461.86C43.41 458.608 45.099 455.703 45.8946 453.222L52.5603 455.359C51.4401 458.853 49.2589 462.455 47.0119 465.78C45.8775 467.458 44.675 469.139 43.5186 470.755L43.4955 470.787C42.321 472.429 41.1967 474.001 40.1758 475.517C34.6926 483.661 20.0189 499.672 16.5061 503.481L11.3605 498.735C14.4657 495.368 25.095 483.75 31.4024 475.647C27.3035 473.985 23.5323 471.132 20.4661 468.27Z"
            fill="#351700" />
        <path fill-rule="evenodd" clip-rule="evenodd"
            d="M130.091 146.976C131.075 140.386 133.063 134.191 134.654 130.831L140.981 133.827C139.723 136.483 137.912 142.002 137.014 148.011C136.242 153.178 136.236 158.126 137.389 161.812C138.578 161.821 139.78 161.844 140.967 161.866L140.981 161.867C142.999 161.905 144.981 161.942 146.907 161.922C150.827 161.882 154.15 161.6 156.624 160.788L158.807 167.439C155.244 168.608 151.002 168.881 146.979 168.922C144.947 168.943 142.877 168.904 140.89 168.866L140.849 168.865C138.829 168.827 136.901 168.791 135.077 168.813C125.288 168.932 111.888 167.241 106.596 166.418L107.671 159.501C111.997 160.174 121.708 161.41 130.146 161.738C129.129 156.968 129.391 151.66 130.091 146.976Z"
            fill="#351700" />
        <path fill-rule="evenodd" clip-rule="evenodd"
            d="M169.824 108.922C170.808 102.331 172.796 96.1362 174.387 92.7759L180.714 95.7718C179.456 98.4282 177.645 103.948 176.747 109.956C175.975 115.123 175.969 120.072 177.123 123.757C178.311 123.767 179.513 123.789 180.7 123.812L180.714 123.812C182.732 123.85 184.714 123.888 186.64 123.868C190.56 123.827 193.883 123.546 196.357 122.734L198.54 129.385C194.978 130.554 190.735 130.826 186.712 130.867C184.68 130.888 182.61 130.849 180.623 130.812L180.582 130.811C178.562 130.773 176.634 130.737 174.81 130.759C165.021 130.878 151.621 129.186 146.329 128.363L147.404 121.447C151.73 122.119 161.441 123.355 169.879 123.683C168.862 118.913 169.124 113.605 169.824 108.922Z"
            fill="#351700" />
        <path fill-rule="evenodd" clip-rule="evenodd"
            d="M89.5677 181.515C90.1515 175.385 91.768 169.563 93.173 166.355L99.5847 169.164C98.5148 171.607 97.0587 176.692 96.5362 182.179C96.0896 186.867 96.3851 191.25 97.6904 194.446C98.9084 194.391 100.142 194.348 101.363 194.305L101.374 194.305C103.39 194.235 105.374 194.165 107.3 194.046C111.218 193.805 114.55 193.372 117.002 192.489L119.373 199.075C115.921 200.318 111.737 200.786 107.732 201.033C105.709 201.158 103.644 201.23 101.658 201.299L101.618 201.301C99.6011 201.371 97.6695 201.439 95.8453 201.554C86.1392 202.17 69.1708 201.423 63.7888 200.942L64.4115 193.97C68.7509 194.358 81.0966 194.926 90.4127 194.757C89.2096 190.475 89.1677 185.715 89.5677 181.515Z"
            fill="#351700" />
    </g>
</svg>