<svg width="1663" height="1881" viewBox="0 0 1663 1881" fill="none" xmlns="http://www.w3.org/2000/svg">
    <path
        d="M451.834 1058.06C768.746 954.607 999.369 664.62 1101.35 523.545C1145.27 628.881 1263.98 705.375 1317.85 730.455C1292.75 611.325 1226.85 492.195 1095.07 402.847C989.642 331.369 830.977 324.995 768.746 332.31C59.6164 399.713 84.747 1197.57 154.823 1526.74C242.515 1589.45 465.377 1710.46 655.292 1692.9C631.445 1632.71 648.988 1501.14 658.924 1448.37C620.016 1433.32 508.836 1340.74 473.798 1313.57C422.025 1335.51 401.63 1335.51 337.307 1322.97C105.114 1216.38 205.522 1048.66 205.522 1048.66C205.522 1048.66 236.899 985.958 323.187 984.39C392.217 983.136 430.393 1021.49 451.834 1058.06Z"
        fill="#220F01" />
    <path
        d="M1360.21 1645.88C1338.87 1615.78 1351.32 1479.2 1360.21 1432.69C1272.35 1506.37 1220.58 1542.42 1040.16 1547.12C1098.21 1580.04 1243.48 1645.88 1360.21 1645.88Z"
        fill="#220F01" />
    <path fill-rule="evenodd" clip-rule="evenodd"
        d="M808.572 363.566C752.265 424.623 654.681 520.511 543.683 611.142C435.422 699.539 311.195 785.611 198.436 827.716C194.34 831.929 185.96 842.882 176.33 866.366C164.825 894.424 153.207 936.305 144.767 995.447C127.894 1113.68 122.936 1226.64 155.318 1498.53C157.877 1520.02 141.198 1532.53 116.096 1526.74C95.701 1522.04 82.5718 1504.35 80.0123 1482.85C47.129 1206.75 48.9701 1111.49 67.1091 984.384C76.1751 920.856 89.1161 872.324 103.742 836.654C117.774 802.434 135.35 775.112 157.012 760.604L161.016 757.923L165.551 756.289C267.013 719.748 385.438 639.133 494.045 550.454C588.046 473.701 672.201 392.985 728.049 334.721C733.365 329.175 771.883 318.203 818.16 329.175C820.582 341.084 817.444 353.946 808.572 363.566ZM644.394 364.627C567.301 442.181 391.322 611.983 217.144 686.565C209.51 689.834 256.366 681.083 210.228 689.7C221.424 643.925 250.436 589.57 269.472 570.57C367.725 514.149 441.114 444.17 514.173 379.335C541.268 367.367 607.296 344.028 654.647 346.417C653.004 353.083 649.587 359.403 644.394 364.627ZM286.364 920.954C640.934 732.076 892.609 459.374 964.854 346.418C941.007 326.354 897.323 327.125 878.462 331.586C814.208 432.049 591.114 671.449 242.109 855.692L239.892 856.862L237.842 858.305C226.331 866.408 219.639 878.439 215.659 886.975C211.075 896.804 207.052 908.831 203.462 922.784C196.257 950.79 189.822 990.426 185.118 1044.27C175.693 1152.15 171.267 1282.79 185.127 1537.72C186.301 1559.33 211.797 1576.9 224.348 1581.61L224.805 1581.61C230.793 1581.63 260.576 1581.71 263.57 1565.93C257.162 1448.06 255.892 1355.05 255.658 1272.81C254.901 1271.53 252.554 1269.5 249.15 1266.55C231.695 1251.45 186.438 1212.29 185.118 1127.03C192.95 1060.58 210.532 1039.62 217.144 1031.74C218.487 1030.14 219.377 1029.07 219.642 1028.28C251.019 996.93 269.472 995.363 269.472 995.363C272.642 972.8 276.072 955.369 279.436 942.296C282.116 931.877 284.547 925.051 286.364 920.954ZM390.053 1490.41C390.493 1513.34 390.634 1532.2 390.758 1548.66C391.013 1582.74 391.191 1606.56 393.786 1634.9C395.759 1656.46 371.822 1656.85 359.271 1656.85C343.582 1653.71 320.453 1642.35 318.48 1620.79L318.28 1618.61L317.863 1614.07C314.328 1575.62 312.943 1560.54 311.624 1491.92C310.429 1429.75 311.637 1363.96 318.734 1313.56C329.332 1319.83 359.485 1330.81 395.355 1330.81C390.146 1373.21 388.926 1431.78 390.053 1490.41ZM333.103 940.337C681.641 756.341 936.433 458.244 1000.94 357.39C1020.29 359.933 1063.06 370.37 1079.38 391.771C1006.87 505.142 746.846 805.667 387.51 995.363C384.948 996.715 378.91 994.537 371.529 991.875C365.354 989.647 358.237 987.08 351.427 985.958C338.899 983.892 316.911 984.39 316.911 984.39C306.792 965.254 313.951 950.447 333.103 940.337ZM1105.52 546.909C1013.76 672.99 775.021 932.663 470.66 1056.5C453.504 1065.55 452.544 1063.67 445.257 1049.43L445.249 1049.42C444.403 1047.76 443.472 1045.94 442.421 1043.96C438.725 1036.97 433.567 1032.02 429.441 1028.06C422.27 1021.18 418.216 1017.29 430.373 1010.87C777.952 827.385 998.51 571.278 1063.59 469.526C1069.15 460.827 1077.58 455.064 1086.85 452.679C1104.1 441.897 1127.02 446.093 1139.25 462.751C1158.31 488.726 1192.72 530.758 1232.81 570.792C1248.44 586.395 1264.45 601.203 1280.34 614.46C1294.35 646.185 1322.36 714.695 1322.36 734.936C1271.6 712.477 1220.7 680.39 1178.22 637.973C1160.43 620.208 1143.32 597.081 1128.05 576.437L1128.05 576.433C1119.97 565.51 1112.4 555.281 1105.52 546.909ZM507.184 1486.77C506.414 1444.11 506.59 1402.96 508.231 1367.81C508.722 1357.31 509.155 1350.7 509.882 1341.78L473.798 1313.56C463.757 1318.58 441.375 1325.06 431.439 1327.67C430.701 1335.61 430.525 1342.6 430.336 1350.1C430.225 1354.51 430.109 1359.1 429.873 1364.16C428.124 1401.62 427.967 1444.61 428.753 1488.19C430.277 1572.64 433.043 1608.04 437.297 1662.48L437.714 1667.82C439.398 1689.4 478.505 1699.17 478.505 1699.17C478.505 1699.17 513.02 1697.6 514.589 1686.63C510.19 1630.27 508.723 1572.06 507.184 1486.77ZM557.4 1488.19C557.926 1517.32 558.074 1541.67 558.206 1563.33C558.468 1606.47 558.665 1638.91 561.655 1677.22C563.339 1698.8 585.556 1708.69 607.152 1707.01C628.748 1705.32 643.351 1701.94 641.667 1680.36C627.501 1612.46 628.454 1589.3 631.001 1527.4C631.397 1517.77 631.832 1507.21 632.254 1495.39C632.092 1486.43 632.993 1474.62 633.87 1463.11C634.635 1453.09 635.382 1443.3 635.392 1435.83C624.41 1429.56 578.629 1396.64 556.948 1379.4C555.968 1409.9 556.629 1445.99 557.257 1480.31V1480.31C557.305 1482.95 557.353 1485.57 557.4 1488.19ZM1332.09 1456.21C1348.51 1442.76 1362.28 1429.1 1361.78 1432.7C1361.27 1436.29 1360.68 1440.35 1360.04 1444.81C1356.18 1471.31 1350.34 1511.47 1349.29 1546.27C1348 1588.76 1355.55 1624.51 1361.78 1642.74C1364.46 1650.58 1339.81 1649.01 1319.42 1649.01C1297.45 1649.01 1277.1 1641.17 1275.49 1636.47C1264.15 1603.28 1269.6 1586 1270.88 1543.9C1271.36 1527.98 1272.27 1512.07 1273.4 1496.96C1273.4 1496.96 1305.3 1478.15 1332.09 1456.21ZM1251.96 1507.94C1251.96 1506.37 1236.27 1515.77 1209.6 1523.61C1181.36 1533.02 1165.67 1534.58 1165.67 1534.58C1165.67 1552.35 1165.08 1544.24 1163.56 1573.89C1163.1 1583 1163.07 1577.43 1163.56 1587.88C1163.56 1587.88 1163.56 1601.99 1163.56 1606.69C1173.79 1625.77 1182.93 1624.23 1204.89 1628.94C1226.85 1630.81 1245.68 1633.34 1244.11 1620.8C1242.54 1608.26 1240.57 1603.96 1241.9 1577.89C1243.13 1553.87 1251.96 1522.58 1251.96 1507.94Z"
        fill="#451E00" />
    <mask id="mask0_8_377" style="mask-type:alpha" maskUnits="userSpaceOnUse" x="54" y="324" width="1308" height="1384">
        <path fill-rule="evenodd" clip-rule="evenodd"
            d="M808.572 363.566C752.265 424.623 654.681 520.511 543.683 611.142C435.422 699.539 311.195 785.611 198.436 827.716C194.34 831.929 185.96 842.882 176.33 866.366C164.825 894.424 153.207 936.305 144.767 995.447C127.894 1113.68 122.936 1226.64 155.318 1498.53C157.877 1520.02 141.198 1532.53 116.096 1526.74C95.701 1522.04 82.5718 1504.35 80.0123 1482.85C47.129 1206.75 48.9701 1111.49 67.1091 984.384C76.1751 920.856 89.1161 872.324 103.742 836.654C117.774 802.434 135.35 775.112 157.012 760.604L161.016 757.923L165.551 756.289C267.013 719.748 385.438 639.133 494.045 550.454C588.046 473.701 672.201 392.985 728.049 334.721C733.365 329.175 771.883 318.203 818.16 329.175C820.582 341.084 817.444 353.946 808.572 363.566ZM644.394 364.627C567.301 442.181 389.837 611.983 215.659 686.565C208.024 689.834 217.792 684.979 210.228 683.43C221.424 637.655 250.436 588.002 269.472 569.003C367.725 512.581 441.114 444.17 514.173 379.335C541.268 367.367 607.296 344.028 654.647 346.417C653.004 353.083 649.587 359.403 644.394 364.627ZM286.364 920.954C640.934 732.076 892.609 459.374 964.854 346.418C941.007 326.354 897.323 327.125 878.462 331.586C814.208 432.049 591.114 671.449 242.109 855.692L239.892 856.862L237.842 858.305C226.331 866.408 219.639 878.439 215.659 886.975C211.075 896.804 207.052 908.831 203.462 922.784C196.257 950.79 189.822 990.426 185.118 1044.27C175.693 1152.15 171.267 1282.79 185.127 1537.72C186.301 1559.33 211.797 1576.9 224.348 1581.61L224.805 1581.61C230.793 1581.63 260.576 1581.71 263.57 1565.93C257.162 1448.06 255.892 1355.05 255.658 1272.81C254.901 1271.53 252.554 1269.5 249.15 1266.55C231.695 1251.45 186.438 1212.29 185.118 1127.03C192.95 1060.58 210.532 1039.62 217.144 1031.74C218.487 1030.14 219.377 1029.07 219.642 1028.28C251.019 996.93 269.472 995.363 269.472 995.363C272.642 972.8 276.072 955.369 279.436 942.296C282.116 931.877 284.547 925.051 286.364 920.954ZM390.053 1490.41C390.493 1513.34 390.634 1532.2 390.758 1548.66C391.013 1582.74 391.191 1606.56 393.786 1634.9C395.759 1656.46 371.822 1656.85 359.271 1656.85C343.582 1653.71 320.453 1642.35 318.48 1620.79L318.28 1618.61L317.863 1614.07C314.328 1575.62 312.943 1560.54 311.624 1491.92C310.429 1429.75 311.637 1363.96 318.734 1313.56C329.332 1319.83 359.485 1330.81 395.355 1330.81C390.146 1373.21 388.926 1431.78 390.053 1490.41ZM333.103 940.337C681.641 756.341 936.433 458.244 1000.94 357.39C1020.29 359.933 1063.06 370.37 1079.38 391.771C1006.87 505.142 746.846 805.667 387.51 995.363C384.948 996.715 378.91 994.537 371.529 991.875C365.354 989.647 358.237 987.08 351.427 985.958C338.899 983.892 316.911 984.39 316.911 984.39C306.792 965.254 313.951 950.447 333.103 940.337ZM1105.52 546.909C1013.76 672.99 775.021 932.663 470.66 1056.5C453.504 1065.55 452.544 1063.67 445.257 1049.43L445.249 1049.42C444.403 1047.76 443.472 1045.94 442.421 1043.96C438.725 1036.97 433.567 1032.02 429.441 1028.06C422.27 1021.18 418.216 1017.29 430.373 1010.87C777.952 827.385 998.51 571.278 1063.59 469.526C1069.15 460.827 1077.58 455.064 1086.85 452.679C1104.1 441.897 1127.02 446.093 1139.25 462.751C1158.31 488.726 1192.72 530.758 1232.81 570.792C1248.44 586.395 1264.45 601.203 1280.34 614.46C1294.35 646.185 1322.36 714.695 1322.36 734.936C1271.6 712.477 1220.7 680.39 1178.22 637.973C1160.43 620.208 1143.32 597.081 1128.05 576.437L1128.05 576.433C1119.97 565.51 1112.4 555.281 1105.52 546.909ZM507.184 1486.77C506.414 1444.11 506.59 1402.96 508.231 1367.81C508.722 1357.31 509.155 1350.7 509.882 1341.78L473.798 1313.56C463.757 1318.58 441.375 1325.06 431.439 1327.67C430.701 1335.61 430.525 1342.6 430.336 1350.1C430.225 1354.51 430.109 1359.1 429.873 1364.16C428.124 1401.62 427.967 1444.61 428.753 1488.19C430.277 1572.64 433.043 1608.04 437.297 1662.48L437.714 1667.82C439.398 1689.4 478.505 1699.17 478.505 1699.17C478.505 1699.17 513.02 1697.6 514.589 1686.63C510.19 1630.27 508.723 1572.06 507.184 1486.77ZM557.4 1488.19C557.926 1517.32 558.074 1541.67 558.206 1563.33C558.468 1606.47 558.665 1638.91 561.655 1677.22C563.339 1698.8 585.556 1708.69 607.152 1707.01C628.748 1705.32 643.351 1701.94 641.667 1680.36C627.501 1612.46 628.454 1589.3 631.001 1527.4C631.397 1517.77 631.832 1507.21 632.254 1495.39C632.092 1486.43 632.993 1474.62 633.87 1463.11C634.635 1453.09 635.382 1443.3 635.392 1435.83C624.41 1429.56 578.629 1396.64 556.948 1379.4C555.968 1409.9 556.629 1445.99 557.257 1480.31V1480.31C557.305 1482.95 557.353 1485.57 557.4 1488.19ZM1332.09 1456.21C1348.51 1442.76 1362.28 1429.1 1361.78 1432.7C1361.27 1436.29 1360.68 1440.35 1360.04 1444.81C1356.18 1471.31 1350.34 1511.47 1349.29 1546.27C1348 1588.76 1355.55 1624.51 1361.78 1642.74C1364.46 1650.58 1339.81 1649.01 1319.42 1649.01C1297.45 1649.01 1277.1 1641.17 1275.49 1636.47C1264.15 1603.28 1269.6 1586 1270.88 1543.9C1271.36 1527.98 1272.27 1512.07 1273.4 1496.96C1273.4 1496.96 1305.3 1478.15 1332.09 1456.21ZM1251.96 1507.94C1251.96 1506.37 1236.27 1515.77 1209.6 1523.61C1181.36 1533.02 1165.67 1534.58 1165.67 1534.58C1165.67 1552.35 1165.08 1544.24 1163.56 1573.89C1163.1 1583 1163.07 1577.43 1163.56 1587.88C1163.56 1587.88 1163.56 1601.99 1163.56 1606.69C1173.79 1625.77 1182.93 1624.23 1204.89 1628.94C1226.85 1630.81 1245.68 1633.34 1244.11 1620.8C1242.54 1608.26 1240.57 1603.96 1241.9 1577.89C1243.13 1553.87 1251.96 1522.58 1251.96 1507.94Z"
            fill="#C4C4C4" />
    </mask>
    <g mask="url(#mask0_8_377)">
        <path fill-rule="evenodd" clip-rule="evenodd"
            d="M1013.59 535.287C1014.93 514.439 1019.51 494.563 1023.6 483.647L1044.17 491.338C1040.94 499.968 1036.73 517.688 1035.51 536.694C1034.46 553.038 1035.75 568.499 1040.32 579.707C1044.04 579.424 1047.81 579.179 1051.52 578.936L1051.57 578.933C1057.89 578.52 1064.09 578.115 1070.11 577.545C1082.36 576.386 1092.67 574.63 1100.19 571.441L1108.77 591.644C1097.94 596.234 1084.75 598.202 1072.18 599.392C1065.83 599.993 1059.35 600.417 1053.13 600.823L1053 600.831C1046.68 601.244 1040.64 601.64 1034.94 602.19C1004.36 605.141 962.023 603.389 945.259 602.214L946.796 580.323C960.5 581.284 991.188 582.585 1017.66 581.386C1013.22 566.754 1012.64 550.102 1013.59 535.287Z"
            fill="#351700" />
        <path fill-rule="evenodd" clip-rule="evenodd"
            d="M899.078 661.404C899.287 642.101 902.805 623.486 906.352 613.097L927.14 620.182C924.439 628.093 921.228 644.363 921.041 661.641C920.882 676.405 922.962 690.019 927.886 699.659C931.68 699.166 935.526 698.706 939.331 698.251L939.367 698.247C945.651 697.496 951.837 696.757 957.828 695.878C970.014 694.09 980.318 691.859 987.75 688.456L996.902 708.405C986.437 713.197 973.477 715.762 961.019 717.59C954.729 718.513 948.291 719.282 942.098 720.022L941.975 720.037C935.687 720.788 929.665 721.509 923.992 722.351C893.807 726.832 840.556 728.971 823.602 728.888L823.71 706.943C837.38 707.01 876.13 705.533 905.213 702.548C900.322 689.488 898.936 674.63 899.078 661.404Z"
            fill="#351700" />
        <path fill-rule="evenodd" clip-rule="evenodd"
            d="M757.968 796.268C758.599 776.974 762.524 758.441 766.298 748.132L786.926 755.669C784.052 763.52 780.485 779.715 779.921 796.985C779.438 811.742 781.219 825.399 785.931 835.144C789.735 834.733 793.59 834.358 797.404 833.987L797.44 833.983C803.74 833.37 809.94 832.766 815.948 832.018C828.171 830.497 838.521 828.492 846.026 825.252L854.739 845.397C844.171 849.959 831.158 852.24 818.663 853.795C812.354 854.58 805.901 855.208 799.694 855.813L799.571 855.825C793.267 856.438 787.231 857.027 781.541 857.745C765.878 859.721 741.316 859.802 719.212 859.394C703.826 859.109 688.926 858.566 678.615 858.19C674.093 858.025 670.454 857.892 668.044 857.828L668.632 835.89C671.384 835.964 675.259 836.106 679.974 836.278C690.207 836.652 704.392 837.171 719.618 837.452C734.799 837.733 750.335 837.756 763.08 837.189C758.578 824.112 757.54 809.371 757.968 796.268Z"
            fill="#351700" />
        <path fill-rule="evenodd" clip-rule="evenodd"
            d="M601.291 918.532C601.691 899.232 605.394 880.653 609.044 870.3L629.761 877.591C626.981 885.475 623.608 901.711 623.25 918.987C622.944 933.749 624.888 947.383 629.716 957.071C633.515 956.615 637.366 956.194 641.174 955.777L641.211 955.773C647.503 955.085 653.695 954.407 659.694 953.587C671.898 951.921 682.223 949.792 689.689 946.463L698.642 966.502C688.13 971.19 675.145 973.626 662.669 975.33C656.37 976.19 649.925 976.896 643.726 977.574L643.602 977.588C637.307 978.277 631.278 978.938 625.597 979.723C609.838 981.903 578.223 981.921 549.437 981.447C534.839 981.206 520.658 980.83 509.105 980.5C505.862 980.407 502.84 980.318 500.08 980.237C492.935 980.027 487.545 979.869 484.618 979.826L484.944 957.883C488.042 957.929 493.7 958.095 500.956 958.308C503.674 958.388 506.617 958.475 509.734 958.564C521.255 958.894 535.334 959.267 549.8 959.505C570.551 959.847 591.494 959.895 606.832 959.222C602.223 946.24 601.02 931.583 601.291 918.532Z"
            fill="#351700" />
        <path fill-rule="evenodd" clip-rule="evenodd"
            d="M436.869 1414.03C423.123 1400.47 412.172 1385 407.161 1375.24L426.707 1365.23C430.523 1372.66 439.999 1386.28 452.304 1398.42C462.817 1408.8 474.06 1416.76 484.42 1419.93C486.701 1416.86 489.044 1413.78 491.361 1410.73L491.383 1410.7C495.21 1405.66 498.977 1400.7 502.508 1395.79C509.691 1385.79 515.247 1376.84 517.963 1369.14L538.68 1376.43C534.855 1387.27 527.694 1398.37 520.351 1408.59C516.643 1413.75 512.722 1418.91 508.951 1423.87L508.876 1423.97C505.047 1429.01 501.38 1433.83 498.044 1438.5C488.461 1451.88 468.376 1469.92 450.38 1485.32C443.794 1490.95 437.273 1496.41 431.41 1501.32C429.106 1503.25 426.903 1505.1 424.838 1506.83C417.283 1513.19 411.931 1517.8 409.489 1520.3L393.772 1504.97C397.139 1501.53 403.464 1496.12 410.695 1490.04C412.825 1488.25 415.067 1486.38 417.395 1484.43C423.229 1479.54 429.601 1474.2 436.091 1468.65C448.587 1457.96 460.78 1447.06 469.763 1437.79C457.35 1432.18 446.047 1423.09 436.869 1414.03Z"
            fill="#351700" />
        <path fill-rule="evenodd" clip-rule="evenodd"
            d="M435.739 1589.59C421.993 1576.03 411.042 1560.56 406.031 1550.8L425.577 1540.79C429.393 1548.22 438.869 1561.84 451.174 1573.98C461.688 1584.36 472.931 1592.33 483.29 1595.49C485.572 1592.42 487.914 1589.34 490.231 1586.29L490.253 1586.26C494.08 1581.22 497.847 1576.26 501.378 1571.35C508.561 1561.35 514.117 1552.4 516.833 1544.7L537.55 1551.99C533.726 1562.83 526.564 1573.93 519.221 1584.15C515.513 1589.31 511.593 1594.47 507.821 1599.43L507.747 1599.53C503.917 1604.57 500.25 1609.39 496.914 1614.06C487.331 1627.44 467.246 1645.48 449.25 1660.88C442.664 1666.51 436.144 1671.97 430.28 1676.88C427.976 1678.81 425.774 1680.66 423.709 1682.39C416.153 1688.75 410.802 1693.36 408.359 1695.86L392.642 1680.53C396.009 1677.09 402.334 1671.68 409.565 1665.6C411.695 1663.81 413.937 1661.94 416.265 1659.99C422.099 1655.1 428.471 1649.76 434.961 1644.21C447.457 1633.52 459.65 1622.62 468.633 1613.35C456.22 1607.74 444.917 1598.65 435.739 1589.59Z"
            fill="#351700" />
        <path fill-rule="evenodd" clip-rule="evenodd"
            d="M561.249 1511.22C547.502 1497.65 536.552 1482.19 531.54 1472.42L551.087 1462.41C554.903 1469.85 564.379 1483.46 576.683 1495.61C587.197 1505.98 598.44 1513.95 608.799 1517.11C611.081 1514.04 613.424 1510.96 615.74 1507.91L615.763 1507.88C619.59 1502.85 623.357 1497.89 626.888 1492.97C634.071 1482.98 639.627 1474.03 642.343 1466.32L663.059 1473.61C659.235 1484.46 652.074 1495.55 644.73 1505.77C641.023 1510.93 637.102 1516.09 633.331 1521.05L633.256 1521.15C629.426 1526.19 625.76 1531.02 622.423 1535.68C612.841 1549.06 592.756 1567.1 574.759 1582.5C568.174 1588.14 561.653 1593.6 555.79 1598.51C553.486 1600.44 551.283 1602.28 549.218 1604.02C541.662 1610.37 536.311 1614.99 533.868 1617.49L518.151 1602.16C521.519 1598.71 527.843 1593.31 535.074 1587.23C537.204 1585.44 539.447 1583.56 541.775 1581.61C547.608 1576.73 553.981 1571.39 560.471 1565.84C572.967 1555.14 585.159 1544.25 594.143 1534.97C581.73 1529.37 570.426 1520.28 561.249 1511.22Z"
            fill="#351700" />
        <path fill-rule="evenodd" clip-rule="evenodd"
            d="M1174.17 578.349C1153.33 576.71 1132.98 578.413 1121.59 580.904L1126.28 602.342C1135.29 600.372 1153.44 598.732 1172.45 600.226C1188.79 601.511 1203.92 604.984 1214.38 611.104C1213.57 614.743 1212.79 618.429 1212.02 622.07L1212.01 622.115C1210.7 628.307 1209.42 634.386 1208 640.255C1205.11 652.202 1201.9 662.154 1197.67 669.139L1216.47 680.495C1222.56 670.438 1226.38 657.672 1229.35 645.411C1230.85 639.219 1232.19 632.866 1233.48 626.771L1233.5 626.645C1234.81 620.449 1236.06 614.532 1237.42 608.977C1244.69 579.158 1248.97 537.034 1250.19 520.288L1228.29 518.695C1227.29 532.385 1224.21 562.919 1219.26 588.925C1205.4 582.458 1188.98 579.513 1174.17 578.349Z"
            fill="#351700" />
        <path fill-rule="evenodd" clip-rule="evenodd"
            d="M1327 669.672C1326.8 650.369 1323.28 631.754 1319.73 621.365L1298.94 628.45C1301.64 636.361 1304.85 652.631 1305.04 669.909C1305.2 684.673 1303.12 698.287 1298.2 707.927C1294.4 707.434 1290.56 706.974 1286.75 706.519L1286.72 706.515C1280.43 705.764 1274.25 705.025 1268.25 704.146C1256.07 702.358 1245.76 700.127 1238.33 696.724L1229.18 716.673C1239.65 721.465 1252.61 724.03 1265.06 725.858C1271.35 726.781 1277.79 727.55 1283.98 728.29L1284.11 728.305C1290.4 729.056 1296.42 729.777 1302.09 730.619C1332.28 735.1 1385.53 737.239 1402.48 737.155L1402.37 715.211C1388.7 715.278 1349.95 713.801 1320.87 710.816C1325.76 697.756 1327.15 682.898 1327 669.672Z"
            fill="#351700" />
        <path fill-rule="evenodd" clip-rule="evenodd"
            d="M1362.95 1526.89C1376.7 1513.33 1387.65 1497.86 1392.66 1488.1L1373.11 1478.09C1369.3 1485.52 1359.82 1499.14 1347.52 1511.28C1337 1521.66 1325.76 1529.62 1315.4 1532.79C1313.12 1529.72 1310.78 1526.64 1308.46 1523.59L1308.44 1523.56C1304.61 1518.52 1300.84 1513.56 1297.31 1508.65C1290.13 1498.65 1284.57 1489.7 1281.86 1482L1261.14 1489.29C1264.97 1500.13 1272.13 1511.23 1279.47 1521.45C1283.18 1526.61 1287.1 1531.77 1290.87 1536.73L1290.94 1536.83C1294.77 1541.87 1298.44 1546.69 1301.78 1551.36C1311.36 1564.74 1331.44 1582.78 1349.44 1598.18C1356.03 1603.81 1362.55 1609.27 1368.41 1614.18C1370.71 1616.11 1372.92 1617.96 1374.98 1619.69C1382.54 1626.05 1387.89 1630.66 1390.33 1633.16L1406.05 1617.83C1402.68 1614.39 1396.36 1608.98 1389.13 1602.9C1387 1601.11 1384.75 1599.24 1382.43 1597.29C1376.59 1592.4 1370.22 1587.06 1363.73 1581.51C1351.23 1570.82 1339.04 1559.92 1330.06 1550.65C1342.47 1545.04 1353.77 1535.95 1362.95 1526.89Z"
            fill="#351700" />
        <path fill-rule="evenodd" clip-rule="evenodd"
            d="M1240.58 1570.78C1254.33 1557.22 1265.28 1541.75 1270.29 1531.99L1250.74 1521.98C1246.93 1529.41 1237.45 1543.03 1225.15 1555.17C1214.63 1565.55 1203.39 1573.51 1193.03 1576.68C1190.75 1573.61 1188.4 1570.53 1186.09 1567.48L1186.07 1567.45C1182.24 1562.41 1178.47 1557.45 1174.94 1552.54C1167.76 1542.54 1162.2 1533.59 1159.49 1525.89L1138.77 1533.18C1142.59 1544.02 1149.76 1555.12 1157.1 1565.34C1160.81 1570.5 1164.73 1575.66 1168.5 1580.62L1168.57 1580.72C1172.4 1585.76 1176.07 1590.58 1179.41 1595.25C1188.99 1608.63 1209.07 1626.67 1227.07 1642.07C1233.65 1647.7 1240.18 1653.16 1246.04 1658.07C1248.34 1660 1250.55 1661.85 1252.61 1663.58C1260.17 1669.94 1265.52 1674.55 1267.96 1677.05L1283.68 1661.72C1280.31 1658.28 1273.99 1652.87 1266.75 1646.79C1264.62 1645 1262.38 1643.13 1260.05 1641.18C1254.22 1636.29 1247.85 1630.95 1241.36 1625.4C1228.86 1614.71 1216.67 1603.81 1207.69 1594.54C1220.1 1588.93 1231.4 1579.84 1240.58 1570.78Z"
            fill="#351700" />
        <path fill-rule="evenodd" clip-rule="evenodd"
            d="M850.799 537.192C853.602 516.489 859.568 496.985 864.415 486.382L884.394 495.499C880.562 503.88 875.12 521.261 872.564 540.135C870.367 556.364 870.565 571.877 874.342 583.379C878.073 583.358 881.844 583.377 885.568 583.396L885.613 583.396C891.947 583.429 898.165 583.46 904.207 583.314C916.505 583.017 926.918 581.99 934.646 579.338L941.782 600.092C930.656 603.911 917.359 604.948 904.737 605.253C898.363 605.406 891.865 605.373 885.631 605.342L885.502 605.341C879.164 605.309 873.111 605.28 867.39 605.429C836.683 606.226 794.569 601.505 777.929 599.156L781.003 577.426C794.605 579.347 825.125 582.8 851.612 583.462C848.217 568.555 848.806 551.903 850.799 537.192Z"
            fill="#351700" />
        <path fill-rule="evenodd" clip-rule="evenodd"
            d="M962.56 403.54C965.364 382.837 971.33 363.333 976.177 352.73L996.156 361.847C992.324 370.229 986.882 387.609 984.326 406.483C982.128 422.712 982.326 438.225 986.104 449.728C989.835 449.707 993.605 449.726 997.33 449.744L997.375 449.745C1003.71 449.777 1009.93 449.808 1015.97 449.662C1028.27 449.366 1038.68 448.338 1046.41 445.686L1053.54 466.44C1042.42 470.259 1029.12 471.296 1016.5 471.601C1010.12 471.755 1003.63 471.722 997.393 471.69L997.264 471.689C990.925 471.657 984.873 471.628 979.152 471.777C948.444 472.574 906.331 467.853 889.691 465.504L892.764 443.775C906.367 445.695 936.887 449.149 963.373 449.811C959.978 434.903 960.568 418.251 962.56 403.54Z"
            fill="#351700" />
        <path fill-rule="evenodd" clip-rule="evenodd"
            d="M727.7 654.957C729.266 635.716 734.085 617.394 738.353 607.28L758.592 615.807C755.341 623.509 750.993 639.513 749.592 656.735C748.395 671.452 749.512 685.178 753.746 695.14C757.565 694.914 761.434 694.726 765.261 694.539L765.298 694.538C771.62 694.23 777.842 693.926 783.88 693.47C796.162 692.542 806.597 691.041 814.25 688.167L821.976 708.71C811.2 712.756 798.091 714.404 785.536 715.353C779.196 715.832 772.72 716.147 766.491 716.451L766.367 716.457C760.041 716.765 753.984 717.061 748.266 717.503C717.84 719.853 664.57 718.247 647.664 716.974L649.315 695.091C662.946 696.118 701.705 697.366 730.926 696.429C726.966 683.059 726.628 668.14 727.7 654.957Z"
            fill="#351700" />
        <path fill-rule="evenodd" clip-rule="evenodd"
            d="M577.452 779.58C579.439 760.378 584.658 742.166 589.147 732.147L609.194 741.115C605.775 748.744 601.078 764.649 599.3 781.836C597.781 796.523 598.597 810.271 602.612 820.323C606.435 820.18 610.307 820.077 614.138 819.974L614.174 819.973C620.501 819.803 626.729 819.636 632.775 819.312C645.074 818.653 655.54 817.38 663.254 814.675L670.528 835.381C659.666 839.191 646.525 840.552 633.951 841.226C627.603 841.566 621.121 841.74 614.887 841.907L614.763 841.91C608.432 842.08 602.37 842.244 596.643 842.56C580.879 843.432 556.373 841.788 534.352 839.828C519.025 838.464 504.199 836.876 493.94 835.777C489.441 835.295 485.82 834.907 483.42 834.673L485.55 812.832C488.29 813.098 492.146 813.512 496.836 814.015C507.018 815.106 521.132 816.62 536.301 817.97C551.424 819.315 566.92 820.43 579.674 820.758C576.103 807.397 576.103 792.62 577.452 779.58Z"
            fill="#351700" />
        <path fill-rule="evenodd" clip-rule="evenodd"
            d="M412.563 890.541C414.32 871.317 419.321 853.043 423.69 842.972L443.842 851.699C440.515 859.369 436.008 875.329 434.436 892.536C433.092 907.24 434.073 920.977 438.208 930.98C442.029 930.792 445.9 930.642 449.728 930.494L449.765 930.493C456.089 930.248 462.315 930.006 468.356 929.61C480.647 928.804 491.096 927.406 498.778 924.609L506.299 945.227C495.483 949.166 482.359 950.684 469.795 951.508C463.451 951.924 456.972 952.175 450.74 952.416L450.616 952.421C444.288 952.666 438.227 952.903 432.505 953.287C416.631 954.355 385.094 952.154 356.413 949.659C341.868 948.394 327.747 947.023 316.247 945.883C313.018 945.562 310.01 945.262 307.263 944.987C300.149 944.276 294.784 943.739 291.867 943.491L293.736 921.625C296.823 921.889 302.456 922.452 309.678 923.174C312.384 923.444 315.314 923.737 318.417 924.045C329.887 925.183 343.904 926.543 358.317 927.797C378.993 929.595 399.882 931.113 415.229 931.519C411.544 918.246 411.375 903.541 412.563 890.541Z"
            fill="#351700" />
        <path fill-rule="evenodd" clip-rule="evenodd"
            d="M320.809 1393.68C307.816 1379.39 297.718 1363.36 293.242 1353.33L313.301 1344.39C316.709 1352.03 325.435 1366.13 337.065 1378.92C347.003 1389.85 357.799 1398.41 367.972 1402.13C370.416 1399.19 372.922 1396.23 375.4 1393.32L375.424 1393.29C379.518 1388.46 383.548 1383.72 387.339 1379C395.052 1369.41 401.084 1360.77 404.212 1353.22L424.504 1361.62C420.099 1372.24 412.349 1382.93 404.464 1392.74C400.483 1397.7 396.288 1402.64 392.255 1407.39L392.174 1407.48C388.078 1412.31 384.156 1416.93 380.572 1421.4C370.63 1433.81 347.69 1455.55 326.464 1474.98C315.7 1484.84 305.145 1494.31 296.53 1502C294.112 1504.17 291.856 1506.18 289.797 1508.01C284.464 1512.77 280.442 1516.36 278.287 1518.34L263.422 1502.18C265.703 1500.09 269.925 1496.32 275.339 1491.49C277.368 1489.68 279.565 1487.72 281.889 1485.65C290.48 1477.97 300.959 1468.57 311.625 1458.8C326.927 1444.79 342.165 1430.44 352.838 1419.41C340.557 1413.15 329.595 1403.34 320.809 1393.68Z"
            fill="#351700" />
        <path fill-rule="evenodd" clip-rule="evenodd"
            d="M317.672 1572.37C304.678 1558.08 294.58 1542.05 290.104 1532.03L310.163 1523.09C313.571 1530.72 322.298 1544.83 333.928 1557.62C343.865 1568.54 354.661 1577.11 364.834 1580.82C367.278 1577.88 369.784 1574.93 372.263 1572.01L372.286 1571.98C376.38 1567.16 380.41 1562.41 384.201 1557.7C391.914 1548.1 397.946 1539.46 401.074 1531.92L421.367 1540.31C416.962 1550.94 409.211 1561.63 401.326 1571.44C397.345 1576.39 393.151 1581.33 389.117 1586.08L389.037 1586.18C384.94 1591 381.018 1595.63 377.434 1600.1C367.493 1612.51 344.552 1634.24 323.326 1653.68C312.562 1663.53 302.007 1673 293.392 1680.7C290.974 1682.86 288.719 1684.87 286.659 1686.71C281.327 1691.47 277.304 1695.06 275.149 1697.04L260.284 1680.88C262.565 1678.78 266.787 1675.02 272.202 1670.19C274.231 1668.38 276.427 1666.42 278.751 1664.34C287.343 1656.67 297.821 1647.26 308.488 1637.5C323.789 1623.49 339.027 1609.13 349.7 1598.11C337.419 1591.85 326.458 1582.03 317.672 1572.37Z"
            fill="#351700" />
        <path fill-rule="evenodd" clip-rule="evenodd"
            d="M719.691 514.559C722.781 493.896 729.016 474.476 734.009 463.941L753.86 473.334C749.913 481.661 744.231 498.965 741.414 517.802C738.991 533.999 738.975 549.514 742.592 561.067C746.323 561.097 750.093 561.169 753.817 561.239L753.862 561.24C760.195 561.359 766.412 561.476 772.456 561.414C784.756 561.288 795.183 560.404 802.946 557.859L809.794 578.71C798.617 582.375 785.306 583.228 772.682 583.358C766.306 583.424 759.809 583.301 753.576 583.183L753.447 583.181C747.11 583.061 741.058 582.948 735.336 583.018C704.62 583.39 662.576 578.088 645.97 575.509L649.344 553.824C662.919 555.933 693.388 559.807 719.863 560.836C716.675 545.882 717.495 529.24 719.691 514.559Z"
            fill="#351700" />
        <path fill-rule="evenodd" clip-rule="evenodd"
            d="M833.293 382.465C836.383 361.802 842.618 342.382 847.611 331.848L867.462 341.24C863.515 349.568 857.833 366.871 855.016 385.708C852.593 401.905 852.577 417.42 856.195 428.973C859.925 429.003 863.695 429.075 867.419 429.145L867.464 429.146C873.797 429.265 880.014 429.383 886.058 429.32C898.358 429.194 908.785 428.31 916.548 425.765L923.396 446.616C912.219 450.281 898.908 451.134 886.284 451.264C879.908 451.33 873.411 451.207 867.178 451.089L867.049 451.087C860.712 450.967 854.661 450.854 848.938 450.924C818.222 451.296 776.178 445.994 759.572 443.415L762.946 421.73C776.521 423.839 806.99 427.714 833.465 428.742C830.277 413.788 831.097 397.146 833.293 382.465Z"
            fill="#351700" />
        <path fill-rule="evenodd" clip-rule="evenodd"
            d="M594.973 630.611C596.804 611.393 601.877 593.14 606.285 583.085L626.403 591.891C623.046 599.547 618.478 615.49 616.838 632.691C615.437 647.389 616.364 661.13 620.46 671.149C624.281 670.976 628.153 670.842 631.982 670.708L632.019 670.707C638.344 670.486 644.57 670.269 650.613 669.897C662.907 669.139 673.362 667.781 681.054 665.014L688.495 685.661C677.664 689.558 664.534 691.025 651.966 691.8C645.621 692.191 639.141 692.417 632.908 692.634L632.784 692.638C626.455 692.859 620.394 693.072 614.67 693.434C584.215 695.364 530.973 693.022 514.085 691.515L516.039 669.657C529.655 670.872 568.393 672.655 597.624 672.123C593.849 658.7 593.718 643.777 594.973 630.611Z"
            fill="#351700" />
        <path fill-rule="evenodd" clip-rule="evenodd"
            d="M443.014 753.144C445.266 733.971 450.737 715.833 455.365 705.878L475.285 715.121C471.761 722.702 466.844 738.541 464.828 755.702C463.106 770.367 463.731 784.124 467.607 794.231C471.431 794.141 475.305 794.091 479.136 794.041L479.173 794.041C485.501 793.959 491.731 793.878 497.781 793.638C510.088 793.149 520.57 792.02 528.321 789.422L535.308 810.227C524.394 813.886 511.235 815.065 498.653 815.565C492.301 815.818 485.818 815.902 479.582 815.983L479.458 815.984C473.125 816.066 467.061 816.146 461.331 816.384C445.556 817.037 421.075 815.054 399.083 812.791C383.776 811.215 368.974 809.422 358.732 808.181C354.239 807.637 350.624 807.199 348.228 806.932L350.66 785.122C353.396 785.427 357.246 785.893 361.929 786.461C372.094 787.693 386.186 789.402 401.334 790.961C416.437 792.516 431.917 793.844 444.665 794.349C441.279 780.94 441.484 766.165 443.014 753.144Z"
            fill="#351700" />
        <path fill-rule="evenodd" clip-rule="evenodd"
            d="M276.603 861.815C278.626 842.616 283.88 824.414 288.388 814.404L308.418 823.41C304.985 831.032 300.257 846.928 298.447 864.112C296.899 878.796 297.69 892.545 301.686 902.605C305.509 902.47 309.382 902.373 313.212 902.278L313.249 902.277C319.576 902.119 325.804 901.964 331.85 901.651C344.151 901.016 354.619 899.762 362.338 897.072L369.573 917.792C358.704 921.58 345.56 922.917 332.985 923.567C326.636 923.895 320.154 924.057 313.92 924.212L313.796 924.215C307.465 924.373 301.402 924.525 295.675 924.831C264.914 926.473 197.081 919.956 180.903 918.35L183.075 896.513C197.376 897.932 246.562 902.616 278.778 903.114C275.201 889.715 275.225 874.89 276.603 861.815Z"
            fill="#351700" />
        <path fill-rule="evenodd" clip-rule="evenodd"
            d="M192.864 1038.53C178.739 1025.36 167.354 1010.21 162.068 1000.59L181.322 990.032C185.347 997.359 195.206 1010.7 207.85 1022.49C218.654 1032.56 230.118 1040.21 240.563 1043.08C242.757 1039.94 245.011 1036.8 247.241 1033.68L247.262 1033.65C250.945 1028.51 254.57 1023.45 257.96 1018.44C264.856 1008.24 270.156 999.134 272.652 991.356L293.568 998.057C290.052 1009.01 283.208 1020.3 276.158 1030.72C272.599 1035.99 268.826 1041.26 265.197 1046.32L265.125 1046.42C261.439 1051.57 257.911 1056.5 254.708 1061.25C237.503 1086.78 191.461 1136.98 180.439 1148.92L164.293 1134.04C174.037 1123.48 207.389 1087.06 227.18 1061.66C214.318 1056.45 202.485 1047.5 192.864 1038.53Z"
            fill="#351700" />
        <path fill-rule="evenodd" clip-rule="evenodd"
            d="M180.314 1308.14C166.188 1294.97 154.803 1279.82 149.517 1270.2L168.771 1259.64C172.797 1266.97 182.655 1280.31 195.299 1292.1C206.103 1302.17 217.568 1309.82 228.013 1312.69C230.206 1309.56 232.461 1306.41 234.69 1303.29L234.711 1303.26C238.394 1298.12 242.019 1293.06 245.409 1288.05C252.306 1277.85 257.605 1268.74 260.102 1260.97L281.017 1267.67C277.502 1278.62 270.658 1289.91 263.608 1300.33C260.048 1305.6 256.275 1310.87 252.646 1315.93L252.574 1316.03C248.889 1321.18 245.361 1326.11 242.158 1330.86C224.953 1356.39 178.91 1406.59 167.889 1418.53L151.743 1403.65C161.486 1393.09 194.838 1356.67 214.629 1331.27C201.768 1326.06 189.935 1317.11 180.314 1308.14Z"
            fill="#351700" />
        <path fill-rule="evenodd" clip-rule="evenodd"
            d="M180.313 1511.92C166.188 1498.75 154.803 1483.6 149.517 1473.98L168.771 1463.42C172.796 1470.74 182.655 1484.08 195.299 1495.87C206.103 1505.95 217.567 1513.59 228.012 1516.46C230.206 1513.33 232.46 1510.18 234.69 1507.07L234.711 1507.04C238.394 1501.9 242.019 1496.83 245.409 1491.82C252.305 1481.63 257.605 1472.52 260.101 1464.74L281.016 1471.44C277.501 1482.39 270.657 1493.69 263.607 1504.11C260.048 1509.37 256.275 1514.64 252.646 1519.71L252.574 1519.81C248.888 1524.95 245.36 1529.88 242.157 1534.64C224.952 1560.17 178.91 1610.36 167.888 1622.3L151.742 1607.42C161.486 1596.87 194.838 1560.45 214.629 1535.04C201.767 1529.83 189.934 1520.89 180.313 1511.92Z"
            fill="#351700" />
        <path fill-rule="evenodd" clip-rule="evenodd"
            d="M574.204 473.391C577.294 452.728 583.53 433.308 588.523 422.774L608.373 432.166C604.426 440.494 598.744 457.797 595.927 476.634C593.505 492.831 593.488 508.346 597.106 519.899C600.836 519.93 604.606 520.001 608.33 520.071L608.375 520.072C614.708 520.191 620.925 520.309 626.969 520.246C639.269 520.12 649.696 519.237 657.459 516.691L664.307 537.543C653.13 541.207 639.819 542.06 627.195 542.19C620.819 542.256 614.323 542.133 608.089 542.015L607.96 542.013C601.623 541.893 595.572 541.78 589.849 541.85C559.133 542.223 517.089 536.92 500.483 534.341L503.857 512.656C517.432 514.765 547.901 518.64 574.376 519.668C571.188 504.715 572.008 488.073 574.204 473.391Z"
            fill="#351700" />
        <path fill-rule="evenodd" clip-rule="evenodd"
            d="M698.875 354.089C701.965 333.427 708.201 314.007 713.194 303.472L733.045 312.865C729.098 321.192 723.415 338.496 720.598 357.332C718.176 373.53 718.159 389.044 721.777 400.598C725.508 400.628 729.278 400.699 733.001 400.77L733.047 400.77C739.379 400.89 745.597 401.007 751.64 400.945C763.941 400.819 774.367 399.935 782.131 397.39L788.979 418.241C777.801 421.906 764.491 422.759 751.866 422.889C745.491 422.954 738.994 422.832 732.76 422.714L732.632 422.712C726.294 422.592 720.243 422.479 714.521 422.548C683.805 422.921 641.76 417.619 625.155 415.039L628.529 393.355C642.103 395.463 672.573 399.338 699.047 400.366C695.859 385.413 696.68 368.771 698.875 354.089Z"
            fill="#351700" />
        <path fill-rule="evenodd" clip-rule="evenodd"
            d="M447.053 581.669C448.885 562.452 453.957 544.198 458.366 534.144L478.484 542.95C475.127 550.606 470.558 566.548 468.918 583.75C467.517 598.448 468.444 612.189 472.54 622.208C476.362 622.035 480.233 621.9 484.063 621.767L484.099 621.766C490.425 621.545 496.651 621.328 502.694 620.955C514.988 620.197 525.443 618.84 533.135 616.073L540.576 636.72C529.745 640.617 516.615 642.084 504.047 642.859C497.701 643.25 491.221 643.476 484.989 643.693L484.865 643.697C478.536 643.918 472.475 644.13 466.751 644.493C436.296 646.423 383.053 644.081 366.166 642.574L368.12 620.716C381.736 621.931 420.473 623.714 449.705 623.182C445.93 609.758 445.798 594.836 447.053 581.669Z"
            fill="#351700" />
        <path fill-rule="evenodd" clip-rule="evenodd"
            d="M309.107 692.757C313.119 674.831 320.255 658.204 325.827 649.205L344.506 660.75C340.373 667.425 334.084 681.716 330.542 697.545C327.529 711.012 326.927 723.731 329.745 733.388C333.619 733.695 337.543 734.046 341.428 734.394L341.46 734.397C347.762 734.961 353.974 735.517 360.023 735.904C372.323 736.692 382.916 736.697 390.928 735.024L395.422 756.505C384.298 758.828 371.165 758.608 358.617 757.804C352.283 757.399 345.833 756.821 339.62 756.265L339.501 756.254C333.195 755.69 327.147 755.15 321.416 754.792C295.328 753.162 244.309 741.977 220.014 736.651C215.683 735.701 212.2 734.938 209.86 734.448L214.364 712.97C217.081 713.538 220.949 714.384 225.648 715.412C245.812 719.821 281.286 727.578 306.831 731.159C304.885 718.293 306.451 704.629 309.107 692.757Z"
            fill="#351700" />
        <path fill-rule="evenodd" clip-rule="evenodd"
            d="M124.494 821.661C116.45 804.109 111.695 785.771 110.473 774.862L132.301 772.422C133.231 780.729 137.264 796.814 144.464 812.525C150.616 825.95 158.304 837.381 166.87 844.005C170.092 841.944 173.375 839.891 176.623 837.86L176.654 837.84C182.02 834.485 187.3 831.183 192.345 827.838C202.607 821.032 210.977 814.628 216.25 808.385L233.037 822.536C225.613 831.327 214.982 839.165 204.491 846.122C199.194 849.634 193.698 853.071 188.412 856.377L188.307 856.443C182.938 859.8 177.798 863.015 173.025 866.192C147.388 883.256 85.6868 912.159 70.9452 919.008L61.6841 899.109C74.7156 893.054 119.434 872.061 147.414 856.098C137.507 846.387 129.972 833.616 124.494 821.661Z"
            fill="#351700" />
        <path fill-rule="evenodd" clip-rule="evenodd"
            d="M70.4928 1079.29C56.367 1066.12 44.9821 1050.97 39.696 1041.35L58.9504 1030.79C62.9758 1038.11 72.8343 1051.45 85.4783 1063.24C96.2823 1073.32 107.747 1080.96 118.192 1083.83C120.385 1080.7 122.639 1077.55 124.869 1074.44L124.89 1074.41C128.573 1069.27 132.198 1064.2 135.588 1059.19C142.485 1049 147.784 1039.89 150.281 1032.11L171.196 1038.81C167.681 1049.76 160.837 1061.06 153.787 1071.48C150.227 1076.74 146.454 1082.01 142.825 1087.08L142.753 1087.18C139.068 1092.32 135.54 1097.25 132.337 1102.01C115.132 1127.54 69.0895 1177.73 58.0675 1189.67L41.9218 1174.79C51.6652 1164.24 85.0171 1127.82 104.808 1102.41C91.9468 1097.2 80.1136 1088.26 70.4928 1079.29Z"
            fill="#351700" />
        <path fill-rule="evenodd" clip-rule="evenodd"
            d="M51.6662 1279.93C37.5404 1266.76 26.1555 1251.61 20.8693 1241.99L40.1237 1231.43C44.1492 1238.75 54.0077 1252.09 66.6517 1263.88C77.4556 1273.96 88.92 1281.6 99.3649 1284.47C101.559 1281.34 103.813 1278.19 106.042 1275.08L106.064 1275.05C109.747 1269.91 113.371 1264.84 116.762 1259.83C123.658 1249.64 128.958 1240.53 131.454 1232.75L152.369 1239.45C148.854 1250.4 142.01 1261.7 134.96 1272.12C131.4 1277.38 127.627 1282.65 123.999 1287.72L123.926 1287.82C120.241 1292.96 116.713 1297.89 113.51 1302.65C96.3051 1328.18 50.2628 1378.37 39.2408 1390.31L23.0951 1375.43C32.8385 1364.88 66.1905 1328.46 85.9814 1303.05C73.1202 1297.84 61.287 1288.9 51.6662 1279.93Z"
            fill="#351700" />
        <path fill-rule="evenodd" clip-rule="evenodd"
            d="M64.2174 1468.03C50.0917 1454.86 38.7068 1439.71 33.4206 1430.09L52.675 1419.53C56.7004 1426.85 66.5589 1440.19 79.2029 1451.98C90.0069 1462.06 101.471 1469.7 111.916 1472.57C114.11 1469.44 116.364 1466.29 118.594 1463.18L118.615 1463.15C122.298 1458.01 125.923 1452.94 129.313 1447.93C136.209 1437.74 141.509 1428.63 144.005 1420.85L164.921 1427.55C161.405 1438.5 154.561 1449.8 147.511 1460.22C143.952 1465.48 140.179 1470.75 136.55 1475.82L136.478 1475.92C132.792 1481.06 129.264 1485.99 126.061 1490.75C108.856 1516.28 62.8141 1566.47 51.7921 1578.41L35.6464 1563.53C45.3898 1552.98 78.7417 1516.56 98.5327 1491.15C85.6714 1485.94 73.8382 1477 64.2174 1468.03Z"
            fill="#351700" />
        <path fill-rule="evenodd" clip-rule="evenodd"
            d="M408.19 460.771C411.28 440.109 417.515 420.688 422.508 410.154L442.359 419.546C438.412 427.874 432.73 445.178 429.913 464.014C427.49 480.212 427.474 495.726 431.092 507.279C434.822 507.31 438.592 507.381 442.316 507.451L442.361 507.452C448.694 507.572 454.911 507.689 460.955 507.627C473.255 507.5 483.682 506.617 491.445 504.072L498.293 524.923C487.116 528.587 473.805 529.441 461.181 529.571C454.805 529.636 448.308 529.513 442.075 529.396L441.946 529.393C435.609 529.274 429.557 529.161 423.835 529.23C393.119 529.603 351.075 524.3 334.469 521.721L337.843 500.036C351.418 502.145 381.887 506.02 408.362 507.048C405.174 492.095 405.994 475.453 408.19 460.771Z"
            fill="#351700" />
        <path fill-rule="evenodd" clip-rule="evenodd"
            d="M532.861 341.47C535.951 320.807 542.187 301.387 547.18 290.853L567.031 300.245C563.084 308.573 557.401 325.876 554.584 344.713C552.162 360.91 552.145 376.425 555.763 387.978C559.494 388.008 563.264 388.08 566.988 388.15L567.033 388.151C573.366 388.27 579.583 388.388 585.626 388.325C597.927 388.199 608.354 387.315 616.117 384.77L622.965 405.622C611.787 409.286 598.477 410.139 585.852 410.269C579.477 410.335 572.98 410.212 566.746 410.094L566.618 410.092C560.28 409.972 554.229 409.859 548.507 409.929C517.791 410.301 475.746 404.999 459.141 402.42L462.515 380.735C476.089 382.844 506.559 386.719 533.034 387.747C529.845 372.794 530.666 356.152 532.861 341.47Z"
            fill="#351700" />
        <path fill-rule="evenodd" clip-rule="evenodd"
            d="M281.039 569.05C282.871 549.832 287.943 531.579 292.352 521.525L312.47 530.33C309.113 537.986 304.544 553.929 302.905 571.13C301.504 585.829 302.431 599.569 306.526 609.589C310.348 609.416 314.22 609.281 318.049 609.147L318.085 609.146C324.411 608.925 330.637 608.708 336.68 608.336C348.974 607.578 359.429 606.22 367.121 603.453L374.562 624.101C363.731 627.997 350.601 629.464 338.033 630.239C331.687 630.63 325.207 630.856 318.975 631.073L318.851 631.078C312.522 631.298 306.461 631.511 300.737 631.873C270.282 633.803 217.039 631.461 200.152 629.954L202.106 608.096C215.722 609.311 254.459 611.094 283.691 610.562C279.916 597.139 279.784 582.216 281.039 569.05Z"
            fill="#351700" />
    </g>
</svg>