<svg width="1663" height="1903" viewBox="0 0 1663 1903" fill="none" xmlns="http://www.w3.org/2000/svg">
    <path
        d="M562.481 538.718C425.444 538.718 314.353 418.134 314.353 269.386C314.353 120.639 425.444 0.0550537 562.481 0.0550537C699.518 0.0550537 810.609 120.639 810.609 269.386C810.609 418.134 699.518 538.718 562.481 538.718Z"
        fill="#71472D" />
    <path
        d="M562.481 538.718C425.444 538.718 314.353 418.134 314.353 269.386C314.353 244.513 317.46 220.427 323.275 197.56C363.031 227.343 514.372 269.038 801.688 197.56C807.502 220.427 810.609 244.513 810.609 269.386C810.609 418.134 699.518 538.718 562.481 538.718Z"
        fill="#613D25" />
    <path
        d="M430.119 978.252C444.366 832.763 677.955 710.518 677.955 710.518C672.347 736.38 660.092 759.529 651.021 774.085C646.428 781.48 650.995 791.478 659.191 792.111C878.773 809.228 1161.79 572.176 1161.79 572.176C1221.38 649.031 1290.65 755.535 1325.83 791.23C1330.84 796.311 1338.77 792.18 1338.58 784.744C1325.47 282.271 840.865 182.473 512.697 292.916C212.363 393.994 -37.4139 786.038 170.877 1072.22C182.382 1035.65 226.101 964.694 308.938 973.472C322.534 976.607 358.828 992.282 395.225 1029.9C400.668 1035.73 445.429 1051.85 430.119 978.252Z"
        fill="#71472D" />
    <path
        d="M1116.98 514.532C1116.98 514.532 1091.01 483.781 1034.36 488.918C1034.36 488.918 1074.49 467.146 1100.45 469.707C1100.45 469.707 1029.64 417.185 925.791 450.497C925.791 450.497 998.955 399.256 1056.79 405.659C1056.79 405.659 995.428 378.764 956.48 385.168C956.48 385.168 987.169 346.733 1027.28 348.014C1027.28 348.014 995.416 291.65 945.848 273.72C945.848 273.72 1044.98 301.909 1070.94 322.4C1128.77 346.733 1181.87 418.48 1181.87 418.48C1164.18 408.234 1135.85 410.796 1135.85 410.796C1181.87 438.985 1217.28 491.493 1217.28 491.493C1194.86 476.125 1167.71 481.248 1167.71 481.248C1211.38 524.805 1225.54 581.169 1225.54 581.169C1219.64 563.239 1177.15 541.454 1177.15 541.454C1193.67 570.924 1197.21 618.309 1197.21 618.309L1161.8 572.191C1161.8 572.191 1089.82 632.397 1070.93 640.081C1070.93 640.081 1125.21 583.717 1128.75 558.103C1128.75 558.103 1047.32 579.875 982.412 588.853C982.437 588.826 1073.31 519.655 1116.98 514.532Z"
        fill="#613D25" />
</svg>