<svg width="530" height="607" viewBox="0 0 530 607" fill="none" xmlns="http://www.w3.org/2000/svg">
    <path
        d="M179.263 171.822C135.59 171.822 100.185 133.359 100.185 85.9111C100.185 38.4637 135.59 0 179.263 0C222.937 0 258.342 38.4637 258.342 85.9111C258.342 133.359 222.937 171.822 179.263 171.822Z"
        fill="#71472D" />
    <path
        d="M179.263 171.822C135.59 171.822 100.185 133.359 100.185 85.9111C100.185 77.9769 101.175 70.2939 103.028 63C115.698 72.5 163.931 85.8 255.499 63C257.352 70.2939 258.342 77.9769 258.342 85.9111C258.342 133.359 222.937 171.822 179.263 171.822Z"
        fill="#613D25" />
    <path
        d="M137.079 312.025C141.62 265.616 216.065 226.623 216.065 226.623C214.278 234.872 210.372 242.256 207.481 246.899C206.017 249.258 207.473 252.447 210.085 252.649C280.066 258.109 370.264 182.495 370.264 182.495C389.255 207.01 411.331 240.983 422.543 252.368C424.14 253.989 426.668 252.671 426.607 250.299C422.43 90.021 267.985 58.1876 163.397 93.4165C67.6804 125.658 -11.9239 250.712 54.4588 342C58.1254 330.333 72.0588 307.7 98.4588 310.5C102.792 311.5 114.359 316.5 125.959 328.5C127.693 330.358 141.959 335.5 137.079 312.025Z"
        fill="#71472D" />
    <path
        d="M355.983 164.107C355.983 164.107 347.706 154.299 329.653 155.937C329.653 155.937 342.442 148.992 350.714 149.809C350.714 149.809 328.149 133.056 295.05 143.682C295.05 143.682 318.368 127.337 336.802 129.379C336.802 129.379 317.244 120.8 304.831 122.843C304.831 122.843 314.612 110.583 327.397 110.992C327.397 110.992 317.24 93.0127 301.443 87.2935C301.443 87.2935 333.037 96.2852 341.31 102.821C359.739 110.583 376.664 133.469 376.664 133.469C371.024 130.201 361.995 131.018 361.995 131.018C376.664 140.009 387.949 156.759 387.949 156.759C380.805 151.856 372.152 153.49 372.152 153.49C386.069 167.384 390.581 185.363 390.581 185.363C388.701 179.644 375.16 172.695 375.16 172.695C380.425 182.095 381.553 197.21 381.553 197.21L370.268 182.499C370.268 182.499 347.326 201.704 341.306 204.155C341.306 204.155 358.607 186.176 359.735 178.006C359.735 178.006 333.781 184.95 313.096 187.814C313.104 187.806 342.066 165.741 355.983 164.107Z"
        fill="#613D25" />
</svg>