<svg width="1663" height="1881" viewBox="0 0 1663 1881" fill="none" xmlns="http://www.w3.org/2000/svg">
    <mask id="mask0_8_377" style="mask-type:alpha" maskUnits="userSpaceOnUse" x="1253" y="575" width="208" height="352">
        <path
            d="M1337.01 926.392C1335.38 772.362 1301.08 658.809 1253.62 575.272C1310.66 575.272 1431.02 603.801 1456.13 717.915C1481.23 832.029 1387.18 904.447 1337.01 926.392Z"
            fill="#C4C4C4" />
    </mask>
    <g mask="url(#mask0_8_377)">
        <ellipse cx="1278.63" cy="760.498" rx="139.629" ry="139.508" fill="#2B1200" />
    </g>
    <path fill-rule="evenodd" clip-rule="evenodd"
        d="M1292.74 700.782C1253.52 700.782 1217.96 684.723 1191.94 658.66C1165.63 684.723 1129.67 700.782 1090.01 700.782C1040.05 700.782 995.951 675.298 969.638 636.433C940.305 675.543 893.986 700.782 841.867 700.782C818.907 700.782 797.073 695.884 777.321 687.061C759.022 734.494 719.506 771.103 670.643 784.825C675.462 800.343 678.061 816.863 678.061 833.999C678.061 880.321 659.073 922.134 628.576 951.838C625.914 1072.94 569.743 1135.75 534.984 1153.94C526.617 1160.73 491.056 1158.64 491.056 1158.64C480.391 1109.59 442.183 1018.15 366.431 972.908C360.649 973.549 354.776 973.878 348.827 973.878C260.15 973.878 188.264 900.814 188.264 810.686C188.264 764.096 207.474 722.065 238.283 692.33C213.213 663.542 197.995 625.686 197.995 584.217C197.995 497.96 263.84 427.333 347.23 421.426C348.753 332.65 419.318 261.166 506.146 261.166C529.447 261.166 551.576 266.314 571.515 275.563C596.349 218.064 652.864 177.905 718.607 177.905C754.791 177.905 788.179 190.07 815.028 210.596C843.53 166.79 892.127 137.94 947.287 137.94C1013.87 137.94 1070.89 179.977 1094.55 239.612C1114.86 229.933 1137.5 224.531 1161.37 224.531C1249.15 224.531 1320.31 297.594 1320.31 387.722C1320.31 394.198 1319.94 400.586 1319.23 406.864C1386.3 419.637 1437.08 480.018 1437.08 552.578C1437.08 634.429 1372.46 700.782 1292.74 700.782Z"
        fill="#2B1200" />
</svg>