<svg width="1723" height="1881" viewBox="0 0 1723 1881" fill="none" xmlns="http://www.w3.org/2000/svg">
    <path
        d="M1080.07 296.684C1168.52 384.933 1204.58 492.461 1211.55 535.194C1144.75 594.896 1058.6 728.898 947.979 806.5C859.351 868.671 758.147 901.755 676.442 917.36C613.984 989.827 629.918 1069.31 584.042 1072.17C556.153 1007.57 504.653 902.203 361.223 949.905C240.407 990.086 234.52 1126.44 273.366 1196C295.279 1234.76 384.093 1321.67 527.523 1302.59L620.086 1382.54C611.121 1399.43 594.202 1423.64 539.22 1447.5C470.493 1477.31 150.763 1450.48 120.882 1256.69C46.179 1192.09 -70.9557 1011.62 58.1315 806.5C97.6753 743.665 153.334 698.652 219.231 669.68C218.429 643.997 218.399 614.219 219.49 579.915C225.467 392.088 401.766 240.038 539.22 207.243C676.674 174.448 969.511 186.373 1080.07 296.684Z"
        fill="#3A1A00" />
    <path
        d="M1357.45 675.592C1308.51 601.607 1243.97 551.76 1208.41 534.518C1194.61 441.722 1110.62 332.832 1070.35 289.987C1450.02 147.345 1546.76 607.668 1533.17 782.183C1603.45 920.123 1555.13 1116.58 1530.03 1194.43C1517.48 1089.1 1431.71 1018.88 1391.97 1001.63C1409.54 906.329 1376.28 744.562 1357.45 675.592Z"
        fill="#3A1A00" />
</svg>

