<svg width="549" height="600" viewBox="0 0 549 600" fill="none" xmlns="http://www.w3.org/2000/svg">
    <path
        d="M344.098 94.6361C372.287 122.786 383.778 157.085 386 170.716C364.713 189.759 337.256 232.503 302 257.257C273.754 277.088 241.5 287.641 215.461 292.619C195.555 315.734 200.633 341.087 186.013 342C177.124 321.395 160.711 287.784 115 303C76.496 315.817 74.6198 359.31 87 381.5C93.9837 393.863 122.289 421.586 168 415.5L197.5 441C194.643 446.389 189.251 454.113 171.728 461.721C149.825 471.231 47.9264 462.672 38.4032 400.857C14.5952 380.252 -22.7357 322.685 18.4045 257.257C31.0072 237.214 48.7456 222.855 69.7472 213.614C69.4914 205.422 69.4819 195.923 69.8298 184.981C71.7344 125.068 127.921 76.5672 171.728 66.1062C215.535 55.6452 308.862 59.4492 344.098 94.6361Z"
        fill="#3A1A00" />
    <path
        d="M432.5 215.5C416.9 191.9 396.333 176 385 170.5C380.6 140.9 353.833 106.167 341 92.5C462 47 492.833 193.833 488.5 249.5C510.9 293.5 495.5 356.167 487.5 381C483.5 347.4 456.167 325 443.5 319.5C449.1 289.1 438.5 237.5 432.5 215.5Z"
        fill="#3A1A00" />
</svg>