<svg width="530" height="600" viewBox="0 0 530 600" fill="none" xmlns="http://www.w3.org/2000/svg">
    <mask id="mask0_8_373" style="mask-type:alpha" maskUnits="userSpaceOnUse" x="399" y="183" width="67" height="113">
        <path
            d="M426.108 295.5C425.587 246.368 414.655 210.147 399.531 183.5C417.71 183.5 456.069 192.6 464.069 229C472.069 265.4 442.095 288.5 426.108 295.5Z"
            fill="#C4C4C4" />
    </mask>
    <g mask="url(#mask0_8_373)">
        <circle cx="407.5" cy="242.583" r="44.5" fill="#2B1200" />
    </g>
    <path fill-rule="evenodd" clip-rule="evenodd"
        d="M411.997 223.535C399.498 223.535 388.164 218.413 379.873 210.099C371.489 218.413 360.026 223.535 347.387 223.535C331.465 223.535 317.411 215.406 309.025 203.009C299.676 215.484 284.914 223.535 268.304 223.535C260.987 223.535 254.028 221.973 247.733 219.158C241.901 234.288 229.307 245.966 213.735 250.343C215.271 255.293 216.099 260.562 216.099 266.029C216.099 280.804 210.047 294.142 200.328 303.617C199.48 342.245 181.578 362.281 170.5 368.083C167.833 370.25 156.5 369.583 156.5 369.583C153.101 353.935 140.924 324.767 116.782 310.337C114.939 310.542 113.067 310.647 111.171 310.647C82.9102 310.647 60 287.341 60 258.592C60 243.731 66.1222 230.324 75.9411 220.839C67.9513 211.656 63.1013 199.581 63.1013 186.353C63.1013 158.839 84.086 136.311 110.663 134.426C111.148 106.109 133.637 83.3065 161.309 83.3065C168.735 83.3065 175.788 84.9487 182.143 87.8989C190.057 69.558 208.068 56.748 229.021 56.748C240.553 56.748 251.194 60.6284 259.75 67.1757C268.834 53.2026 284.322 44 301.901 44C323.121 44 341.294 57.4088 348.833 76.4312C355.307 73.344 362.523 71.6208 370.13 71.6208C398.106 71.6208 420.784 94.9264 420.784 123.675C420.784 125.741 420.667 127.779 420.44 129.781C441.814 133.855 458 153.116 458 176.261C458 202.37 437.404 223.535 411.997 223.535Z"
        fill="#2B1200" />
</svg>