<svg width="530" height="600" viewBox="0 0 530 600" fill="none" xmlns="http://www.w3.org/2000/svg">
    <mask id="mask0_19_338" style="mask-type:alpha" maskUnits="userSpaceOnUse" x="363" y="139" width="169" height="249">
        <path
            d="M423.501 253C416.301 199.4 389.501 160.333 363.001 155.5L480.001 139.5L531.001 320L468.001 387.5C472.001 355.5 441.667 329.167 426.001 320C428.001 306.8 425.167 269.833 423.501 253Z"
            fill="#C4C4C4" />
    </mask>
    <g mask="url(#mask0_19_338)">
        <path
            d="M456.46 298.711C450.081 244.483 400.447 215.546 376.179 210.917C381.058 184.548 391.427 186.168 412.115 190.266C484.395 204.581 496.095 267.865 495.409 300.112C468.509 304.053 457.822 303.915 456.46 298.711Z"
            fill="#351700" />
        <ellipse cx="19.439" cy="10.1973" rx="19.439" ry="10.1973"
            transform="matrix(-1.01789 -0.047841 -0.15752 0.970808 497.057 290.462)" fill="#451E00" />
        <path opacity="0.6" fill-rule="evenodd" clip-rule="evenodd"
            d="M456.261 297.131C449.115 243.921 400.21 215.501 376.179 210.917C375.447 204.446 393.398 207.365 412.912 214.582C463.08 233.135 476.913 260.984 476.227 293.231C476.149 293.243 476.071 293.254 475.993 293.266C475.818 298.77 475.295 306.056 474.058 309.331C463.13 308.817 454.99 303.969 455.877 298.501C455.953 298.038 456.081 297.581 456.261 297.131Z"
            fill="#240F00" />
        <path
            d="M432.423 316.168C427.592 261.046 379.398 230.091 355.577 224.595C361.102 198.057 371.29 200.043 391.592 204.882C462.525 221.788 472.364 286.257 470.817 318.886C444.168 321.979 433.627 321.483 432.423 316.168Z"
            fill="#351700" />
        <ellipse cx="19.2831" cy="10.2665" rx="19.2831" ry="10.2665"
            transform="matrix(-1.01118 -0.0830506 -0.180387 0.971161 472.703 309.169)" fill="#451E00" />
        <path opacity="0.6" fill-rule="evenodd" clip-rule="evenodd"
            d="M432.269 314.562C426.654 260.445 379.165 230.037 355.577 224.595C355.029 218.018 372.663 221.572 391.723 229.53C440.724 249.989 453.622 278.649 452.076 311.279C451.998 311.288 451.921 311.297 451.844 311.306C451.522 316.873 450.81 324.233 449.501 327.508C438.732 326.624 430.831 321.443 431.854 315.936C431.941 315.47 432.08 315.011 432.269 314.562Z"
            fill="#240F00" />
        <path
            d="M410.471 355.901C420.473 299.733 383.757 255.27 363.031 243.039C375.154 218.228 384.114 223.097 401.738 233.674C463.315 270.631 455.515 337.513 445.493 369.51C419.875 365.014 410.193 361.526 410.471 355.901Z"
            fill="#351700" />
        <ellipse cx="19.1084" cy="10.3428" rx="19.1084" ry="10.3428"
            transform="matrix(-0.927751 -0.373201 -0.420227 0.907419 449.805 360.386)" fill="#451E00" />
        <path opacity="0.6" fill-rule="evenodd" clip-rule="evenodd"
            d="M410.75 354.261C419.758 298.869 383.555 255.15 363.031 243.039C364.251 236.346 379.729 244.888 395.377 258.214C435.605 292.472 440.072 324.627 430.05 356.623C429.975 356.61 429.901 356.597 429.827 356.584C428.063 362.027 425.464 369.142 423.384 372.025C413.593 368.087 407.602 360.692 410.002 355.509C410.206 355.07 410.456 354.653 410.75 354.261Z"
            fill="#240F00" />
        <path opacity="0.5"
            d="M486.982 250.662C487.195 249.027 482.607 240.431 480.286 236.338L446.06 249.371L416.716 278.447C417.342 289.616 420.705 312.817 429.159 316.265C437.613 319.713 446.692 318.425 451.912 317.148C454.02 314.487 457.589 292.328 455.168 271.468C467.088 270.085 486.716 252.706 486.982 250.662Z"
            fill="#220F01" />
        <path
            d="M459.515 235.724C449.928 181.97 398.663 156.031 374.163 152.852C377.467 126.239 387.915 127.241 408.809 130.103C481.812 140.101 497.249 202.579 498.479 234.81C471.86 240.341 461.184 240.838 459.515 235.724Z"
            fill="#351700" />
        <ellipse cx="19.439" cy="10.1973" rx="19.439" ry="10.1973"
            transform="matrix(-1.01894 0.0126816 -0.0995999 0.978448 499.551 225.078)" fill="#451E00" />
        <path opacity="0.6" fill-rule="evenodd" clip-rule="evenodd"
            d="M459.223 234.159C448.93 181.466 398.424 156 374.163 152.852C373.048 146.436 391.141 148.283 411.049 154.328C462.23 169.87 477.692 196.849 478.922 229.08C478.845 229.096 478.768 229.112 478.691 229.128C478.842 234.633 478.753 241.937 477.713 245.28C466.774 245.416 458.36 241.059 458.921 235.549C458.969 235.082 459.07 234.618 459.223 234.159Z"
            fill="#240F00" />
        <path
            d="M436.557 254.577C428.461 199.84 378.515 171.801 354.409 167.728C358.349 140.91 368.637 142.287 389.191 145.912C461.002 158.576 474.651 222.347 475.045 255.011C448.627 259.68 438.074 259.811 436.557 254.577Z"
            fill="#351700" />
        <ellipse cx="19.2831" cy="10.2665" rx="19.2831" ry="10.2665"
            transform="matrix(-1.01432 -0.0228645 -0.122405 0.980158 476.351 245.199)" fill="#451E00" />
        <path opacity="0.6" fill-rule="evenodd" clip-rule="evenodd"
            d="M436.308 252.983C427.489 199.295 378.279 171.761 354.409 167.728C353.472 161.196 371.286 163.696 390.785 170.509C440.914 188.022 455.491 215.866 455.885 248.529C455.808 248.543 455.731 248.557 455.655 248.57C455.664 254.147 455.39 261.536 454.278 264.883C443.476 264.64 435.281 259.937 435.975 254.379C436.034 253.909 436.146 253.443 436.308 252.983Z"
            fill="#240F00" />
        <path
            d="M411.003 295.543C417.652 238.881 378.361 196.676 356.945 185.697C367.574 160.21 376.807 164.538 395.029 174.051C458.691 207.286 454.876 274.514 446.771 307.049C420.932 304.082 411.06 301.175 411.003 295.543Z"
            fill="#351700" />
        <ellipse cx="19.1084" cy="10.3428" rx="19.1084" ry="10.3428"
            transform="matrix(-0.948273 -0.317456 -0.365607 0.93077 450.534 297.685)" fill="#451E00" />
        <path opacity="0.6" fill-rule="evenodd" clip-rule="evenodd"
            d="M411.185 293.889C416.888 238.06 378.152 196.569 356.945 185.697C357.766 178.943 373.724 186.551 390.136 198.925C432.327 230.734 438.694 262.567 430.59 295.102C430.515 295.093 430.44 295.085 430.365 295.076C428.928 300.614 426.756 307.871 424.851 310.872C414.843 307.522 408.424 300.496 410.512 295.18C410.689 294.729 410.914 294.299 411.185 293.889Z"
            fill="#240F00" />
        <path opacity="0.5"
            d="M470 160L464 154V149.5L436 158L395 214L421.5 248.5C439.5 251.7 454.333 245.5 459.5 242L447 195.5C459.5 192.5 461 180 461.5 178C461.9 176.4 459.333 170.333 458 167.5C460.8 166.3 467.167 162 470 160Z"
            fill="#220F01" />
    </g>
    <path
        d="M432.786 163.849C399.224 120.78 341.779 121.759 318.626 130.379C309.131 105.299 318.839 101.31 338.654 94.0914C407.887 68.8711 450.694 116.927 466.822 144.86C445.859 162.172 436.647 167.594 432.786 163.849Z"
        fill="#351700" />
    <ellipse cx="19.439" cy="10.1973" rx="19.439" ry="10.1973"
        transform="matrix(-0.895293 0.486663 0.368463 0.911875 463.229 135.753)" fill="#451E00" />
    <path opacity="0.6" fill-rule="evenodd" clip-rule="evenodd"
        d="M431.797 162.602C398.106 120.8 341.553 121.843 318.626 130.379C314.646 125.224 331.51 118.416 351.939 114.473C404.459 104.337 430.723 120.984 446.85 148.917C446.789 148.968 446.729 149.018 446.668 149.068C449.371 153.866 452.7 160.368 453.34 163.81C443.728 169.035 434.254 169.107 432.179 163.972C432.003 163.537 431.876 163.079 431.797 162.602Z"
        fill="#240F00" />
    <path
        d="M421.277 191.237C388.576 146.601 331.316 145.107 308.096 152.754C299.067 127.195 308.809 123.613 328.679 117.228C398.103 94.9211 439.931 144.956 455.521 173.661C434.334 190.119 425.061 195.158 421.277 191.237Z"
        fill="#351700" />
    <ellipse cx="19.2831" cy="10.2665" rx="19.2831" ry="10.2665"
        transform="matrix(-0.907801 0.453073 0.34909 0.924029 452.097 164.374)" fill="#451E00" />
    <path opacity="0.6" fill-rule="evenodd" clip-rule="evenodd"
        d="M420.314 189.943C387.462 146.573 331.09 145.182 308.096 152.754C304.219 147.413 321.141 141.313 341.566 138.239C394.076 130.338 419.961 148.164 435.55 176.869C435.488 176.917 435.427 176.965 435.366 177.013C437.976 181.941 441.182 188.604 441.76 192.083C432.092 196.908 422.65 196.573 420.671 191.334C420.503 190.89 420.384 190.425 420.314 189.943Z"
        fill="#240F00" />
    <path
        d="M423.098 236.594C402.539 183.375 348.095 164.381 324.03 164.664C321.538 137.162 331.725 136.681 352.279 136.592C424.094 136.282 452.089 197.523 460.102 230.08C435.863 239.513 425.776 241.548 423.098 236.594Z"
        fill="#351700" />
    <ellipse cx="19.1084" cy="10.3428" rx="19.1084" ry="10.3428"
        transform="matrix(-0.98684 0.161697 0.110943 0.993827 459.061 220.043)" fill="#451E00" />
    <path opacity="0.6" fill-rule="evenodd" clip-rule="evenodd"
        d="M422.487 235.047C401.48 183.007 347.86 164.383 324.03 164.664C321.604 158.307 339.269 157.59 359.558 160.876C411.717 169.323 432.203 194.506 440.216 227.064C440.145 227.092 440.075 227.119 440.005 227.147C441.318 232.716 442.782 240.147 442.498 243.691C432.084 245.397 423.128 242.178 422.494 236.502C422.44 236.021 422.439 235.535 422.487 235.047Z"
        fill="#240F00" />
    <path
        d="M74.6361 288.515C87.0435 227.839 146.352 193.575 174.449 187.428C171.387 158.249 159.415 160.477 135.45 165.886C51.7169 184.784 32.3863 255.767 30.1128 291.666C60.3975 294.958 72.5909 294.369 74.6361 288.515Z"
        fill="#351700" />
    <ellipse cx="52.6808" cy="290.101" rx="22.7138" ry="11" transform="rotate(-4.65537 52.6808 290.101)"
        fill="#451E00" />
    <path opacity="0.6" fill-rule="evenodd" clip-rule="evenodd"
        d="M75.0124 286.748C88.1974 227.174 146.626 193.515 174.449 187.428C175.896 180.189 155.161 184.173 132.237 193.009C73.3032 215.726 54.8999 247.318 52.6264 283.217C52.7146 283.226 52.8024 283.236 52.8899 283.246C52.5686 289.371 52.4739 297.467 53.5736 301.065C66.0767 300.047 75.8127 294.313 75.3196 288.258C75.2779 287.745 75.1744 287.241 75.0124 286.748Z"
        fill="#240F00" />
    <path
        d="M116.372 317.309C102.614 256.925 142.479 201.226 165.53 184.024C150.691 158.714 140.708 165.687 121.115 180.511C52.6606 232.302 64.3692 304.932 77.1238 338.565C106.065 329.057 116.927 323.484 116.372 317.309Z"
        fill="#351700" />
    <ellipse cx="97.0313" cy="327.82" rx="22.7138" ry="11" transform="rotate(-29.047 97.0313 327.82)" fill="#451E00" />
    <path opacity="0.6" fill-rule="evenodd" clip-rule="evenodd"
        d="M115.985 315.544C103.39 255.842 142.704 201.058 165.53 184.024C163.858 176.834 146.619 189.025 129.39 206.54C85.0983 251.567 81.384 287.939 94.1386 321.573C94.2229 321.545 94.3069 321.518 94.3905 321.49C96.6273 327.201 99.8846 334.614 102.372 337.437C113.339 331.346 119.838 322.103 116.888 316.792C116.638 316.342 116.336 315.926 115.985 315.544Z"
        fill="#240F00" />
    <path
        d="M159.136 328.436C144.329 268.301 183.217 211.916 205.965 194.316C190.687 169.268 180.827 176.414 161.495 191.576C93.9535 244.552 106.926 316.967 120.264 350.373C149.035 340.362 159.798 334.601 159.136 328.436Z"
        fill="#351700" />
    <ellipse cx="139.981" cy="339.283" rx="22.7138" ry="11" transform="rotate(-30.0451 139.981 339.283)"
        fill="#451E00" />
    <path opacity="0.6" fill-rule="evenodd" clip-rule="evenodd"
        d="M158.718 326.678C145.086 267.205 183.439 211.744 205.965 194.315C204.168 187.155 187.144 199.645 170.223 217.457C126.722 263.249 123.642 299.68 136.98 333.087C137.064 333.057 137.148 333.028 137.231 333C139.567 338.671 142.953 346.026 145.489 348.805C156.348 342.524 162.685 333.169 159.643 327.91C159.386 327.465 159.076 327.054 158.718 326.678Z"
        fill="#240F00" />
    <path
        d="M196.852 336.423C172.061 279.669 200.825 217.507 220.258 196.304C200.954 174.209 192.449 182.924 175.968 201.145C118.388 264.807 143.453 333.974 162.263 364.634C188.92 349.889 198.55 342.386 196.852 336.423Z"
        fill="#351700" />
    <ellipse cx="179.814" cy="350.361" rx="22.7138" ry="11" transform="rotate(-39.8085 179.814 350.361)"
        fill="#451E00" />
    <path opacity="0.6" fill-rule="evenodd" clip-rule="evenodd"
        d="M196.142 334.761C172.621 278.461 201.014 217.3 220.258 196.304C217.273 189.551 202.614 204.747 188.958 225.171C153.853 277.677 156.995 314.103 175.806 344.763C175.883 344.72 175.961 344.678 176.038 344.635C179.302 349.828 183.886 356.502 186.856 358.811C196.493 350.78 201.152 340.486 197.262 335.819C196.933 335.424 196.558 335.071 196.142 334.761Z"
        fill="#240F00" />
    <path
        d="M189 314C187.4 310.8 186.333 304.666 186 302C156.5 267.5 94.4 183.3 88 186.5C81.6 189.7 62.6667 208.333 58 213.5L82 229C79 239.5 80 257.5 88 261.5C94.4 264.7 109.333 265.166 116 265L118.5 281C119.333 283.666 122.7 289.4 129.5 291C136.3 292.6 147.667 290.333 152.5 289C152.1 293 156 304.666 158 310C167.2 314.4 182.5 314.5 189 314Z"
        fill="#220F01" />
    <path
        d="M97.4602 205.055C125.704 149.939 192.035 132.859 220.751 134.481C225.636 105.552 213.506 104.483 188.968 103.259C103.236 98.9796 65.5554 162.165 53.726 196.135C82.0145 207.438 93.9185 210.144 97.4602 205.055Z"
        fill="#351700" />
    <ellipse cx="75.8854" cy="200.688" rx="22.7138" ry="11" transform="rotate(10.9205 75.8854 200.688)"
        fill="#451E00" />
    <path opacity="0.6" fill-rule="evenodd" clip-rule="evenodd"
        d="M98.2975 203.453C126.995 149.608 192.315 132.874 220.751 134.481C224.089 127.897 203.046 126.167 178.591 128.523C115.721 134.581 89.511 160.071 77.6816 194.041C77.764 194.074 77.846 194.107 77.9277 194.14C75.9735 199.954 73.7084 207.727 73.8015 211.488C86.1188 213.865 97.037 210.956 98.1879 204.991C98.2853 204.486 98.3211 203.972 98.2975 203.453Z"
        fill="#240F00" />
    <path
        d="M129.932 243.998C132.894 182.137 186.25 139.189 213.073 128.808C205.575 100.443 194.087 104.479 171.233 113.497C91.3859 145.005 83.1623 218.112 86.4174 253.935C116.849 252.547 128.808 250.096 129.932 243.998Z"
        fill="#351700" />
    <ellipse cx="108.479" cy="248.93" rx="22.7138" ry="11" transform="rotate(-13.4711 108.479 248.93)" fill="#451E00" />
    <path opacity="0.6" fill-rule="evenodd" clip-rule="evenodd"
        d="M130.033 242.194C133.932 181.303 186.512 139.087 213.073 128.808C213.394 121.432 193.514 128.547 172.215 140.793C117.459 172.273 104.115 206.312 107.37 242.135C107.459 242.131 107.547 242.127 107.635 242.123C108.256 248.225 109.403 256.24 111.042 259.627C123.241 256.705 131.983 249.547 130.568 243.639C130.448 243.139 130.268 242.656 130.033 242.194Z"
        fill="#240F00" />
    <path
        d="M168.138 266.199C170.021 204.296 222.622 160.425 249.26 149.579C241.269 121.348 229.852 125.584 207.159 134.999C127.873 167.893 120.924 241.132 124.803 276.893C155.206 274.975 167.12 272.316 168.138 266.199Z"
        fill="#351700" />
    <ellipse cx="146.774" cy="271.505" rx="22.7138" ry="11" transform="rotate(-14.4692 146.774 271.505)"
        fill="#451E00" />
    <path opacity="0.6" fill-rule="evenodd" clip-rule="evenodd"
        d="M168.207 264.393C171.045 203.444 222.882 160.319 249.26 149.578C249.452 142.198 229.7 149.658 208.617 162.273C154.418 194.703 141.668 228.969 145.547 264.73C145.636 264.724 145.724 264.719 145.812 264.714C146.539 270.804 147.826 278.797 149.523 282.156C161.669 279.021 170.285 271.712 168.767 265.829C168.639 265.331 168.451 264.852 168.207 264.393Z"
        fill="#240F00" />
    <path
        d="M202.324 284.02C193.683 222.694 238.082 170.538 262.494 155.332C249.832 128.866 239.299 134.976 218.531 148.103C145.972 193.966 151.543 267.322 161.43 301.908C191.067 294.862 202.358 290.22 202.324 284.02Z"
        fill="#351700" />
    <ellipse cx="182.169" cy="292.871" rx="22.7138" ry="11" transform="rotate(-24.2326 182.169 292.871)"
        fill="#451E00" />
    <path opacity="0.6" fill-rule="evenodd" clip-rule="evenodd"
        d="M202.086 282.229C194.547 221.681 238.32 170.39 262.494 155.332C261.432 148.026 243.231 158.727 224.593 174.735C176.678 215.886 169.924 251.818 179.811 286.403C179.897 286.383 179.983 286.362 180.069 286.342C181.819 292.221 184.442 299.88 186.684 302.902C198.123 297.753 205.375 289.088 202.881 283.549C202.67 283.08 202.404 282.639 202.086 282.229Z"
        fill="#240F00" />
    <path
        d="M130.5 116C133.3 114.4 142.667 111.666 147 110.5L209.5 217C204.3 223.4 201.667 244 201 253.5C186 252 170.5 242.5 168 237.5C166 233.5 179.5 205.333 186.5 195C165 197 154.5 184.5 152 178.5C150 173.7 155.667 164.166 160 157C134 147.8 129.5 125.833 130.5 116Z"
        fill="#220F01" />
    <path
        d="M176.661 144.909C224.468 105.539 292.128 116.2 317.839 129.092C333.81 104.48 323.101 98.6833 301.067 87.8161C224.081 49.8475 164.41 92.8767 140.064 119.357C161.539 140.963 171.39 148.174 176.661 144.909Z"
        fill="#351700" />
    <ellipse cx="158.594" cy="132.334" rx="22.7138" ry="11" transform="rotate(34.3155 158.594 132.334)"
        fill="#451E00" />
    <path opacity="0.6" fill-rule="evenodd" clip-rule="evenodd"
        d="M178.066 143.771C225.784 105.747 292.379 116.326 317.839 129.092C323.517 124.374 304.891 114.431 281.51 106.883C221.404 87.4799 187.227 100.467 162.882 126.947C162.945 127.01 163.007 127.073 163.069 127.135C158.967 131.695 153.801 137.93 152.393 141.419C162.754 148.491 173.93 150.157 177.355 145.139C177.645 144.714 177.882 144.257 178.066 143.771Z"
        fill="#240F00" />
    <path
        d="M194.177 184.693C237.436 140.373 305.852 143.639 332.808 153.668C346.018 127.471 334.744 122.869 311.662 114.453C231.015 85.0517 176.358 134.295 155.026 163.257C178.716 182.409 189.29 188.509 194.177 184.693Z"
        fill="#351700" />
    <ellipse cx="174.853" cy="174.15" rx="22.7138" ry="11" transform="rotate(28.0938 174.853 174.15)" fill="#451E00" />
    <path opacity="0.6" fill-rule="evenodd" clip-rule="evenodd"
        d="M195.45 183.41C238.766 140.438 306.115 143.737 332.809 153.668C337.942 148.363 318.348 140.497 294.287 135.528C232.432 122.753 199.864 139.367 178.532 168.33C178.601 168.386 178.67 168.441 178.738 168.497C175.154 173.474 170.695 180.232 169.673 183.854C180.74 189.761 192.03 190.205 194.891 184.846C195.133 184.392 195.319 183.912 195.45 183.41Z"
        fill="#240F00" />
    <path
        d="M211 233.5C240.6 179.1 307.333 163.667 336 166C341.6 137.2 329.5 135.832 305 134C219.4 127.6 180.166 189.833 167.5 223.5C195.5 235.5 207.333 238.5 211 233.5Z"
        fill="#351700" />
    <ellipse cx="189.539" cy="228.6" rx="22.7138" ry="11" transform="rotate(12.3391 189.539 228.6)" fill="#451E00" />
    <path opacity="0.6" fill-rule="evenodd" clip-rule="evenodd"
        d="M211.876 231.919C241.898 178.801 307.613 163.689 336 166C339.5 159.5 318.506 157.249 294 159C231 163.5 204.166 188.333 191.5 222C191.581 222.035 191.663 222.07 191.743 222.105C189.646 227.868 187.189 235.583 187.189 239.346C199.444 242.026 210.43 239.388 211.729 233.454C211.839 232.951 211.887 232.438 211.876 231.919Z"
        fill="#240F00" />
</svg>