<svg width="1663" height="1881" viewBox="0 0 1663 1881" fill="none" xmlns="http://www.w3.org/2000/svg">
    <mask id="mask0_8_377" style="mask-type:alpha" maskUnits="userSpaceOnUse" x="1139" y="437" width="528" height="778">
        <path
            d="M1328.83 793.155C1306.24 625.119 1222.15 502.645 1139 487.493L1506.12 437.333L1666.14 1003.2L1468.46 1214.81C1481.01 1114.49 1385.84 1031.94 1336.68 1003.2C1342.95 961.818 1334.06 845.928 1328.83 793.155Z"
            fill="#C4C4C4" />
    </mask>
    <g mask="url(#mask0_8_377)">
        <path
            d="M1432.25 936.459C1412.23 766.454 1256.5 675.738 1180.35 661.226C1195.66 578.559 1228.19 583.637 1293.11 596.482C1519.9 641.362 1556.62 839.758 1554.46 940.853C1470.06 953.205 1436.52 952.773 1432.25 936.459Z"
            fill="#351700" />
        <ellipse cx="60.994" cy="31.9689" rx="60.994" ry="31.9689"
            transform="matrix(-1.0179 -0.0477995 -0.157656 0.970797 1559.63 910.597)" fill="#451E00" />
        <path opacity="0.6" fill-rule="evenodd" clip-rule="evenodd"
            d="M1431.63 931.507C1409.2 764.692 1255.75 675.596 1180.35 661.226C1178.05 640.94 1234.38 650.089 1295.61 672.714C1453.02 730.877 1496.43 818.185 1494.28 919.28C1494.03 919.316 1493.78 919.352 1493.54 919.388C1492.99 936.643 1491.35 959.485 1487.47 969.752C1453.18 968.142 1427.64 952.941 1430.42 935.801C1430.66 934.35 1431.06 932.915 1431.63 931.507Z"
            fill="#240F00" />
        <path
            d="M1356.83 991.187C1341.67 818.381 1190.45 721.336 1115.71 704.105C1133.04 620.91 1165.01 627.136 1228.71 642.305C1451.28 695.305 1482.15 897.415 1477.3 999.708C1393.68 1009.4 1360.61 1007.85 1356.83 991.187Z"
            fill="#351700" />
        <ellipse cx="60.5048" cy="32.186" rx="60.5048" ry="32.186"
            transform="matrix(-1.01119 -0.082979 -0.180541 0.971142 1483.22 969.244)" fill="#451E00" />
        <path opacity="0.6" fill-rule="evenodd" clip-rule="evenodd"
            d="M1356.35 986.153C1338.73 816.495 1189.72 721.167 1115.71 704.105C1113.99 683.487 1169.32 694.628 1229.12 719.577C1382.88 783.715 1423.35 873.566 1418.49 975.858C1418.25 975.887 1418.01 975.915 1417.77 975.943C1416.76 993.397 1414.52 1016.47 1410.41 1026.74C1376.63 1023.96 1351.83 1007.72 1355.04 990.46C1355.32 988.998 1355.75 987.56 1356.35 986.153Z"
            fill="#240F00" />
        <path
            d="M1287.95 1115.75C1319.33 939.663 1204.13 800.271 1139.09 761.927C1177.13 684.145 1205.25 699.408 1260.55 732.568C1453.76 848.428 1429.29 1058.1 1397.84 1158.41C1317.46 1144.32 1287.08 1133.38 1287.95 1115.75Z"
            fill="#351700" />
        <ellipse cx="59.95" cy="32.4296" rx="59.95" ry="32.4296"
            transform="matrix(-0.927863 -0.37292 -0.420529 0.907279 1411.37 1129.81)" fill="#451E00" />
        <path opacity="0.6" fill-rule="evenodd" clip-rule="evenodd"
            d="M1288.83 1110.61C1317.09 936.953 1203.49 799.897 1139.09 761.927C1142.92 740.943 1191.49 767.723 1240.59 809.5C1366.81 916.899 1380.83 1017.7 1349.38 1118.01C1349.15 1117.97 1348.91 1117.93 1348.68 1117.89C1343.15 1134.96 1334.99 1157.26 1328.47 1166.3C1297.75 1153.95 1278.95 1130.77 1286.48 1114.52C1287.12 1113.14 1287.9 1111.84 1288.83 1110.61Z"
            fill="#240F00" />
        <path opacity="0.5"
            d="M1528.02 785.825C1528.69 780.698 1514.29 753.753 1507.01 740.921L1399.62 781.777L1307.55 872.932C1309.51 907.947 1320.06 980.68 1346.59 991.491C1373.11 1002.3 1401.6 998.262 1417.98 994.259C1424.59 985.918 1435.79 916.448 1428.2 851.052C1465.6 846.716 1527.19 792.234 1528.02 785.825Z"
            fill="#220F01" />
        <path
            d="M1441.84 738.994C1411.75 570.477 1250.9 489.159 1174.02 479.191C1184.39 395.761 1217.17 398.9 1282.74 407.872C1511.8 439.218 1560.24 635.086 1564.1 736.13C1480.57 753.468 1447.07 755.026 1441.84 738.994Z"
            fill="#351700" />
        <ellipse cx="60.9944" cy="31.9686" rx="60.9944" ry="31.9686"
            transform="matrix(-1.01893 0.0126705 -0.0996865 0.978446 1567.46 705.62)" fill="#451E00" />
        <path opacity="0.6" fill-rule="evenodd" clip-rule="evenodd"
            d="M1440.92 734.088C1408.62 568.897 1250.15 489.061 1174.02 479.19C1170.53 459.076 1227.3 464.868 1289.76 483.82C1450.36 532.542 1498.87 617.121 1502.73 718.165C1502.49 718.216 1502.25 718.266 1502 718.317C1502.48 735.574 1502.2 758.473 1498.94 768.952C1464.61 769.379 1438.21 755.721 1439.97 738.446C1440.12 736.983 1440.44 735.527 1440.92 734.088Z"
            fill="#240F00" />
        <path
            d="M1369.8 798.099C1344.4 626.497 1187.68 538.595 1112.04 525.829C1124.41 441.751 1156.69 446.07 1221.18 457.434C1446.5 497.136 1489.33 697.059 1490.57 799.458C1407.67 814.098 1374.56 814.508 1369.8 798.099Z"
            fill="#351700" />
        <ellipse cx="60.5053" cy="32.1856" rx="60.5053" ry="32.1856"
            transform="matrix(-1.01433 -0.0228446 -0.122511 0.980151 1494.66 768.698)" fill="#451E00" />
        <path opacity="0.6" fill-rule="evenodd" clip-rule="evenodd"
            d="M1369.02 793.102C1341.35 624.79 1186.94 538.47 1112.04 525.828C1109.1 505.349 1165 513.188 1226.18 534.545C1383.47 589.449 1429.21 676.74 1430.45 779.14C1430.2 779.183 1429.96 779.225 1429.72 779.268C1429.75 796.751 1428.9 819.917 1425.41 830.409C1391.51 829.645 1365.8 814.902 1367.98 797.48C1368.16 796.004 1368.51 794.542 1369.02 793.102Z"
            fill="#240F00" />
        <path
            d="M1289.62 926.528C1310.48 748.891 1187.2 616.579 1120 582.161C1153.35 502.259 1182.32 515.828 1239.5 545.649C1439.25 649.842 1427.28 860.6 1401.85 962.598C1320.77 953.296 1289.8 944.183 1289.62 926.528Z"
            fill="#351700" />
        <ellipse cx="59.952" cy="32.4284" rx="59.952" ry="32.4284"
            transform="matrix(-0.948356 -0.317207 -0.365883 0.930661 1413.66 933.243)" fill="#451E00" />
        <path opacity="0.6" fill-rule="evenodd" clip-rule="evenodd"
            d="M1290.19 921.343C1308.08 746.319 1186.54 616.243 1120 582.161C1122.57 560.987 1172.65 584.838 1224.14 623.629C1356.53 723.35 1376.51 823.146 1351.08 925.145C1350.84 925.117 1350.61 925.091 1350.37 925.064C1345.86 942.426 1339.05 965.174 1333.07 974.585C1301.67 964.082 1281.53 942.056 1288.08 925.388C1288.63 923.977 1289.34 922.626 1290.19 921.343Z"
            fill="#240F00" />
        <path opacity="0.5"
            d="M1474.74 501.6L1455.91 482.79V468.682L1368.05 495.33L1239.41 670.89L1322.56 779.048C1379.04 789.08 1425.58 769.643 1441.79 758.67L1402.57 612.893C1441.79 603.488 1446.5 564.3 1448.07 558.03C1449.32 553.014 1441.27 533.995 1437.08 525.112C1445.87 521.35 1465.85 507.87 1474.74 501.6Z"
            fill="#220F01" />
    </g>
    <path
        d="M1357.97 513.667C1252.66 378.645 1072.41 381.714 999.763 408.737C969.971 330.113 1000.43 317.606 1062.61 294.976C1279.84 215.911 1414.16 366.566 1464.76 454.137C1398.99 508.41 1370.08 525.407 1357.97 513.667Z"
        fill="#351700" />
    <ellipse cx="60.9839" cy="31.9732" rx="60.9839" ry="31.9732"
        transform="matrix(-0.895446 0.486322 0.36873 0.911742 1453.49 425.584)" fill="#451E00" />
    <path opacity="0.6" fill-rule="evenodd" clip-rule="evenodd"
        d="M1354.86 509.756C1249.15 378.707 1071.7 381.977 999.763 408.737C987.275 392.577 1040.19 371.234 1104.29 358.873C1269.09 327.097 1351.5 379.286 1402.1 466.856C1401.91 467.014 1401.72 467.172 1401.53 467.329C1410.01 482.371 1420.45 502.754 1422.46 513.545C1392.3 529.925 1362.57 530.151 1356.06 514.051C1355.51 512.688 1355.11 511.252 1354.86 509.756Z"
        fill="#240F00" />
    <path
        d="M1321.86 599.527C1219.25 459.595 1039.58 454.912 966.725 478.883C938.393 398.756 968.961 387.526 1031.31 367.511C1249.14 297.577 1380.39 454.436 1429.3 544.429C1362.82 596.022 1333.73 611.821 1321.86 599.527Z"
        fill="#351700" />
    <ellipse cx="60.4961" cy="32.1894" rx="60.4961" ry="32.1894"
        transform="matrix(-0.907941 0.452747 0.349351 0.923912 1418.56 515.312)" fill="#451E00" />
    <path opacity="0.6" fill-rule="evenodd" clip-rule="evenodd"
        d="M1318.83 595.472C1215.75 459.506 1038.87 455.146 966.724 478.883C954.559 462.14 1007.66 443.015 1071.75 433.38C1236.51 408.61 1317.73 464.493 1366.64 554.486C1366.45 554.636 1366.25 554.786 1366.06 554.935C1374.25 570.384 1384.31 591.274 1386.13 602.181C1355.79 617.308 1326.16 616.256 1319.95 599.831C1319.43 598.44 1319.06 596.983 1318.83 595.472Z"
        fill="#240F00" />
    <path
        d="M1327.57 741.722C1263.06 574.882 1092.23 515.333 1016.72 516.22C1008.9 430.003 1040.86 428.496 1105.36 428.217C1330.7 427.244 1418.54 619.233 1443.68 721.302C1367.62 750.874 1335.97 757.255 1327.57 741.722Z"
        fill="#351700" />
    <ellipse cx="59.9559" cy="32.425" rx="59.9559" ry="32.425"
        transform="matrix(-0.986863 0.16156 0.111038 0.993816 1440.41 689.835)" fill="#451E00" />
    <path opacity="0.6" fill-rule="evenodd" clip-rule="evenodd"
        d="M1325.65 736.872C1259.74 573.726 1091.49 515.342 1016.72 516.22C1009.11 496.293 1064.54 494.044 1128.2 504.345C1291.86 530.827 1356.14 609.778 1381.28 711.847C1381.06 711.933 1380.84 712.019 1380.62 712.105C1384.74 729.563 1389.33 752.86 1388.44 763.97C1355.76 769.32 1327.66 759.229 1325.67 741.432C1325.51 739.925 1325.5 738.402 1325.65 736.872Z"
        fill="#240F00" />
    <path
        d="M234.188 904.495C273.12 714.276 459.214 606.858 547.375 587.587C537.766 496.11 500.203 503.095 425.005 520.052C162.274 579.299 101.62 801.83 94.4861 914.373C189.511 924.694 227.771 922.845 234.188 904.495Z"
        fill="#351700" />
    <ellipse cx="71.2694" cy="34.4852" rx="71.2694" ry="34.4852"
        transform="matrix(0.996707 -0.0810919 0.0812325 0.996695 91.4624 880.876)" fill="#451E00" />
    <path opacity="0.6" fill-rule="evenodd" clip-rule="evenodd"
        d="M235.369 898.953C276.74 712.189 460.074 606.67 547.375 587.586C551.916 564.891 486.855 577.381 414.925 605.084C230.006 676.302 172.261 775.342 165.128 887.885C165.405 887.915 165.68 887.945 165.955 887.975C164.946 907.177 164.649 932.558 168.1 943.839C207.331 940.647 237.88 922.671 236.333 903.688C236.202 902.081 235.878 900.499 235.369 898.953Z"
        fill="#240F00" />
    <path
        d="M365.144 994.763C321.977 805.459 447.062 630.844 519.389 576.917C472.828 497.569 441.504 519.43 380.027 565.901C165.235 728.265 201.973 955.961 241.994 1061.4C332.804 1031.59 366.885 1014.12 365.144 994.763Z"
        fill="#351700" />
    <ellipse cx="71.2551" cy="34.4921" rx="71.2551" ry="34.4921"
        transform="matrix(0.874402 -0.485203 0.48585 0.874042 225.395 1032.14)" fill="#451E00" />
    <path opacity="0.6" fill-rule="evenodd" clip-rule="evenodd"
        d="M363.929 989.229C324.412 802.064 447.768 630.318 519.389 576.916C514.144 554.373 460.052 592.593 405.993 647.502C267.016 788.663 255.362 902.69 295.382 1008.13C295.647 1008.04 295.91 1007.96 296.173 1007.87C303.191 1025.78 313.411 1049.01 321.216 1057.86C355.627 1038.77 376.019 1009.79 366.764 993.143C365.98 991.733 365.031 990.427 363.929 989.229Z"
        fill="#240F00" />
    <path
        d="M499.327 1029.65C452.865 841.123 574.887 664.357 646.262 609.179C598.325 530.654 567.387 553.057 506.73 600.591C294.801 766.669 335.504 993.691 377.357 1098.42C467.633 1067.03 501.404 1048.97 499.327 1029.65Z"
        fill="#351700" />
    <ellipse cx="71.2542" cy="34.4925" rx="71.2542" ry="34.4925"
        transform="matrix(0.865821 -0.500355 0.501009 0.865442 360.25 1069.45)" fill="#451E00" />
    <path opacity="0.6" fill-rule="evenodd" clip-rule="evenodd"
        d="M498.015 1024.13C455.241 837.686 575.583 663.819 646.262 609.179C640.626 586.73 587.208 625.886 534.114 681.728C397.62 825.286 387.955 939.498 429.808 1044.23C430.071 1044.13 430.333 1044.04 430.594 1043.95C437.924 1061.73 448.548 1084.79 456.506 1093.5C490.578 1073.81 510.462 1044.49 500.918 1028C500.11 1026.6 499.138 1025.31 498.015 1024.13Z"
        fill="#240F00" />
    <path
        d="M617.669 1054.69C539.883 876.764 630.136 681.884 691.111 615.412C630.541 546.147 603.853 573.466 552.142 630.589C371.471 830.17 450.117 1047.01 509.139 1143.13C592.78 1096.9 622.997 1073.38 617.669 1054.69Z"
        fill="#351700" />
    <ellipse cx="71.2443" cy="34.4973" rx="71.2443" ry="34.4973"
        transform="matrix(0.768463 -0.639895 0.640553 0.767914 487.363 1117.48)" fill="#451E00" />
    <path opacity="0.6" fill-rule="evenodd" clip-rule="evenodd"
        d="M615.441 1049.48C541.64 872.975 630.73 681.236 691.111 615.412C681.746 594.244 635.748 641.883 592.901 705.912C482.749 870.517 492.61 984.712 551.632 1080.83C551.875 1080.7 552.118 1080.56 552.36 1080.43C562.601 1096.71 576.985 1117.63 586.306 1124.87C616.543 1099.69 631.161 1067.42 618.957 1052.79C617.924 1051.55 616.747 1050.45 615.441 1049.48Z"
        fill="#240F00" />
    <path
        d="M593.032 984.389C588.012 974.357 584.665 955.129 583.619 946.769C491.056 838.612 296.202 574.645 276.121 584.677C256.039 594.709 196.632 653.125 181.989 669.322L257.294 717.914C247.881 750.832 251.019 807.262 276.121 819.802C296.202 829.834 343.059 831.297 363.977 830.774L371.822 880.934C374.437 889.294 385 907.268 406.337 912.284C427.674 917.3 463.339 910.194 478.505 906.014C477.25 918.554 489.487 955.129 495.762 971.849C524.63 985.643 572.637 985.957 593.032 984.389Z"
        fill="#220F01" />
    <path
        d="M305.805 642.848C394.427 470.059 602.556 416.511 692.658 421.599C707.987 330.905 669.926 327.555 592.932 323.715C323.927 310.301 205.695 508.388 168.578 614.883C257.34 650.319 294.691 658.803 305.805 642.848Z"
        fill="#351700" />
    <ellipse cx="71.2675" cy="34.4861" rx="71.2675" ry="34.4861"
        transform="matrix(0.981922 0.189288 -0.189607 0.98186 174.668 581.805)" fill="#451E00" />
    <path opacity="0.6" fill-rule="evenodd" clip-rule="evenodd"
        d="M308.431 637.826C398.476 469.02 603.435 416.561 692.658 421.599C703.132 400.956 637.104 395.532 560.37 402.92C363.103 421.913 280.862 501.824 243.744 608.32C244.003 608.423 244.26 608.526 244.516 608.629C238.385 626.855 231.277 651.224 231.57 663.016C270.218 670.467 304.476 661.346 308.088 642.646C308.393 641.062 308.506 639.452 308.431 637.826Z"
        fill="#240F00" />
    <path
        d="M407.692 764.934C416.985 571 584.405 436.356 668.567 403.813C645.041 314.889 608.993 327.542 537.284 355.814C286.745 454.591 260.941 683.781 271.155 796.087C366.641 791.735 404.165 784.05 407.692 764.934Z"
        fill="#351700" />
    <ellipse cx="71.2664" cy="34.4866" rx="71.2664" ry="34.4866"
        transform="matrix(0.972534 -0.232762 0.233147 0.972442 263.029 763.448)" fill="#451E00" />
    <path opacity="0.6" fill-rule="evenodd" clip-rule="evenodd"
        d="M408.009 759.277C420.243 568.384 585.226 436.039 668.568 403.813C669.574 380.691 607.197 402.995 540.366 441.385C368.557 540.077 326.686 646.789 336.899 759.094C337.177 759.082 337.454 759.069 337.73 759.057C339.679 778.186 343.279 803.314 348.419 813.932C386.697 804.771 414.128 782.329 409.688 763.808C409.312 762.24 408.748 760.727 408.009 759.277Z"
        fill="#240F00" />
    <path
        d="M527.571 834.535C533.482 640.469 698.529 502.932 782.111 468.929C757.038 380.427 721.216 393.706 650.011 423.222C401.232 526.345 379.428 755.949 391.599 868.06C486.994 862.047 524.379 853.71 527.571 834.535Z"
        fill="#351700" />
    <ellipse cx="71.2659" cy="34.4869" rx="71.2659" ry="34.4869"
        transform="matrix(0.968335 -0.249656 0.250064 0.968229 382.905 835.567)" fill="#451E00" />
    <path opacity="0.6" fill-rule="evenodd" clip-rule="evenodd"
        d="M527.79 828.873C536.694 637.796 699.344 502.6 782.111 468.928C782.715 445.792 720.736 469.179 654.585 508.726C484.522 610.393 444.518 717.818 456.688 829.928C456.966 829.911 457.242 829.894 457.518 829.877C459.8 848.969 463.838 874.03 469.162 884.558C507.275 874.731 534.31 851.816 529.547 833.375C529.144 831.813 528.554 830.31 527.79 828.873Z"
        fill="#240F00" />
    <path
        d="M634.839 890.403C607.726 698.147 747.037 534.637 823.638 486.965C783.907 403.993 750.857 423.15 685.694 464.302C458.021 608.082 475.503 838.056 506.525 946.48C599.519 924.392 634.947 909.841 634.839 890.403Z"
        fill="#351700" />
    <ellipse cx="71.2593" cy="34.4901" rx="71.2593" ry="34.4901"
        transform="matrix(0.912021 -0.410145 0.41074 0.911752 492.442 915.932)" fill="#451E00" />
    <path opacity="0.6" fill-rule="evenodd" clip-rule="evenodd"
        d="M634.093 884.787C610.437 694.969 747.784 534.172 823.638 486.965C820.306 464.061 763.194 497.61 704.713 547.793C554.369 676.802 533.177 789.449 564.2 897.874C564.47 897.809 564.74 897.745 565.009 897.682C570.499 916.111 578.731 940.125 585.765 949.598C621.658 933.456 644.413 906.292 636.589 888.925C635.926 887.454 635.09 886.073 634.093 884.787Z"
        fill="#240F00" />
    <path
        d="M409.474 363.659C418.26 358.643 447.65 350.074 461.247 346.417L657.355 680.294C641.039 700.358 632.776 764.939 630.685 794.722C583.618 790.019 534.984 760.237 527.139 744.562C520.864 732.022 563.223 643.719 585.187 611.324C517.726 617.594 484.78 578.407 476.935 559.597C470.66 544.549 488.441 514.662 502.037 492.194C420.456 463.352 406.337 394.487 409.474 363.659Z"
        fill="#220F01" />
    <path
        d="M554.317 454.29C704.323 330.865 916.621 364.289 997.294 404.704C1047.41 327.546 1013.81 309.372 944.667 275.303C703.109 156.272 515.874 291.168 439.485 374.184C506.867 441.92 537.777 464.524 554.317 454.29Z"
        fill="#351700" />
    <ellipse cx="71.2501" cy="34.4946" rx="71.2501" ry="34.4946"
        transform="matrix(0.826174 0.563414 -0.564085 0.825716 458.22 346.241)" fill="#451E00" />
    <path opacity="0.6" fill-rule="evenodd" clip-rule="evenodd"
        d="M558.723 450.723C708.451 331.517 917.409 364.683 997.295 404.704C1015.11 389.913 956.666 358.74 883.305 335.079C694.707 274.25 587.47 314.964 511.081 397.98C511.277 398.177 511.472 398.374 511.667 398.57C498.796 412.865 482.588 432.411 478.17 443.35C510.68 465.52 545.746 470.741 556.493 455.01C557.402 453.678 558.145 452.245 558.723 450.723Z"
        fill="#240F00" />
    <path
        d="M609.276 579.011C745.01 440.07 959.684 450.309 1044.27 481.751C1085.71 399.622 1050.34 385.193 977.912 358.811C724.865 266.637 553.366 421.013 486.431 511.811C560.764 571.852 593.943 590.976 609.276 579.011Z"
        fill="#351700" />
    <ellipse cx="71.256" cy="34.4917" rx="71.256" ry="34.4917"
        transform="matrix(0.882348 0.470597 -0.471236 0.882007 502.025 482.005)" fill="#451E00" />
    <path opacity="0.6" fill-rule="evenodd" clip-rule="evenodd"
        d="M613.27 574.989C749.185 440.272 960.509 450.616 1044.27 481.751C1060.37 465.118 998.891 440.457 923.396 424.879C729.311 384.83 627.121 436.917 560.187 527.715C560.403 527.89 560.618 528.064 560.833 528.238C549.588 543.842 535.596 565.029 532.391 576.381C567.114 594.901 602.54 596.294 611.517 579.492C612.277 578.069 612.86 576.564 613.27 574.989Z"
        fill="#240F00" />
    <path
        d="M662.061 732.022C754.938 561.478 964.33 513.095 1054.28 520.41C1071.85 430.122 1033.88 425.832 957.009 420.09C688.418 400.026 565.314 595.127 525.57 700.672C613.426 738.292 650.556 747.697 662.061 732.022Z"
        fill="#351700" />
    <ellipse cx="71.267" cy="34.4864" rx="71.267" ry="34.4864"
        transform="matrix(0.976939 0.213519 -0.213875 0.976861 532.477 667.755)" fill="#451E00" />
    <path opacity="0.6" fill-rule="evenodd" clip-rule="evenodd"
        d="M664.812 727.067C759.011 560.54 965.208 513.166 1054.28 520.41C1065.26 500.032 999.387 492.977 922.494 498.465C724.816 512.572 640.621 590.425 600.876 695.97C601.132 696.079 601.386 696.189 601.64 696.298C595.059 714.367 587.35 738.553 587.35 750.348C625.802 758.752 660.275 750.482 664.349 731.877C664.694 730.301 664.846 728.694 664.812 727.067Z"
        fill="#240F00" />
</svg>