<svg width="530" height="638" viewBox="0 0 530 638" fill="none" xmlns="http://www.w3.org/2000/svg">
    <path fill-rule="evenodd" clip-rule="evenodd"
        d="M119.005 38.1357C119.002 37.9242 119 37.7123 119 37.5C119 16.7893 135.789 0 156.5 0C170.77 0 183.179 7.97097 189.516 19.7034C196.394 11.3364 206.824 6 218.5 6C239.211 6 256 22.7893 256 43.5C256 45.4441 255.852 47.3536 255.567 49.218C274.365 51.2452 289 67.1634 289 86.5C289 105.654 274.639 121.454 256.097 123.721C252.902 167.985 218.828 202.822 177.263 202.822C151.679 202.822 128.932 189.623 114.478 169.15C111.907 169.707 109.238 170 106.5 170C85.7893 170 69 153.211 69 132.5C69 120.528 74.6105 109.866 83.3457 103C74.6105 96.1343 69 85.4723 69 73.5C69 52.7893 85.7893 36 106.5 36C110.885 36 115.094 36.7526 119.005 38.1357Z"
        fill="#451E00" />
    <mask id="mask0_131_26" style="mask-type:alpha" maskUnits="userSpaceOnUse" x="69" y="0" width="220" height="203">
        <path fill-rule="evenodd" clip-rule="evenodd"
            d="M119.005 38.1357C119.002 37.9242 119 37.7123 119 37.5C119 16.7893 135.789 0 156.5 0C170.77 0 183.179 7.97097 189.516 19.7034C196.394 11.3364 206.824 6 218.5 6C239.211 6 256 22.7893 256 43.5C256 45.4441 255.852 47.3536 255.567 49.218C274.365 51.2452 289 67.1634 289 86.5C289 105.654 274.639 121.454 256.097 123.721C252.902 167.985 218.828 202.822 177.263 202.822C151.679 202.822 128.932 189.623 114.478 169.15C111.907 169.707 109.238 170 106.5 170C85.7893 170 69 153.211 69 132.5C69 120.528 74.6105 109.866 83.3457 103C74.6105 96.1343 69 85.4723 69 73.5C69 52.7893 85.7893 36 106.5 36C110.885 36 115.094 36.7526 119.005 38.1357Z"
            fill="#451E00" />
    </mask>
    <g mask="url(#mask0_131_26)">
        <g style="mix-blend-mode:multiply" opacity="0.5">
            <path
                d="M125 93.5C94.2 93.1 77.5 66 73 52.5L62 61L43 97.5L47.5 172L98 190.5C148 176.333 253.7 144.6 276.5 131C299.3 117.4 291.667 73.6667 287 61C283 91.5 238 131.5 216 131C194 130.5 125 128 119.5 117C115.1 108.2 121.333 97.6667 125 93.5Z"
                fill="#351700" />
            <path
                d="M141 52.5C135.8 43.7 124.5 39.5 119.5 38.5C115.572 24.5718 126.497 7.21589 134.34 -2.0379C135.093 -3.13753 135.976 -4.1308 137 -5C136.178 -4.14266 135.281 -3.14864 134.34 -2.0379C125.388 11.0316 134.697 39.1253 141 52.5Z"
                fill="#351700" />
            <path
                d="M192.5 33C192.1 22.6 189.667 17.3333 188.5 16C199.3 -6 226 0.833333 238 7C219.2 6.6 199.833 24.1667 192.5 33Z"
                fill="#351700" />
            <path d="M259.5 38.5C255.5 52.1 246.167 65.1667 242 70C262.4 68.4 270.167 54.3333 271.5 47.5L259.5 38.5Z"
                fill="#351700" />
        </g>
    </g>
    <g style="mix-blend-mode:multiply" opacity="0.3">
        <path
            d="M313.417 195.974C319.616 187.573 321.682 183.472 328.398 183.472C335.114 183.472 342.243 194.374 350.095 195.974C359.91 197.974 368.175 192.973 375.924 193.974C383.673 194.974 380.573 199.975 385.739 211.476C390.905 222.978 399.687 226.479 402.27 229.979C404.853 233.48 402.27 240.481 404.336 245.482C406.403 250.483 412.602 252.483 414.152 256.984C415.701 261.484 412.602 262.985 415.701 269.486C418.181 274.687 422.934 279.321 425 280.988L412.602 234.98C394.831 186.172 349.062 169.97 328.398 167.969C220.948 137.965 130.028 251.149 98 311.493L121 356C127.027 354.166 135.401 350.499 142.427 342.497C151.209 332.496 148.109 308.492 151.209 298.49C154.308 288.489 159.474 283.488 177.038 275.987C194.602 268.486 193.569 254.483 202.351 243.482C211.133 232.48 230.246 238.481 238.512 231.48C246.777 224.479 239.545 214.477 250.91 205.475C262.275 196.474 279.322 200.975 288.621 205.475C297.919 209.976 305.668 206.476 313.417 195.974Z"
            fill="#351700" />
    </g>
    <path
        d="M161.397 124.416C65.6804 156.658 21.5 264.5 54.4587 373C58.1254 361.333 70.0587 338.7 96.4587 341.5C100.792 342.5 112.359 347.5 123.959 359.5C161.397 164.5 317.529 167.048 363 185.5C407.358 203.5 418 273.5 420.543 283.368C422.14 284.989 424.667 283.671 424.607 281.299C420.43 121.021 265.985 89.1876 161.397 124.416Z"
        fill="#351700" />
    <path d="M232 119C253.333 128 299.8 150.4 315 168C307.333 151.667 280 119 232 119Z" fill="#2A1000" />
    <path d="M208 129C212.333 144.333 223.2 177.4 232 187C232.667 176.833 228.8 151 208 129Z" fill="#2A1000" />
    <path d="M174.5 133C173 149.667 173.8 188.5 189 210.5C174.667 200.833 151.7 171.8 174.5 133Z" fill="#2A1000" />
    <path
        d="M137 271.5C114.6 216.7 135.333 164.667 148.5 145.5C94.9001 212.3 111.833 273.667 127 296C119 283.2 118.667 258 119.5 247C119.9 258.6 131.333 268.167 137 271.5Z"
        fill="#2A1000" />
    <path d="M115.5 168C98.3334 196.833 70.9 266.9 98.5 316.5C80.6667 296.5 59.1 238.8 115.5 168Z" fill="#2A1000" />
    <path d="M290 125C310.167 131 355.1 150.3 373.5 179.5C365 163.333 336.4 129.8 290 125Z" fill="#2A1000" />
</svg>