<svg width="1663" height="2001" viewBox="0 0 1663 2001" fill="none" xmlns="http://www.w3.org/2000/svg">
    <path fill-rule="evenodd" clip-rule="evenodd"
        d="M373.407 120.425C373.396 119.762 373.391 119.098 373.391 118.432C373.391 53.5045 426.071 0.869995 491.056 0.869995C535.832 0.869995 574.767 25.859 594.652 62.6403C616.232 36.4097 648.958 19.68 685.595 19.68C750.58 19.68 803.26 72.3145 803.26 137.242C803.26 143.337 802.796 149.324 801.901 155.168C860.884 161.524 906.806 211.427 906.806 272.047C906.806 332.096 861.745 381.63 803.565 388.735C793.54 527.503 686.623 636.718 556.206 636.718C475.928 636.718 404.555 595.337 359.202 531.154C351.135 532.9 342.759 533.82 334.169 533.82C269.184 533.82 216.504 481.185 216.504 416.257C216.504 378.724 234.108 345.299 261.517 323.775C234.108 302.251 216.504 268.826 216.504 231.292C216.504 166.365 269.184 113.73 334.169 113.73C347.928 113.73 361.135 116.089 373.407 120.425Z"
        fill="#451E00" />
    <mask id="mask0_8_377" style="mask-type:alpha" maskUnits="userSpaceOnUse" x="216" y="0" width="691" height="637">
        <path fill-rule="evenodd" clip-rule="evenodd"
            d="M373.407 120.425C373.396 119.762 373.391 119.098 373.391 118.432C373.391 53.5045 426.071 0.869995 491.056 0.869995C535.832 0.869995 574.767 25.859 594.652 62.6403C616.232 36.4097 648.958 19.68 685.595 19.68C750.58 19.68 803.26 72.3145 803.26 137.242C803.26 143.337 802.796 149.324 801.901 155.168C860.884 161.524 906.806 211.427 906.806 272.047C906.806 332.096 861.745 381.63 803.565 388.735C793.54 527.503 686.623 636.718 556.206 636.718C475.928 636.718 404.555 595.337 359.202 531.154C351.135 532.9 342.759 533.82 334.169 533.82C269.184 533.82 216.504 481.185 216.504 416.257C216.504 378.724 234.108 345.299 261.517 323.775C234.108 302.251 216.504 268.826 216.504 231.292C216.504 166.365 269.184 113.73 334.169 113.73C347.928 113.73 361.135 116.089 373.407 120.425Z"
            fill="#451E00" />
    </mask>
    <g mask="url(#mask0_8_377)">
        <g style="mix-blend-mode:multiply" opacity="0.5">
            <path
                d="M392.217 293.992C295.575 292.738 243.174 207.78 229.055 165.457L194.54 192.105L134.923 306.532L149.042 540.09L307.498 598.087C464.385 553.675 796.044 454.191 867.584 411.555C939.124 368.919 915.173 231.815 900.53 192.105C887.979 287.722 746.781 413.122 677.751 411.555C608.721 409.987 392.217 402.15 374.959 367.665C361.153 340.077 380.712 307.055 392.217 293.992Z"
                fill="#351700" />
            <path
                d="M442.421 165.457C426.104 137.869 390.648 124.702 374.959 121.567C362.633 77.9026 396.913 23.4918 421.523 -5.51888C423.886 -8.96621 426.655 -12.0801 429.87 -14.8051C427.292 -12.1173 424.477 -9.00106 421.523 -5.51888C393.434 35.4541 422.644 123.528 442.421 165.457Z"
                fill="#351700" />
            <path
                d="M604.014 104.325C602.759 71.7209 595.124 55.2099 591.463 51.0299C625.351 -17.9401 709.128 3.48244 746.781 22.8149C687.792 21.5609 627.024 76.6324 604.014 104.325Z"
                fill="#351700" />
            <path
                d="M814.242 121.567C801.691 164.203 772.406 205.167 759.332 220.32C823.342 215.304 847.712 171.205 851.895 149.782L814.242 121.567Z"
                fill="#351700" />
        </g>
    </g>
    <g style="mix-blend-mode:multiply" opacity="0.3">
        <path
            d="M983.42 615.248C1002.87 588.91 1009.35 576.055 1030.43 576.055C1051.5 576.055 1073.87 610.231 1098.5 615.248C1129.3 621.519 1155.24 605.842 1179.55 608.977C1203.86 612.113 1194.14 627.79 1210.35 663.849C1226.56 699.907 1254.11 710.881 1262.22 721.855C1270.32 732.83 1262.22 754.778 1268.7 770.456C1275.18 786.133 1294.64 792.404 1299.5 806.514C1304.36 820.624 1294.64 825.327 1304.36 845.708C1312.14 862.012 1327.05 876.54 1333.54 881.766L1294.64 737.533C1238.88 584.52 1095.26 533.725 1030.43 527.454C693.276 433.389 407.995 788.224 307.498 977.399L379.666 1116.93C398.577 1111.18 424.852 1099.68 446.897 1074.6C474.452 1043.24 464.727 967.993 474.452 936.638C484.178 905.282 500.387 889.605 555.498 866.089C610.609 842.572 607.367 798.675 634.923 764.185C662.479 729.694 722.452 748.507 748.387 726.559C774.322 704.61 751.629 673.255 787.289 645.036C822.949 616.816 876.439 630.926 905.616 645.036C934.792 659.145 959.106 648.171 983.42 615.248Z"
            fill="#351700" />
    </g>
    <path
        d="M506.421 390.916C206.088 491.994 67.4614 830.078 170.877 1170.22C182.382 1133.65 219.826 1062.69 302.662 1071.47C316.259 1074.61 352.552 1090.28 388.95 1127.9C506.421 516.578 996.322 524.566 1139 582.413C1278.18 638.843 1311.57 858.293 1319.55 889.23C1324.57 894.311 1332.49 890.18 1332.3 882.744C1319.2 380.271 834.59 280.473 506.421 390.916Z"
        fill="#351700" />
    <path
        d="M727.955 373.935C794.893 402.15 940.693 472.374 988.387 527.55C964.331 476.345 878.566 373.935 727.955 373.935Z"
        fill="#2A1000" />
    <path
        d="M652.649 405.285C666.246 453.355 700.343 557.019 727.955 587.115C730.046 555.243 717.914 474.255 652.649 405.285Z"
        fill="#2A1000" />
    <path
        d="M547.535 417.825C542.828 470.075 545.338 591.818 593.032 660.788C548.058 630.483 475.994 539.463 547.535 417.825Z"
        fill="#2A1000" />
    <path
        d="M429.87 852.023C359.585 680.225 424.64 517.1 465.954 457.013C297.771 666.431 350.903 858.815 398.492 928.83C373.39 888.702 372.344 809.7 374.959 775.215C376.214 811.581 412.089 841.573 429.87 852.023Z"
        fill="#2A1000" />
    <path
        d="M362.409 527.55C308.544 617.943 222.466 837.602 309.067 993.098C253.111 930.398 185.44 749.508 362.409 527.55Z"
        fill="#2A1000" />
    <path
        d="M909.943 392.745C973.221 411.555 1114.21 472.061 1171.94 563.603C1145.27 512.92 1055.53 407.793 909.943 392.745Z"
        fill="#2A1000" />
</svg>