<svg width="530" height="600" viewBox="0 0 530 600" fill="none" xmlns="http://www.w3.org/2000/svg">
    <path
        d="M95.9169 288.788C95.7987 293.383 95.8607 297.989 96.1119 302.59C134.202 309.062 152.241 349.893 156.5 369.5C156.5 369.5 167.833 370.167 170.5 368C184.5 360.667 209.4 330.6 197 269C191 241 195 218.706 244 184C293 149.294 371 171 387 184C399.8 194.4 405.935 198.333 407.403 199C373.237 121.458 304.095 110.621 304.095 110.621C159.5 74 110.984 217.294 110.5 218.5C101.658 240.518 96.5386 264.438 95.9169 288.788Z"
        fill="#21625A" />
    <path
        d="M244 106C306 109.6 338.5 149.5 347 169C355 205.8 396.667 223.333 416.5 227.5C423.3 251.1 425 299.333 425 320C443.8 330 455.167 344.833 458.5 351.5C454 333.5 459.5 328.5 463 307.5C466.5 286.5 441.5 258.5 433 247.5C424.5 236.5 439 199 430.5 179C422 159 394.5 141.5 380 140C365.5 138.5 366 118.5 323.5 101.5C289.5 87.9 256.333 98.8333 244 106Z"
        fill="#238D81" />
    <path
        d="M467 390.5C465.8 405.7 457 424.667 453 432C436.024 457.6 410.927 475 401 480C431.4 500 467.833 491.167 481.5 485C479.5 483.333 475 477.9 473 469.5C470.5 459 487.5 444 485.5 425C483.9 409.8 472.5 395.667 467 390.5Z"
        fill="#238D81" />
    <mask id="mask0_16_673" style="mask-type:alpha" maskUnits="userSpaceOnUse" x="244" y="95" width="242" height="398">
        <path
            d="M244 106C306 109.6 338.5 149.5 347 169C355 205.8 396.667 223.333 416.5 227.5C423.3 251.1 425 299.333 425 320C443.8 330 455.167 344.833 458.5 351.5C454 333.5 459.5 328.5 463 307.5C466.5 286.5 441.5 258.5 433 247.5C424.5 236.5 439 199 430.5 179C422 159 394.5 141.5 380 140C365.5 138.5 366 118.5 323.5 101.5C289.5 87.9 256.333 98.8334 244 106Z"
            fill="#238D81" />
        <path
            d="M467 390.5C465.8 405.7 457 424.667 453 432C436.024 457.6 410.927 475 401 480C431.4 500 467.833 491.167 481.5 485C479.5 483.333 475 477.9 473 469.5C470.5 459 487.5 444 485.5 425C483.9 409.8 472.5 395.667 467 390.5Z"
            fill="#238D81" />
    </mask>
    <g mask="url(#mask0_16_673)">
        <path
            d="M377 194.5C364.6 184.9 356.5 168.5 354 161.5C357.5 168.027 370 183.766 392 194.5C414 205.234 422.167 217.306 423.5 222C415.5 207.5 392.5 206.5 377 194.5Z"
            fill="#DCDCDC" style="mix-blend-mode:multiply" />
        <path
            d="M449 313.5C449.8 304.7 447 293.5 445.5 289C445.5 293.833 445 305.5 443 313.5C441 321.5 435.833 327.833 433.5 330L449 340C442.5 331 448 324.5 449 313.5Z"
            fill="#DCDCDC" style="mix-blend-mode:multiply" />
        <path
            d="M472 438.5C476.4 428.9 473.833 419.833 472 416.5C472 436 464 435.5 456 451.5C448 467.5 454 483.5 449 481C445 479 443.333 474.167 443 472C441 484.4 443.833 494.5 445.5 498C459.5 499.6 469 491.333 472 487C459.5 468.5 466.5 450.5 472 438.5Z"
            fill="#DCDCDC" style="mix-blend-mode:multiply" />
    </g>
</svg>