<svg width="1663" height="1881" viewBox="0 0 1663 1881" fill="none" xmlns="http://www.w3.org/2000/svg">
    <path
        d="M300.962 905.35C300.591 919.756 300.786 934.196 301.574 948.62C421.089 968.911 477.693 1096.92 491.055 1158.38C491.055 1158.38 526.616 1160.47 534.984 1153.68C578.912 1130.69 657.041 1036.43 618.134 843.315C599.307 755.535 611.858 685.645 765.607 576.84C919.356 468.035 1164.1 536.085 1214.3 576.84C1254.47 609.444 1273.72 621.775 1278.32 623.865C1171.12 380.769 954.17 346.797 954.17 346.797C500.469 231.99 348.24 681.215 346.72 684.998C318.976 754.025 302.913 829.015 300.962 905.35Z"
        fill="#21625A" />
    <path
        d="M765.607 332.31C960.147 343.596 1062.12 468.683 1088.79 529.815C1113.9 645.183 1244.64 700.15 1306.87 713.212C1328.2 787.198 1333.54 938.41 1333.54 1003.2C1392.53 1034.55 1428.19 1081.05 1438.65 1101.95C1424.53 1045.52 1441.79 1029.85 1452.77 964.012C1463.75 898.177 1385.31 810.397 1358.64 775.912C1331.97 741.427 1377.47 623.865 1350.8 561.165C1324.12 498.465 1237.84 443.602 1192.34 438.9C1146.84 434.197 1148.41 371.498 1015.06 318.203C908.374 275.567 804.306 309.843 765.607 332.31Z"
        fill="#238D81" />
    <path
        d="M1465.32 1224.22C1461.56 1271.87 1433.95 1331.33 1421.39 1354.32C1368.13 1434.58 1289.38 1489.12 1258.23 1504.8C1353.62 1567.5 1467.94 1539.81 1510.82 1520.47C1504.54 1515.25 1490.42 1498.22 1484.15 1471.88C1476.3 1438.96 1529.65 1391.94 1523.37 1332.37C1518.35 1284.72 1482.58 1240.41 1465.32 1224.22Z"
        fill="#238D81" />
    <mask id="mask0_8_377" style="mask-type:alpha" maskUnits="userSpaceOnUse" x="765" y="297" width="759" height="1247">
        <path
            d="M765.607 332.31C960.147 343.596 1062.12 468.683 1088.79 529.815C1113.9 645.183 1244.64 700.15 1306.87 713.212C1328.2 787.198 1333.54 938.41 1333.54 1003.2C1392.53 1034.55 1428.19 1081.05 1438.65 1101.95C1424.53 1045.52 1441.79 1029.85 1452.77 964.012C1463.75 898.177 1385.31 810.397 1358.64 775.912C1331.97 741.427 1377.47 623.865 1350.8 561.165C1324.12 498.465 1237.84 443.603 1192.34 438.9C1146.84 434.198 1148.41 371.498 1015.06 318.203C908.374 275.567 804.306 309.843 765.607 332.31Z"
            fill="#238D81" />
        <path
            d="M1465.32 1224.22C1461.56 1271.87 1433.95 1331.33 1421.39 1354.32C1368.13 1434.58 1289.38 1489.12 1258.23 1504.8C1353.62 1567.5 1467.94 1539.81 1510.82 1520.47C1504.54 1515.25 1490.42 1498.22 1484.15 1471.88C1476.3 1438.96 1529.65 1391.94 1523.37 1332.37C1518.35 1284.72 1482.58 1240.41 1465.32 1224.22Z"
            fill="#238D81" />
    </mask>
    <g mask="url(#mask0_8_377)">
        <path
            d="M1182.93 609.757C1144.02 579.661 1118.6 528.247 1110.76 506.302C1121.74 526.766 1160.96 576.106 1229.99 609.757C1299.02 643.409 1324.65 681.254 1328.83 695.97C1303.73 650.512 1231.56 647.377 1182.93 609.757Z"
            fill="#DCDCDC" style="mix-blend-mode:multiply" />
        <path
            d="M1408.84 982.822C1411.35 955.234 1402.57 920.122 1397.86 906.015C1397.86 921.167 1396.29 957.742 1390.02 982.822C1383.74 1007.9 1367.53 1027.76 1360.21 1034.55L1408.84 1065.9C1388.45 1037.68 1405.71 1017.31 1408.84 982.822Z"
            fill="#DCDCDC" style="mix-blend-mode:multiply" />
        <path
            d="M1481.01 1374.7C1494.82 1344.6 1486.76 1316.18 1481.01 1305.73C1481.01 1366.86 1455.91 1365.29 1430.81 1415.45C1405.71 1465.61 1424.53 1515.77 1408.84 1507.93C1396.29 1501.66 1391.06 1486.51 1390.02 1479.72C1383.74 1518.59 1392.63 1550.26 1397.86 1561.23C1441.79 1566.25 1471.6 1540.33 1481.01 1526.74C1441.79 1468.75 1463.75 1412.32 1481.01 1374.7Z"
            fill="#DCDCDC" style="mix-blend-mode:multiply" />
    </g>
</svg>