<svg width="530" height="600" viewBox="0 0 530 600" fill="none" xmlns="http://www.w3.org/2000/svg">
    <path
        d="M236 248.5C303.2 166.5 381 193 411.5 216.5C395.1 105.7 308 96.5 226 103.5C-19.1339 124.426 29 439 60 483C91 527 166 540 286 550C406 560 462 515.5 461 506.5C460.2 499.3 452 487.833 448 483C457.6 461.8 452 443.167 448 436.5C413.2 489.7 350.167 496.333 323 493C219 481.5 152 351 236 248.5Z"
        fill="#272630" />
    <path d="M278.5 480.5C302.167 493 386.9 518 446.5 482C424.5 507.833 342.1 536.5 278.5 480.5Z" fill="black" />
    <path d="M197.5 342C187.333 399.167 202.6 520.4 345 548C276.667 543.167 151.5 495.2 197.5 342Z" fill="black" />
</svg>