<svg viewBox="0 0 1663 1881" fill="none" xmlns="http://www.w3.org/2000/svg">
    <path
        d="M740.506 779.048C951.362 521.978 1195.48 605.055 1291.18 678.727C1239.72 331.37 966.423 302.528 709.128 324.472C-60.037 390.075 90.9944 1376.27 188.264 1514.21C285.534 1652.15 520.864 1692.9 897.392 1724.25C1273.92 1755.6 1449.63 1616.09 1446.5 1587.88C1443.99 1565.31 1418.26 1529.36 1405.71 1514.21C1435.83 1447.74 1418.26 1389.33 1405.71 1368.43C1296.51 1535.21 1098.73 1556.01 1013.49 1545.56C687.164 1509.5 476.936 1100.39 740.506 779.048Z"
        fill="#272630" />
    <path
        d="M873.859 1506.37C948.119 1545.55 1213.99 1623.93 1401 1511.07C1331.97 1592.06 1073.42 1681.93 873.859 1506.37Z"
        fill="black" />
    <path
        d="M619.703 1072.17C587.802 1251.39 635.705 1631.45 1082.52 1717.98C868.107 1702.83 475.367 1552.45 619.703 1072.17Z"
        fill="black" />
</svg>