<svg width="530" height="600" viewBox="0 0 530 600" fill="none" xmlns="http://www.w3.org/2000/svg">
    <path
        d="M95.917 288.624C95.7988 293.22 95.8608 297.826 96.112 302.427C134.202 308.899 152.241 349.73 156.5 369.337C156.5 369.337 167.833 370.003 170.5 367.837C184.5 360.503 209.4 330.437 197 268.837C191 240.837 195 218.543 244 183.837C293 149.13 371 170.837 387 183.837C399.8 194.237 405.935 198.17 407.403 198.837C373.237 121.294 304.095 110.457 304.095 110.457C168.645 75.9256 109.923 214.457 108.5 218C99.658 240.018 96.5387 264.275 95.917 288.624Z"
        fill="#CDCCFF" />
    <path
        d="M440 102.837C409.6 114.037 389 160.837 383 180.837C354.5 166.837 336 165.837 306 164.837C309.333 154.17 267.5 121.837 225 126.837C170.879 133.204 138.5 171.837 136 176.837L106 142.837C195.6 -10.7635 366 52.1699 440 102.837Z"
        fill="#7D7AFF" />
    <path
        d="M440 102.837C409.6 114.037 389 160.837 383 180.837C354.5 166.837 336 165.837 306 164.837C309.333 154.17 267.5 121.837 225 126.837C170.879 133.204 138.5 171.837 136 176.837L106 142.837C131 114.67 202.6 64.0365 289 86.8365L440 102.837Z"
        fill="#605DE4" />
    <path
        d="M440 102.837C409.6 114.037 389 160.837 383 180.837C354.5 166.837 336 165.837 306 164.837C310 132.037 288.333 97.0032 281 84.3366C324.5 62.3366 419.919 89.0872 440 102.837Z"
        fill="#5754D2" />
</svg>