<svg width="1663" height="1881" viewBox="0 0 1663 1881" fill="none" xmlns="http://www.w3.org/2000/svg">
    <path
        d="M300.962 904.837C300.591 919.244 300.786 933.683 301.574 948.108C421.089 968.398 477.693 1096.4 491.056 1157.87C491.056 1157.87 526.617 1159.96 534.984 1153.17C578.912 1130.18 657.042 1035.92 618.134 842.803C599.308 755.023 611.858 685.132 765.608 576.328C919.357 467.523 1164.1 535.573 1214.3 576.328C1254.47 608.932 1273.72 621.263 1278.32 623.353C1171.12 380.257 954.171 346.284 954.171 346.284C529.164 238.027 344.909 672.323 340.444 683.43C312.7 752.457 302.913 828.502 300.962 904.837Z"
        fill="#CDCCFF" />
    <path
        d="M1380.6 322.393C1285.22 357.505 1220.58 504.223 1201.75 566.923C1112.33 523.033 1054.28 519.898 960.147 516.763C970.606 483.323 839.344 381.958 705.991 397.633C536.174 417.594 434.577 538.708 426.732 554.383L332.6 447.793C613.741 -33.7435 1148.41 163.553 1380.6 322.393Z"
        fill="#7D7AFF" />
    <path
        d="M1380.6 322.393C1285.22 357.505 1220.58 504.223 1201.75 566.923C1112.33 523.033 1054.28 519.898 960.147 516.763C970.606 483.323 839.344 381.958 705.991 397.633C536.174 417.594 434.577 538.708 426.732 554.383L332.6 447.793C411.043 359.49 635.705 200.755 906.806 272.233L1380.6 322.393Z"
        fill="#605DE4" />
    <path
        d="M1380.6 322.393C1285.22 357.505 1220.58 504.223 1201.75 566.923C1112.33 523.033 1054.28 519.898 960.147 516.763C972.698 413.935 904.714 304.105 881.704 264.395C1018.2 195.425 1317.59 279.288 1380.6 322.393Z"
        fill="#5754D2" />
</svg>