<svg width="1663" height="1881" viewBox="0 0 1663 1881" fill="none" xmlns="http://www.w3.org/2000/svg">
    <path
        d="M295.439 901.62C295.029 916.035 295.19 930.481 295.952 944.912C416.776 964.92 473.709 1092.85 487.073 1154.32C487.073 1154.32 523.033 1156.32 531.512 1149.51C575.996 1126.4 655.245 1031.9 616.368 838.776C597.543 750.996 610.408 681.038 766.171 571.8C921.934 462.561 1169.29 530.048 1219.97 570.702C1260.51 603.224 1264.81 608.19 1277.06 616.028C1169.23 373.066 957.441 341.173 957.441 341.173C527.869 233.899 344.616 681.684 344.628 681.681C316.399 750.813 297.6 825.24 295.439 901.62Z"
        fill="#D0BA9E" />
</svg>