<svg width="530" height="600" viewBox="0 0 530 600" fill="none" xmlns="http://www.w3.org/2000/svg">
    <path
        d="M94.1569 287.598C94.0261 292.196 94.0775 296.804 94.3203 301.407C132.827 307.79 150.972 348.598 155.231 368.204C155.231 368.204 166.691 368.844 169.393 366.669C183.571 359.298 208.827 329.154 196.437 267.552C190.438 239.552 194.538 217.237 244.179 182.392C293.821 147.547 372.655 169.074 388.805 182.042C401.725 192.416 403.097 194 407 196.5C372.636 119 305.138 108.827 305.138 108.827C168.232 74.6089 109.829 217.443 109.833 217.442C100.837 239.494 94.8453 263.234 94.1569 287.598Z"
        fill="#D0BA9E" />
</svg>