<svg width="1663" height="1881" viewBox="0 0 1663 1881" fill="none" xmlns="http://www.w3.org/2000/svg">
    <path
        d="M1380.78 507.523C1378.04 453.492 1358.19 372.126 1295.01 390.961C1283.94 394.259 1274.21 401.508 1266.74 410.919C1263.85 400.115 1259.63 389.34 1254.35 378.708C1239.72 349.212 1199.82 337.499 1173.72 355.765C1167.7 359.987 1162.72 365.147 1158.52 370.776C1096.05 322.729 1029.03 281.336 955.991 257.185C849.457 221.946 733.533 224.974 626.436 258.151C614.951 261.705 603.557 265.614 592.256 269.836C485.538 309.723 377.616 377.044 307.292 473.819C238.29 568.761 202.565 686.431 190.726 805.637C187.308 840.009 185.54 874.594 185.592 909.164C185.592 912.505 185.592 892.861 186.64 932.662C216.969 863.692 336.203 877.8 336.203 877.8L405.233 956.175C421.904 977.369 439.966 1108.13 461.247 1092.55L470.66 1087.84C485.314 1077.11 477.327 992.549 476.895 973.373C474.093 847.273 525.991 715.629 610.184 638.84C695.765 560.786 819.978 530.736 933.584 523.671C1028.95 517.743 1121.81 541.71 1204.23 594.362C1230.68 611.249 1255.83 630.681 1278.95 652.586C1280.61 654.164 1303.34 679.48 1304.33 678.969C1360.17 650.255 1381.8 581.156 1381.11 518.056C1381.07 514.687 1380.96 511.162 1380.78 507.523Z"
        fill="#E9B729" />
    <path
        d="M955.991 257.2C1029.03 281.351 1096.05 322.745 1158.52 370.791C1161.75 366.441 1165.63 362.546 1169.92 359.021C1161.39 368.73 1154.67 381.324 1149.01 393.322C1123.8 372.028 1092.06 360.315 1060.21 370.066C1029.73 379.405 1008.22 405.177 995.278 435.398C922.597 391.744 844.808 375.098 755.534 391.9C648.646 412.014 555.234 486.188 493.199 581.356C409.674 709.503 408.729 952.08 471.628 1086.48C470.109 1087.92 471.628 1086.48 461.295 1094.58C440.015 1110.16 412.611 998.497 351.425 967.148C324.232 951.995 255.412 938.619 197.677 1000.07C185.592 945.203 185.592 920.122 185.592 891.908C185.541 857.787 187.262 840.478 190.593 806.987L190.726 805.653C202.565 686.447 238.29 568.776 307.292 473.835C377.616 377.06 485.538 309.738 592.256 269.851C603.558 265.629 614.951 261.72 626.436 258.167C733.533 224.989 849.457 221.961 955.991 257.2Z"
        fill="#DFAF27" />
</svg>