<svg width="530" height="600" viewBox="0 0 530 600" fill="none" xmlns="http://www.w3.org/2000/svg">
    <path
        d="M440.056 161.889C439.184 144.655 432.856 118.701 412.723 124.708C409.192 125.76 406.091 128.073 403.712 131.075C402.789 127.628 401.446 124.192 399.764 120.8C395.102 111.391 382.385 107.655 374.066 113.482C372.147 114.828 370.561 116.474 369.221 118.27C349.313 102.944 327.952 89.7403 304.676 82.0366C270.723 70.7961 233.778 71.7619 199.646 82.3449C195.986 83.4785 192.354 84.7254 188.753 86.072C154.742 98.7952 120.347 120.269 97.9342 151.139C75.9433 181.423 64.5576 218.957 60.7846 256.982C59.6953 267.945 59.1319 278.977 59.1486 290.005C59.1486 291.07 59.1486 284.804 59.4824 297.5C69.1482 275.5 107.148 280 107.148 280L129.148 305C134.461 311.761 140.218 353.47 147 348.5L150 347C154.67 343.577 152.125 316.603 151.987 310.486C151.094 270.262 167.634 228.271 194.466 203.777C221.741 178.879 261.328 169.294 297.534 167.04C327.927 165.149 357.522 172.794 383.791 189.589C392.218 194.976 400.235 201.174 407.602 208.161C408.132 208.665 415.377 216.74 415.69 216.577C433.487 207.418 440.381 185.377 440.16 165.249C440.148 164.175 440.114 163.05 440.056 161.889Z"
        fill="#E9B729" />
    <path
        d="M304.676 82.0414C327.952 89.7451 349.313 102.949 369.221 118.275C370.252 116.887 371.487 115.645 372.856 114.52C370.135 117.617 367.994 121.635 366.191 125.461C358.156 118.669 348.04 114.933 337.889 118.043C328.177 121.022 321.32 129.243 317.196 138.883C294.033 124.958 269.241 119.649 240.79 125.008C206.724 131.424 176.954 155.084 157.183 185.441C130.564 226.317 130.262 303.694 150.308 346.565C149.824 347.023 150.308 346.565 147.015 349.15C140.233 354.119 131.5 318.5 112 308.5C103.333 303.667 81.4003 299.4 63 319C59.1486 301.5 59.1486 293.5 59.1486 284.5C59.1321 273.616 59.6807 268.095 60.7424 257.412L60.7846 256.986C64.5576 218.962 75.9433 181.428 97.9342 151.143C120.347 120.274 154.742 98.8 188.753 86.0769C192.355 84.7303 195.986 83.4833 199.646 82.3498C233.778 71.7668 270.723 70.801 304.676 82.0414Z"
        fill="#DFAF27" />
</svg>