<svg width="530" height="600" viewBox="0 0 530 600" fill="none" xmlns="http://www.w3.org/2000/svg">
    <path
        d="M351 167C318.5 212 245 304.5 144 337.5C137.167 325.833 125 313.6 103 314C75.5 314.5 65.5 334.5 65.5 334.5C65.5 334.5 33.5 388 107.5 422C128 426 134.5 426 151 419C162.167 427.667 197.6 457.2 210 462C206.833 478.833 201.242 520.8 208.842 540C194.342 541.333 159 548.7 131 533.5C128.181 516.377 125.701 493.954 130.115 485.405C124.846 494.015 115.342 513.669 115.342 525C99.3422 519.5 63.7423 504.2 49.3423 487C27.009 382 18.9998 127.5 245 106C264.833 103.667 315.4 105.7 349 128.5C391 157 412 195 420 233C402.833 225 365 200.6 351 167Z"
        fill="#E2BA87" />
    <path
        d="M433.5 525C426.7 515.4 430.667 471.833 433.5 457C405.5 480.5 389 492 331.5 493.5C341.5 508.5 380.5 514 385 516L393 510.5V518.5C403.8 522.1 424.5 524.333 433.5 525Z"
        fill="#E2BA87" />
    <mask id="mask0_16_638" style="mask-type:alpha" maskUnits="userSpaceOnUse" x="245" y="105" width="176" height="128">
        <path
            d="M346.501 127.5C312.901 104.7 264.834 103.667 245 106C250.477 135.667 267.372 198.8 314 214C327.672 196.282 343.992 179.791 351 167C365 200.6 402.834 225 420 233C412 195 388.501 156 346.501 127.5Z"
            fill="#E2BA87" />
    </mask>
    <g mask="url(#mask0_16_638)">
        <path
            d="M338.932 161.814C338.932 161.814 330.656 152.005 312.602 153.644C312.602 153.644 325.391 146.699 333.664 147.516C333.664 147.516 311.098 130.762 278 141.388C278 141.388 301.318 125.043 319.751 127.086C319.751 127.086 300.194 118.507 287.781 120.55C287.781 120.55 297.561 108.29 310.346 108.698C310.346 108.698 300.19 90.7192 284.392 85C284.392 85 315.987 93.9917 324.259 100.528C342.689 108.29 359.614 131.175 359.614 131.175C353.973 127.907 344.945 128.724 344.945 128.724C359.614 137.716 370.899 154.465 370.899 154.465C363.754 149.563 355.101 151.197 355.101 151.197C369.018 165.091 373.531 183.07 373.531 183.07C371.651 177.351 358.11 170.402 358.11 170.402C363.374 179.802 364.502 194.917 364.502 194.917L353.217 180.206C353.217 180.206 330.276 199.411 324.255 201.862C324.255 201.862 341.556 183.883 342.685 175.712C342.685 175.712 316.731 182.657 296.045 185.521C296.053 185.512 325.015 163.448 338.932 161.814Z"
            fill="#D9AC74" />
    </g>
    <path d="M281 211C267 228.667 221.4 271.6 151 302C173.333 288 230.6 250.2 281 211Z" fill="#D9AC74" />
    <path
        d="M95 302C135.8 215.6 218.667 166.667 255 153C161.4 169 99 261.333 79.5 305.5C83.1 303.9 91.3333 302.5 95 302Z"
        fill="#D9AC74" />
    <path
        d="M74 406.5C76 409 81.8 412.9 85 414.5C83.7103 436.425 81.7552 478.975 82.7579 497.848C83.0227 500.514 83.2738 502.923 83.5 505C83.1635 503.374 82.9214 500.926 82.7579 497.848C80.8762 478.909 78.2987 447.032 79 429.5C75.3333 442.833 69.1 447.3 73.5 502.5C68.8334 466.833 61.6001 428.1 74 406.5Z"
        fill="#D9AC74" />
    <path
        d="M408.5 476.5C411.3 475.3 416 472 418 470.5C414.4 476.5 415.833 506.667 417 521C414.6 519 413 511.5 412.5 508C410.9 513.2 407.833 513.5 408.5 521C404.1 511 408 492.5 408.5 476.5Z"
        fill="#D9AC74" />
    <path d="M183.5 468.5C178.7 512.1 181 524 185 542.5H175H165C157.8 507.3 176.167 490.5 183.5 468.5Z"
        fill="#D9AC74" />
</svg>