<svg width="1663" height="1881" viewBox="0 0 1663 1881" fill="none" xmlns="http://www.w3.org/2000/svg">
    <path
        d="M1101.35 523.545C999.369 664.62 768.746 954.607 451.834 1058.06C430.393 1021.49 392.217 983.136 323.187 984.39C236.899 985.958 205.522 1048.66 205.522 1048.66C205.522 1048.66 105.114 1216.38 337.307 1322.97C401.63 1335.51 422.025 1335.51 473.798 1313.57C508.836 1340.74 620.016 1433.32 658.924 1448.37C648.988 1501.14 631.445 1632.71 655.292 1692.9C609.795 1697.08 498.901 1720.17 411.044 1672.52C402.198 1618.84 394.418 1548.55 408.265 1521.74C391.732 1548.74 361.913 1610.35 361.913 1645.88C311.709 1628.63 200.006 1580.67 154.823 1526.75C84.747 1197.57 59.6164 399.713 768.746 332.31C830.977 324.995 989.642 331.369 1095.07 402.847C1226.85 492.195 1292.75 611.325 1317.85 730.455C1263.98 705.375 1145.27 628.881 1101.35 523.545Z"
        fill="#E2BA87" />
    <path
        d="M1360.21 1645.88C1338.87 1615.78 1351.32 1479.2 1360.21 1432.69C1272.35 1506.37 1220.58 1542.42 1040.16 1547.12C1071.54 1594.15 1193.91 1611.39 1208.03 1617.66L1233.13 1600.42V1625.5C1267.02 1636.78 1331.97 1643.79 1360.21 1645.88Z"
        fill="#E2BA87" />
    <mask id="mask0_8_377" style="mask-type:alpha" maskUnits="userSpaceOnUse" x="768" y="329" width="550" height="402">
        <path
            d="M1087.23 399.713C981.799 328.235 830.979 324.995 768.747 332.31C785.931 425.315 838.943 623.238 985.249 670.89C1028.15 615.343 1079.36 563.644 1101.35 523.545C1145.27 628.881 1263.99 705.375 1317.85 730.455C1292.75 611.325 1219.01 489.06 1087.23 399.713Z"
            fill="#E2BA87" />
    </mask>
    <g mask="url(#mask0_8_377)">
        <path
            d="M1063.48 507.287C1063.48 507.287 1037.51 476.536 980.864 481.673C980.864 481.673 1020.99 459.901 1046.95 462.462C1046.95 462.462 976.145 409.94 872.291 443.252C872.291 443.252 945.455 392.011 1003.29 398.414C1003.29 398.414 941.928 371.519 902.98 377.923C902.98 377.923 933.669 339.488 973.785 340.769C973.785 340.769 941.916 284.405 892.348 266.475C892.348 266.475 991.483 294.664 1017.44 315.155C1075.27 339.488 1128.37 411.235 1128.37 411.235C1110.68 400.989 1082.35 403.551 1082.35 403.551C1128.37 431.74 1163.78 484.248 1163.78 484.248C1141.36 468.88 1114.21 474.003 1114.21 474.003C1157.88 517.56 1172.04 573.924 1172.04 573.924C1166.14 555.994 1123.65 534.209 1123.65 534.209C1140.17 563.679 1143.71 611.064 1143.71 611.064L1108.3 564.946C1108.3 564.946 1036.32 625.152 1017.43 632.836C1017.43 632.836 1071.71 576.472 1075.25 550.858C1075.25 550.858 993.817 572.63 928.912 581.608C928.937 581.581 1019.81 512.41 1063.48 507.287Z"
            fill="#D9AC74" />
    </g>
    <path
        d="M881.704 661.485C837.775 716.87 694.695 851.466 473.798 946.77C543.874 902.88 723.562 784.377 881.704 661.485Z"
        fill="#D9AC74" />
    <path
        d="M298.085 946.77C426.104 675.906 686.118 522.5 800.123 479.655C506.431 529.815 310.636 819.28 249.45 957.743C260.746 952.727 286.58 948.338 298.085 946.77Z"
        fill="#D9AC74" />
    <path
        d="M232.193 1274.38C238.468 1282.22 256.667 1294.44 266.708 1299.46C262.661 1368.19 256.526 1501.59 259.672 1560.75C260.503 1569.11 261.291 1576.66 262.001 1583.18C260.945 1578.08 260.185 1570.4 259.672 1560.75C253.768 1501.38 245.681 1401.45 247.881 1346.48C236.376 1388.28 216.817 1402.29 230.624 1575.34C215.981 1463.52 193.285 1342.09 232.193 1274.38Z"
        fill="#D9AC74" />
    <path
        d="M1281.77 1493.83C1290.55 1490.07 1305.3 1479.72 1311.57 1475.02C1300.28 1493.83 1304.78 1588.4 1308.44 1633.34C1300.91 1627.07 1295.89 1603.55 1294.32 1592.58C1289.3 1608.88 1279.67 1609.82 1281.77 1633.34C1267.96 1601.98 1280.2 1543.99 1281.77 1493.83Z"
        fill="#D9AC74" />
    <path
        d="M575.775 1468.75C560.714 1605.43 567.93 1642.74 580.481 1700.74H549.104H517.726C495.135 1590.39 552.765 1537.72 575.775 1468.75Z"
        fill="#D9AC74" />
</svg>