<svg width="1663" height="1881" viewBox="0 0 1663 1881" fill="none" xmlns="http://www.w3.org/2000/svg">
    <path
        d="M301.962 905.35C301.592 919.756 301.786 934.196 302.574 948.62C422.089 968.911 478.693 1096.92 492.056 1158.38C492.056 1158.38 527.617 1160.47 535.984 1153.68C579.912 1130.69 658.042 1036.43 619.134 843.315C600.308 755.535 612.859 685.645 766.608 576.84C920.357 468.035 1165.1 536.085 1215.3 576.84C1255.47 609.444 1274.72 621.775 1279.32 623.865C1172.12 380.769 955.171 346.796 955.171 346.796C530.164 238.539 350.053 685.647 350.066 685.645C322.322 754.672 303.913 829.015 301.962 905.35Z"
        fill="#AA5A10" />
    <path
        d="M1074.84 529.815C1026.73 471.295 906.66 389.367 811.273 529.815C692.039 705.375 779.895 780.615 742.242 931.095C704.589 1081.57 623.008 1131.73 641.835 1232.05C660.661 1332.38 804.997 1501.67 742.242 1608.26C742.242 1608.26 639.55 1594.16 517.891 1567.14C473.181 1557.22 473.288 1512.69 468.021 1494.86L462.981 1487.56C451.542 1484.84 457.273 1552.95 445.723 1550.02C329.2 1520.42 210.309 1479.96 155.483 1429.56C166.988 1404.48 179.33 1333.63 136.657 1250.87C83.3151 1147.41 108.417 1059.63 155.483 1000.07C202.549 940.5 193.136 865.26 174.309 774.345C155.483 683.43 174.309 548.625 265.303 495.33C356.298 442.035 400.226 354.255 472.394 310.365C544.562 266.475 811.273 166.154 983.845 310.365C1000.58 298.87 1063.55 282.777 1143.87 310.365C1244.28 344.85 1332.38 503.832 1344.68 609.757C1365.08 785.317 1415.28 846.45 1427.83 907.583C1436.23 948.473 1443.52 987.525 1407.44 1056.5C1376.06 1026.71 1354.1 1014.17 1335.27 1000.07C1338.41 964.535 1341.55 874.038 1329 796.29C1313.31 699.105 1245.85 456.142 1117.2 495.33C1103.6 500.032 1097.43 509.751 1074.84 529.815Z"
        fill="#D56C0C" />
    <path
        d="M1387.04 1485.99C1395.83 1464.67 1390.7 1422.77 1387.04 1404.48C1349.39 1445.86 1300.23 1480.24 1280.36 1492.26C1309.23 1497.28 1363.51 1490.17 1387.04 1485.99Z"
        fill="#D56C0C" />
    <path
        d="M679.485 539.22C752.28 413.82 906.448 392.92 974.432 398.145C607.317 360.525 572.801 611.325 572.801 708.51C572.801 786.258 582.215 830.775 557.113 874.665C466.119 982.822 499.587 1083.66 516.322 1122.33C500.634 1040.82 532.011 981.255 601.041 902.88C670.071 824.505 588.49 695.97 679.485 539.22Z"
        fill="#AA5A10" fill-opacity="0.5" />
    <path
        d="M572.801 1391.94C527.618 1346.8 516.322 1304.16 516.322 1288.48C661.913 1363.72 633.464 1480.76 601.041 1529.88C610.454 1502.71 617.985 1437.08 572.801 1391.94Z"
        fill="#AA5A10" fill-opacity="0.5" />
    <path
        d="M353.16 874.665C380.772 811.965 375.124 737.77 368.849 708.51C368.849 802.56 309.232 902.88 243.339 1022.01C190.625 1117.31 265.303 1228.92 309.232 1272.81C318.645 1222.65 277.854 1185.03 274.717 1094.11C271.579 1003.2 318.645 953.04 353.16 874.665Z"
        fill="#AA5A10" fill-opacity="0.5" />
    <path
        d="M1391.75 1043.95C1408.07 992.541 1396.46 920.122 1388.61 890.34C1388.61 941.754 1379.2 1003.72 1374.49 1028.28L1391.75 1043.95Z"
        fill="#AA5A10" fill-opacity="0.5" />
</svg>