<svg width="530" height="600" viewBox="0 0 530 600" fill="none" xmlns="http://www.w3.org/2000/svg">
    <path
        d="M192.247 102.862C203.413 85.7737 248.014 117.574 269.498 135.947C240.287 134.117 224.298 173.178 219.094 192.282C209.874 201.32 194.587 202.966 188.377 202.977C185.014 176.726 181.08 119.95 192.247 102.862Z"
        fill="#A09B9B" />
    <mask id="mask0_101_888" style="mask-type:alpha" maskUnits="userSpaceOnUse" x="184" y="97" width="86" height="106">
        <path
            d="M192.247 102.862C203.413 85.7737 248.014 117.574 269.498 135.947C240.287 134.117 224.298 173.178 219.094 192.282C209.874 201.32 194.587 202.966 188.377 202.977C185.014 176.726 181.08 119.95 192.247 102.862Z"
            fill="#A09B9B" />
    </mask>
    <g mask="url(#mask0_101_888)">
        <path d="M185.817 198.849C193.524 195.964 203.272 192.762 207.183 191.521L182.126 182.608L185.817 198.849Z"
            fill="#C4C4C4" />
        <path d="M179.496 172.988L178.911 162.229L196.801 168.45L179.496 172.988Z" fill="#C4C4C4" />
    </g>
    <path
        d="M269.498 135.947C241.003 145.7 224.048 177.168 219.132 191.684C196.838 163.845 185.473 115.057 197.073 102.563C206.353 92.5682 249.223 120.655 269.498 135.947Z"
        fill="#FEB3A4" />
    <mask id="mask1_101_888" style="mask-type:alpha" maskUnits="userSpaceOnUse" x="192" y="100" width="78" height="92">
        <path
            d="M269.498 135.947C241.003 145.7 224.048 177.168 219.132 191.684C196.838 163.845 185.473 115.057 197.073 102.563C206.353 92.5682 249.223 120.655 269.498 135.947Z"
            fill="#FEB3A4" />
    </mask>
    <g mask="url(#mask1_101_888)">
        <path
            d="M233.434 126.476C212.304 126.113 215.843 170.645 220.254 192.956L275.447 136.921C270.247 133.59 254.565 126.838 233.434 126.476Z"
            fill="#FFE7E2" />
    </g>
    <mask id="mask2_101_888" style="mask-type:alpha" maskUnits="userSpaceOnUse" x="336" y="102" width="90" height="80">
        <path d="M407 182C389.5 149.5 362 125.5 336.5 113.5L378.5 102L426 114.5L407 182Z" fill="#C4C4C4" />
    </mask>
    <g mask="url(#mask2_101_888)">
        <path
            d="M387.523 106.854C400.862 107.344 401.85 145.221 400.73 164.563C390.154 146.576 363.427 151.113 351.387 154.885C343.024 152.66 336.129 144.181 333.671 140.501C346.063 129.081 374.183 106.364 387.523 106.854Z"
            fill="#A09B9B" />
        <mask id="mask3_101_888" style="mask-type:alpha" maskUnits="userSpaceOnUse" x="333" y="106" width="69"
            height="59">
            <path
                d="M387.523 106.854C400.862 107.344 401.85 145.221 400.73 164.563C390.154 146.576 363.427 151.113 351.387 154.885C343.024 152.66 336.129 144.181 333.671 140.501C346.063 129.081 374.183 106.364 387.523 106.854Z"
                fill="#A09B9B" />
        </mask>
        <g mask="url(#mask3_101_888)">
            <path d="M334.818 137.5C339.368 141.036 344.89 145.67 347.083 147.545L341.849 129.479L334.818 137.5Z"
                fill="#C4C4C4" />
            <path d="M345.838 124.466L351.23 120.256L355.042 133.103L345.838 124.466Z" fill="#C4C4C4" />
        </g>
        <path
            d="M401 172.5C384.653 159.096 361.242 152.398 351.715 154.692C357.463 131.472 378.474 107.214 389.584 109.61C398.471 111.527 400.988 154.981 401 172.5Z"
            fill="#FEB3A4" />
        <mask id="mask4_101_888" style="mask-type:alpha" maskUnits="userSpaceOnUse" x="351" y="109" width="50"
            height="65">
            <path
                d="M401 174C384.653 160.596 361.242 152.398 351.715 154.692C357.463 131.472 378.475 107.214 389.584 109.61C398.471 111.527 400.988 156.481 401 174Z"
                fill="#FEB3A4" />
        </mask>
        <g mask="url(#mask4_101_888)">
            <path
                d="M392.319 141.259C382.899 126.437 361.402 145.17 351.831 156.388L406.003 174.282C405.367 169.45 401.739 156.081 392.319 141.259Z"
                fill="#FFE7E2" />
        </g>
    </g>
</svg>