<svg width="1661" height="1881" viewBox="0 0 1661 1881" fill="none" xmlns="http://www.w3.org/2000/svg">
    <path
        d="M602.494 322.472C637.49 268.9 777.266 368.595 844.597 426.194C753.05 420.456 702.941 542.913 686.633 602.805C657.738 631.137 609.829 636.298 590.366 636.334C579.827 554.035 567.498 376.044 602.494 322.472Z"
        fill="#A09B9B" />
    <mask id="mask0_32_1" style="mask-type:alpha" maskUnits="userSpaceOnUse" x="579" y="307" width="266" height="330">
        <path
            d="M602.494 322.472C637.49 268.9 777.266 368.595 844.597 426.194C753.05 420.456 702.941 542.913 686.633 602.805C657.738 631.137 609.829 636.298 590.366 636.334C579.827 554.035 567.498 376.044 602.494 322.472Z"
            fill="#A09B9B" />
    </mask>
    <g mask="url(#mask0_32_1)">
        <path d="M582.345 623.393C606.496 614.347 637.047 604.308 649.304 600.42L570.775 572.475L582.345 623.393Z"
            fill="#C4C4C4" />
        <path d="M562.535 542.318L560.701 508.59L616.768 528.091L562.535 542.318Z" fill="#C4C4C4" />
    </g>
    <path
        d="M844.597 426.195C755.295 456.769 702.157 555.423 686.751 600.929C616.884 513.655 581.265 360.705 617.619 321.537C646.702 290.202 781.056 378.252 844.597 426.195Z"
        fill="#FEB3A4" />
    <mask id="mask1_32_1" style="mask-type:alpha" maskUnits="userSpaceOnUse" x="603" y="314" width="242" height="287">
        <path
            d="M844.597 426.195C755.295 456.769 702.157 555.423 686.751 600.929C616.884 513.655 581.265 360.705 617.619 321.537C646.702 290.202 781.056 378.252 844.597 426.195Z"
            fill="#FEB3A4" />
    </mask>
    <g mask="url(#mask1_32_1)">
        <path
            d="M731.574 396.502C665.351 395.365 676.444 534.972 690.268 604.917L863.24 429.247C846.944 418.806 797.796 397.639 731.574 396.502Z"
            fill="#FFE7E2" />
    </g>
    <mask id="mask2_32_1" style="mask-type:alpha" maskUnits="userSpaceOnUse" x="1054" y="319" width="282" height="252">
        <path
            d="M1275.52 570.57C1220.68 468.683 1134.49 393.443 1054.58 355.823L1186.2 319.77L1335.07 358.958L1275.52 570.57Z"
            fill="#C4C4C4" />
    </mask>
    <g mask="url(#mask2_32_1)">
        <path
            d="M1214.48 334.988C1256.29 336.524 1259.38 455.267 1255.87 515.905C1222.73 459.514 1138.96 473.74 1101.23 485.565C1075.02 478.588 1053.41 452.009 1045.71 440.471C1084.55 404.67 1172.68 333.452 1214.48 334.988Z"
            fill="#A09B9B" />
        <mask id="mask3_32_1" style="mask-type:alpha" maskUnits="userSpaceOnUse" x="1045" y="334" width="212"
            height="182">
            <path
                d="M1214.48 334.988C1256.29 336.524 1259.38 455.267 1255.87 515.905C1222.73 459.514 1138.96 473.74 1101.23 485.565C1075.02 478.588 1053.41 452.009 1045.71 440.471C1084.55 404.67 1172.68 333.452 1214.48 334.988Z"
                fill="#A09B9B" />
        </mask>
        <g mask="url(#mask3_32_1)">
            <path d="M1049.31 431.064C1063.57 442.149 1080.87 456.677 1087.74 462.554L1071.34 405.918L1049.31 431.064Z"
                fill="#C4C4C4" />
            <path d="M1083.84 390.201L1100.74 377.004L1112.69 417.279L1083.84 390.201Z" fill="#C4C4C4" />
        </g>
        <path
            d="M1256.72 540.787C1205.49 498.767 1132.12 477.767 1102.26 484.961C1120.28 412.165 1186.12 336.115 1220.94 343.628C1248.79 349.638 1256.68 485.866 1256.72 540.787Z"
            fill="#FEB3A4" />
        <mask id="mask4_32_1" style="mask-type:alpha" maskUnits="userSpaceOnUse" x="1102" y="343" width="155"
            height="203">
            <path
                d="M1256.72 545.49C1205.49 503.469 1132.12 477.767 1102.26 484.961C1120.28 412.165 1186.12 336.116 1220.94 343.628C1248.79 349.638 1256.68 490.569 1256.72 545.49Z"
                fill="#FEB3A4" />
        </mask>
        <g mask="url(#mask4_32_1)">
            <path
                d="M1229.51 442.847C1199.99 396.381 1132.62 455.107 1102.62 490.278L1272.4 546.373C1270.4 531.226 1259.04 489.314 1229.51 442.847Z"
                fill="#FFE7E2" />
        </g>
    </g>
</svg>