<svg width="1661" height="1881" viewBox="0 0 1661 1881" fill="none" xmlns="http://www.w3.org/2000/svg">
    <path fill-rule="evenodd" clip-rule="evenodd"
        d="M497.8 953.302C568.774 982.134 640.231 1023.64 684.416 1053.11L675.724 1066.15C632.158 1037.1 561.646 996.156 491.905 967.826C457.025 953.657 422.623 942.76 392.048 937.997C361.285 933.204 335.492 934.795 316.984 944.332L309.808 930.398C332.668 918.617 362.425 917.517 394.459 922.508C426.681 927.529 462.323 938.891 497.8 953.302ZM676.584 1336.75C685.36 1334.42 694.691 1331.95 704.848 1329.46L708.569 1344.69C699.263 1346.97 690.409 1349.32 681.869 1351.58C658.856 1357.69 638.128 1363.2 616.995 1364.99C587.293 1367.51 556.574 1362.86 515.437 1344.22L521.904 1329.94C560.997 1347.66 589.039 1351.63 615.67 1349.37C635.338 1347.7 654.143 1342.71 676.584 1336.75Z"
        fill="white" />
    <path
        d="M1211.28 974.985C990.645 973.731 765.209 1023.58 680.07 1048.66C723.945 1123.9 739.615 1235.19 695.74 1348.05C839.581 1429.56 1177.82 1556.84 1380.03 1413.89C1416.29 1376.84 1457.79 1317.21 1477.66 1235.19C1507.75 1111.04 1405.58 1019.4 1350.74 989.093C1320.65 984.077 1261.42 975.27 1211.28 974.985Z"
        fill="#F7F7F7" />
    <path
        d="M662.833 1061.2C670.355 1048.66 703.575 1038.73 722.378 1037.69C731.78 1047.09 751.211 1091.29 753.718 1192.87C756.852 1319.83 731.78 1355.89 728.646 1363.72C726.318 1369.55 684.771 1348.05 675.369 1343.35C665.967 1338.64 665.967 1329.24 675.369 1308.86C695.598 1265.02 684.771 1138.01 675.369 1109.79C667.847 1087.22 665.967 1069.56 662.833 1061.2Z"
        fill="#EDEDED" />
    <path
        d="M1281.79 1078.44C1171.47 1063.39 949.59 1134.87 852.438 1172.49C1210.96 1082.2 1421.77 1134.87 1482.36 1172.49C1461.47 1147.41 1392.11 1093.49 1281.79 1078.44Z"
        fill="#EDEDED" />
    <path
        d="M977.796 1263.4C1059.28 1302.07 1264.24 1361.22 1432.22 1288.48C1353.87 1351.18 1153.3 1433.95 977.796 1263.4Z"
        fill="#EDEDED" />
</svg>