<svg width="530" height="600" viewBox="0 0 530 600" fill="none" xmlns="http://www.w3.org/2000/svg">
    <path fill-rule="evenodd" clip-rule="evenodd"
        d="M158.841 304.084C181.487 313.28 204.288 326.521 218.387 335.92L215.613 340.08C201.712 330.813 179.213 317.753 156.959 308.716C145.83 304.197 134.853 300.721 125.097 299.201C115.281 297.673 107.051 298.18 101.145 301.222L98.8551 296.778C106.149 293.02 115.644 292.669 125.866 294.261C136.147 295.862 147.52 299.487 158.841 304.084ZM215.888 426.397C218.688 425.654 221.666 424.864 224.906 424.072L226.094 428.928C223.124 429.654 220.299 430.404 217.574 431.127C210.231 433.076 203.617 434.831 196.874 435.404C187.396 436.208 177.594 434.725 164.468 428.777L166.532 424.223C179.006 429.875 187.954 431.142 196.451 430.421C202.727 429.889 208.727 428.297 215.888 426.397Z"
        fill="white" />
    <path
        d="M386.5 311C316.1 310.6 244.167 326.5 217 334.5C231 358.5 236 394 222 430C267.898 456 375.824 496.6 440.347 451C451.918 439.183 465.157 420.164 471.5 394C481.1 354.4 448.5 325.167 431 315.5C421.4 313.9 402.5 311.091 386.5 311Z"
        fill="#F7F7F7" />
    <path
        d="M211.5 338.5C213.9 334.5 224.5 331.333 230.5 331C233.5 334 239.7 348.1 240.5 380.5C241.5 421 233.5 432.5 232.5 435C231.757 436.857 218.5 430 215.5 428.5C212.5 427 212.5 424 215.5 417.5C221.955 403.515 218.5 363 215.5 354C213.1 346.8 212.5 341.167 211.5 338.5Z"
        fill="#EDEDED" />
    <path d="M409 344C373.8 339.2 303 362 272 374C386.4 345.2 453.667 362 473 374C466.333 366 444.2 348.8 409 344Z"
        fill="#EDEDED" />
    <path d="M312 403C338 415.333 403.4 434.2 457 411C432 431 368 457.4 312 403Z" fill="#EDEDED" />
</svg>