<svg width="530" height="600" viewBox="0 0 530 600" fill="none" xmlns="http://www.w3.org/2000/svg">
    <path fill-rule="evenodd" clip-rule="evenodd"
        d="M479.063 283.263L430 281.5L429.5 271L479.286 273.265L479.063 283.263Z" fill="#896307" />
    <path fill-rule="evenodd" clip-rule="evenodd"
        d="M304.05 220.73C276.843 225.015 257.945 252.888 262.802 283.722C267.659 314.556 294.209 335.27 321.417 330.985C348.624 326.699 367.521 298.826 362.665 267.992C357.808 237.158 331.258 216.444 304.05 220.73ZM252.152 272.906C252.671 242.258 273.051 215.489 302.494 210.851C335.843 205.599 366.855 230.937 372.448 266.451C372.45 266.458 372.451 266.465 372.452 266.473C373.481 266.058 374.604 265.659 375.801 265.311C379.44 264.253 384.024 263.604 388.795 264.6C389.404 252.102 393.039 240.625 398.953 231.562C406.306 220.296 417.377 212.538 430.54 211.849C443.683 211.161 455.692 217.69 464.508 228.054C473.327 238.421 479.205 252.86 480.322 268.899C481.439 284.936 477.61 299.916 470.263 311.173C462.911 322.439 451.84 330.197 438.677 330.886C425.534 331.574 413.525 325.045 404.709 314.682C396.115 304.58 390.314 290.611 388.99 275.065C385.561 273.662 381.925 273.943 378.57 274.919C376.479 275.527 374.653 276.369 373.323 277.081C373.556 308.445 352.968 336.138 322.973 340.863C289.624 346.116 258.612 320.777 253.018 285.263C252.905 284.546 252.804 283.831 252.713 283.116L166.271 269.192C150.055 266.949 133.868 267.693 121.914 271.706C109.923 275.732 103.595 290.541 103.405 299.738L93.5 299.5C93.8163 284.209 104.921 266.866 118.762 262.219C132.628 257.564 150.475 256.913 167.644 259.295L167.698 259.302L252.152 272.906ZM407.232 237.078C401.196 246.328 397.797 259.088 398.777 273.165C399.757 287.24 404.905 299.587 412.217 308.182C419.532 316.781 428.76 321.392 438.135 320.902C447.49 320.412 455.955 314.898 461.985 305.657C468.021 296.408 471.42 283.647 470.44 269.57C469.46 255.495 464.312 243.149 456.999 234.553C449.684 225.954 440.457 221.343 431.082 221.833C421.727 222.323 413.262 227.838 407.232 237.078Z"
        fill="#C5900F" />
</svg>