<svg width="1661" height="1881" viewBox="0 0 1661 1881" fill="none" xmlns="http://www.w3.org/2000/svg">
    <path fill-rule="evenodd" clip-rule="evenodd"
        d="M1501.36 888.029L1347.6 882.502L1346.04 849.585L1502.06 856.687L1501.36 888.029Z" fill="#333333" />
    <path fill-rule="evenodd" clip-rule="evenodd"
        d="M952.882 691.987C867.614 705.422 808.391 792.804 823.612 889.468C838.833 986.133 922.041 1051.07 1007.31 1037.64C1092.58 1024.2 1151.8 936.82 1136.58 840.156C1121.36 743.491 1038.15 678.552 952.882 691.987ZM790.234 855.56C791.862 759.48 855.732 675.558 948.005 661.019C1052.52 644.551 1149.71 723.989 1167.24 835.325C1167.24 835.347 1167.25 835.369 1167.25 835.391C1170.48 834.092 1173.99 832.842 1177.75 831.751C1189.15 828.433 1203.52 826.399 1218.47 829.521C1220.38 790.338 1231.77 754.36 1250.3 725.947C1273.35 690.627 1308.04 666.306 1349.3 664.147C1390.49 661.991 1428.12 682.458 1455.75 714.948C1483.39 747.449 1501.81 792.717 1505.31 842.997C1508.81 893.275 1496.81 940.237 1473.79 975.528C1450.75 1010.85 1416.05 1035.17 1374.8 1037.33C1333.61 1039.48 1295.97 1019.02 1268.34 986.527C1241.41 954.858 1223.23 911.066 1219.08 862.327C1208.33 857.93 1196.94 858.811 1186.42 861.87C1179.87 863.776 1174.15 866.416 1169.98 868.65C1170.71 966.973 1106.19 1053.79 1012.18 1068.6C907.671 1085.07 810.481 1005.64 792.95 894.299C792.596 892.053 792.277 889.809 791.993 887.568L521.087 843.916C470.265 836.884 419.537 839.217 382.074 851.799C344.495 864.419 324.662 910.847 324.066 939.679L293.025 938.932C294.016 890.996 328.817 836.623 372.196 822.055C415.65 807.462 471.584 805.422 525.391 812.889L525.558 812.912L790.234 855.56ZM1276.25 743.239C1257.33 772.237 1246.68 812.241 1249.75 856.372C1252.82 900.499 1268.96 939.204 1291.87 966.151C1314.8 993.109 1343.72 1007.56 1373.1 1006.03C1402.42 1004.49 1428.94 987.204 1447.84 958.235C1466.76 929.238 1477.41 889.233 1474.34 845.103C1471.27 800.976 1455.13 762.271 1432.22 735.324C1409.29 708.366 1380.38 693.91 1350.99 695.448C1321.68 696.982 1295.15 714.27 1276.25 743.239Z"
        fill="#FFD45B" />
</svg>