<svg width="1661" height="1881" viewBox="0 0 1661 1881" fill="none" xmlns="http://www.w3.org/2000/svg">
    <path fill-rule="evenodd" clip-rule="evenodd"
        d="M1233.23 1033.55C1261.61 1017.16 1329.52 988.823 1376.5 1005.31C1403.58 1014.81 1423 1036.34 1440.08 1055.27C1459.68 1076.99 1476.21 1095.31 1497.72 1088.18C1498.04 1088.07 1498.34 1088.46 1498.08 1088.67C1484.98 1099.81 1416.54 1153.5 1371.76 1155.71C1320.69 1158.24 1295.91 1133.73 1257.61 1095.83C1253.84 1092.1 1249.93 1088.24 1245.86 1084.26C1233.77 1116.31 1189.33 1158.62 1087.86 1209.49C897.359 1305 774.599 1194.22 718.204 1125.29C717.971 1125.01 718.444 1124.64 718.731 1124.87C743.084 1144.44 766.833 1133.72 837.301 1101.21C866.726 1087.64 893.142 1073.71 917.722 1060.75C978.26 1028.84 1027.66 1002.8 1083.42 1002.33C1146.15 1001.8 1211.88 1022.07 1231.42 1032.1C1232.03 1032.57 1232.64 1033.05 1233.23 1033.55Z"
        fill="#71472D" />
    <path
        d="M1064.41 1058.19C1098.76 1042.97 1166.43 1054.62 1195.98 1062.34C1092.61 1059.08 1063.18 1097.36 980.255 1141.79C913.915 1177.34 849.079 1158.56 824.954 1144.73C911.87 1172.57 1021.48 1077.22 1064.41 1058.19Z"
        fill="#5E351B" />
    <path
        d="M1148.88 1114.18C1123.04 1137.93 1060.39 1185.72 1016.46 1186.85C1049.11 1162.26 1121.31 1113.31 1148.88 1114.18Z"
        fill="#5E351B" />
    <path
        d="M1289.07 1043.33C1303.4 1036.46 1338.49 1027.32 1364.25 1045.7C1393.22 1066.36 1415.92 1084.29 1430.56 1084.59C1432.28 1084.43 1433.82 1084.23 1435.16 1084.01C1433.73 1084.43 1432.2 1084.62 1430.56 1084.59C1415.43 1085.98 1386.69 1084.14 1363.56 1067.63C1337.8 1049.25 1303.17 1043.77 1289.07 1043.33Z"
        fill="#5E351B" />
</svg>