<svg width="530" height="600" viewBox="0 0 530 600" fill="none" xmlns="http://www.w3.org/2000/svg">
    <path
        d="M148 160C249.868 148.8 350.992 197.833 377.48 220.5C387.055 209.3 402.852 195.833 413.862 194.5C416.543 200.5 420.883 215.5 422 219C405.915 219 388.491 238.833 379.874 252.5C313 194.5 219.784 194.5 125 194.5C133.617 175 140.979 166.667 148 160Z"
        fill="#FFC00C" />
    <mask id="mask0_104_24" style="mask-type:alpha" maskUnits="userSpaceOnUse" x="125" y="158" width="297" height="95">
        <path
            d="M148.5 160.5C250.368 149.3 350.992 197.833 377.48 220.5C387.055 209.3 402.852 195.833 413.862 194.5C416.543 200.5 420.883 215.5 422 219C405.915 219 388.491 238.833 379.874 252.5C304 190 218.5 197.5 125 194.5C133.617 175 141.479 167.167 148.5 160.5Z"
            fill="#FFC00C" />
    </mask>
    <g mask="url(#mask0_104_24)">
        <path d="M343.971 240.5L366.352 203.879L360.284 194.439L333.918 232L343.971 240.5Z" fill="#FFD45B" />
        <path d="M388.491 246.5L416.734 191L430.617 194.439L396.15 249L388.491 246.5Z" fill="#FFD45B" />
        <path d="M327.275 225.777L353.066 191L348.136 188.019L323.103 221.803L327.275 225.777Z" fill="#FFD45B" />
        <path d="M275.995 215L306.632 178.5L292.271 171.5L256.368 212.5L275.995 215Z" fill="#FFD45B" />
    </g>
    <ellipse cx="378.155" cy="232.5" rx="8.81253" ry="13.5" fill="#FF3C15" />
    <mask id="mask1_104_24" style="mask-type:alpha" maskUnits="userSpaceOnUse" x="369" y="219" width="18" height="27">
        <ellipse cx="378.155" cy="232.5" rx="8.81253" ry="13.5" fill="#FF3C15" />
    </mask>
    <g mask="url(#mask1_104_24)">
        <path
            d="M388.142 226.977C383.912 238.268 375.022 242.727 371.105 243.545C372.28 245.386 376.04 248.7 381.68 247.227C387.32 245.755 388.338 233.114 388.142 226.977Z"
            fill="#CB1414" />
        <ellipse cx="2.95116" cy="4.88808" rx="2.95116" ry="4.88808"
            transform="matrix(0.943016 0.332748 -0.307743 0.951469 374.701 220.227)" fill="#FF7256" />
    </g>
</svg>