<svg width="1661" height="1881" viewBox="0 0 1661 1881" fill="none" xmlns="http://www.w3.org/2000/svg">
    <path
        d="M463.826 501.6C783.078 466.488 1100 620.208 1183.01 691.268C1213.01 656.156 1262.52 613.938 1297.03 609.758C1305.43 628.568 1319.03 675.593 1322.53 686.565C1272.12 686.565 1217.52 748.743 1190.51 791.588C980.93 609.758 688.794 609.758 391.745 609.758C418.75 548.625 441.823 522.5 463.826 501.6Z"
        fill="#FFC00C" />
    <mask id="mask0_32_1" style="mask-type:alpha" maskUnits="userSpaceOnUse" x="391" y="497" width="932" height="295">
        <path
            d="M465.393 503.168C784.645 468.056 1100 620.208 1183.01 691.268C1213.01 656.156 1262.52 613.938 1297.03 609.758C1305.43 628.568 1319.03 675.593 1322.53 686.565C1272.12 686.565 1217.52 748.743 1190.51 791.588C952.725 595.65 684.771 619.162 391.745 609.757C418.75 548.625 443.39 524.068 465.393 503.168Z"
            fill="#FFC00C" />
    </mask>
    <g mask="url(#mask0_32_1)">
        <path d="M1077.99 753.967L1148.13 639.16L1129.12 609.568L1046.49 727.32L1077.99 753.967Z" fill="#FFD45B" />
        <path d="M1217.52 772.777L1306.03 598.785L1349.54 609.568L1241.52 780.615L1217.52 772.777Z" fill="#FFD45B" />
        <path d="M1025.67 707.811L1106.5 598.785L1091.04 589.44L1012.59 695.351L1025.67 707.811Z" fill="#FFD45B" />
        <path d="M864.958 674.025L960.973 559.597L915.966 537.652L803.448 666.187L864.958 674.025Z" fill="#FFD45B" />
    </g>
    <ellipse cx="1185.12" cy="728.887" rx="27.6182" ry="42.3225" fill="#FF3C15" />
    <mask id="mask1_32_1" style="mask-type:alpha" maskUnits="userSpaceOnUse" x="1157" y="686" width="56" height="86">
        <ellipse cx="1185.12" cy="728.887" rx="27.6182" ry="42.3225" fill="#FF3C15" />
    </mask>
    <g mask="url(#mask1_32_1)">
        <path
            d="M1216.42 711.574C1203.17 746.971 1175.3 760.95 1163.03 763.515C1166.71 769.286 1178.49 779.675 1196.17 775.058C1213.85 770.441 1217.04 730.811 1216.42 711.574Z"
            fill="#CB1414" />
        <ellipse cx="9.24915" cy="15.3237" rx="9.24915" ry="15.3237"
            transform="matrix(0.942981 0.332847 -0.307651 0.951499 1174.3 690.413)" fill="#FF7256" />
    </g>
</svg>