<svg width="1661" height="1881" viewBox="0 0 1661 1881" fill="none" xmlns="http://www.w3.org/2000/svg">
    <path
        d="M310.262 815.1C330.633 815.1 614.257 807.785 708.275 793.155L794.459 974.985C666.594 1005.08 498.822 1005.29 430.92 1001.63C377.016 940.186 305.039 933.185 275.789 937.365C277.042 909.777 289.891 815.1 310.262 815.1Z"
        fill="#5E0E56" />
    <path
        d="M1373.59 733.824C1169.16 532.492 873.709 616.894 748.645 712.538C720.811 733.824 696.914 760.632 686.338 804.127C674.03 854.746 678.208 946.227 779.768 1008.33C881.328 1070.43 1007.46 1027.94 1036.95 1008.33C1066.43 988.716 1121.33 943 1196.68 946.268C1256.96 948.883 1304.79 977.863 1321.17 992.026C1351.75 1004.01 1407.15 986.428 1407.15 879.225C1407.15 772.022 1386.7 742.539 1373.59 733.824Z"
        fill="#9A3E91" />
    <path fill-rule="evenodd" clip-rule="evenodd"
        d="M1030.42 847.29C1042.38 825.812 1044.32 802.449 1042.41 787.136L1026.86 789.085C1028.64 803.311 1026.32 826.468 1012.78 846.008C1001.89 861.725 983.364 875.68 952.293 880.65C919.919 885.828 894.364 879.668 875.222 869.615C852.917 857.901 839.15 840.805 833.583 829.741L819.586 836.789C825.787 849.113 839.144 865.891 859.765 878.798L832.212 913.323L844.458 923.103L873.775 886.367C893.32 895.366 917.738 900.493 946.978 897.192L954.386 944.506L969.867 942.081L962.447 894.69C989.967 888.758 1008.96 875.933 1021.56 860.392L1051.09 875.072L1058.07 861.035L1030.42 847.29Z"
        fill="#F9ACF1" />
    <path fill-rule="evenodd" clip-rule="evenodd"
        d="M1345.56 866.96C1360.05 855.759 1368.96 840.401 1372.89 829.294L1358.12 824.058C1354.47 834.355 1345.31 849.346 1330.61 858.241C1318.92 865.318 1303.28 868.836 1282.86 862.437C1261.41 855.718 1247.91 843.557 1239.56 830.782C1229.78 815.82 1226.98 799.859 1227.22 790.613L1211.56 790.198C1211.28 800.667 1213.87 816.341 1222.06 831.906L1194.38 846.217L1201.57 860.142L1230.56 845.153C1239.68 856.954 1252.68 867.68 1270.71 874.768L1259.85 908.404L1274.76 913.224L1285.68 879.421C1303.82 883.517 1319.37 881.13 1332.17 875.154L1344.49 893.078L1357.4 884.201L1345.56 866.96Z"
        fill="#F9ACF1" />
</svg>