<svg width="530" height="600" viewBox="0 0 530 600" fill="none" xmlns="http://www.w3.org/2000/svg">
    <path
        d="M99 260C105.5 260 196 257.667 226 253L253.5 311C212.7 320.6 159.167 320.667 137.5 319.5C120.3 299.9 97.3333 297.667 88 299C88.4 290.2 92.5 260 99 260Z"
        fill="#5E0E56" />
    <path
        d="M438.292 234.075C373.061 169.854 278.787 196.776 238.881 227.285C230 234.075 222.375 242.626 219 256.5C215.073 272.646 216.406 301.827 248.812 321.635C281.219 341.443 321.465 327.89 330.873 321.635C340.282 315.38 357.799 300.797 381.842 301.84C401.077 302.674 416.339 311.918 421.566 316.436C431.323 320.258 449 314.65 449 280.455C449 246.259 442.474 236.855 438.292 234.075Z"
        fill="#9A3E91" />
    <path fill-rule="evenodd" clip-rule="evenodd"
        d="M328.791 270.268C332.609 263.417 333.228 255.965 332.616 251.08L327.655 251.702C328.223 256.24 327.482 263.626 323.162 269.859C319.687 274.872 313.777 279.324 303.863 280.909C293.532 282.561 285.378 280.596 279.27 277.389C272.153 273.653 267.76 268.199 265.984 264.67L261.518 266.918C263.496 270.849 267.758 276.201 274.338 280.319L265.546 291.331L269.454 294.451L278.808 282.733C285.045 285.603 292.836 287.239 302.167 286.186L304.53 301.278L309.47 300.504L307.103 285.388C315.884 283.495 321.944 279.405 325.966 274.447L335.387 279.13L337.613 274.652L328.791 270.268Z"
        fill="#F9ACF1" />
    <path fill-rule="evenodd" clip-rule="evenodd"
        d="M429.348 276.542C433.97 272.969 436.814 268.07 438.069 264.528L433.357 262.857C432.192 266.142 429.269 270.923 424.579 273.761C420.848 276.018 415.858 277.14 409.34 275.099C402.497 272.956 398.189 269.077 395.525 265.002C392.404 260.23 391.51 255.138 391.588 252.189L386.59 252.057C386.501 255.396 387.326 260.396 389.941 265.361L381.107 269.926L383.403 274.367L392.655 269.586C395.564 273.35 399.71 276.772 405.465 279.033L401.998 289.762L406.756 291.299L410.24 280.517C416.03 281.823 420.991 281.062 425.077 279.156L429.005 284.873L433.126 282.042L429.348 276.542Z"
        fill="#F9ACF1" />
</svg>