<svg width="1661" height="1881" viewBox="0 0 1661 1881" fill="none" xmlns="http://www.w3.org/2000/svg">
    <g style="mix-blend-mode:multiply">
        <path fill-rule="evenodd" clip-rule="evenodd"
            d="M808.391 902.567C818.805 957.203 842.576 1009.36 887.29 1026.33C978.175 1060.81 1109.8 1035.73 1128.61 1015.36C1136.4 1006.91 1147.68 973.447 1156.9 934.911C1202.84 913.315 1243.39 921.696 1265.31 932.151C1269.88 963.795 1275.33 990.781 1279.13 997.79C1288.67 1015.38 1355.48 1037.03 1401.62 1007.26C1447.75 977.491 1449.34 797.515 1440.59 778.57C1429.95 755.535 1266.12 766.508 1259.25 809.693C1254.05 824.425 1257.58 873.639 1263.41 918.267C1239.29 908.812 1201.94 903.522 1160.22 920.363C1171.32 869.447 1177.83 814.223 1167.78 797.474C1151.73 742.995 817.964 719.483 810.509 761.422C801.812 785.226 798.179 837.718 806.263 890.198C669.88 872.8 442.128 844.155 392.374 838.916C376.263 837.219 345.205 841.386 319.189 856.55C306.073 864.195 293.99 874.779 285.831 889.082C277.634 903.45 273.611 921.207 276.096 942.755L288.017 941.38C285.802 922.174 289.417 907.013 296.254 895.028C303.128 882.977 313.472 873.771 325.232 866.917C348.968 853.082 377.455 849.411 391.117 850.85C441.158 856.119 672.411 885.213 808.391 902.567Z"
            fill="#595757" />
    </g>
    <g style="mix-blend-mode:screen" opacity="0.2">
        <mask id="mask0_32_1" style="mask-type:alpha" maskUnits="userSpaceOnUse" x="275" y="740" width="1170"
            height="304">
            <g style="mix-blend-mode:multiply">
                <path fill-rule="evenodd" clip-rule="evenodd"
                    d="M807.767 897.791C817.824 955.804 841.81 1012.72 890.045 1028.28C987.198 1059.63 1109.8 1035.49 1128.61 1014.46C1136.51 1005.62 1148.76 970.682 1158.35 930.572C1203.71 909.135 1243.62 917.731 1265.29 928.408C1269.86 961.143 1275.32 989.084 1279.13 996.331C1288.67 1014.48 1355.48 1036.83 1401.61 1006.11C1447.75 975.383 1449.34 789.652 1440.59 770.102C1399.76 756.137 1313.33 746.361 1259.25 802.22C1254.04 817.444 1257.58 868.349 1263.43 914.454C1239.58 904.811 1202.8 899.373 1161.66 916.016C1172.81 864.27 1178.38 808.286 1164.27 790.02C1121.96 746.13 886.912 724.185 811.696 755.535C803.202 766.696 797.371 825.113 805.832 885.433C669.399 867.473 442.095 837.971 392.393 832.57C376.238 830.814 345.146 835.126 319.118 850.783C305.991 858.678 293.927 869.594 285.791 884.312C277.624 899.086 273.617 917.334 276.094 939.494L288.019 938.161C285.795 918.262 289.427 902.54 296.293 890.118C303.191 877.64 313.554 868.133 325.303 861.066C349.026 846.796 377.48 843.02 391.097 844.5C441.062 849.929 671.707 879.873 807.767 897.791Z"
                    fill="#595757" />
            </g>
        </mask>
        <g mask="url(#mask0_32_1)">
            <path d="M952.156 701.065L746.202 986.01L802.68 1029.14L1067.82 692.835L952.156 701.065Z" fill="white" />
            <path d="M1078.86 737.813L836.602 1038.87L845.845 1108.9L1143.32 759.735L1078.86 737.813Z" fill="white" />
            <path d="M1488.01 726.089L1245.75 1027.15L1255 1097.17L1552.47 748.012L1488.01 726.089Z" fill="white" />
        </g>
    </g>
</svg>