<svg width="530" height="600" viewBox="0 0 530 600" fill="none" xmlns="http://www.w3.org/2000/svg">
    <g style="mix-blend-mode:multiply">
        <path fill-rule="evenodd" clip-rule="evenodd"
            d="M258.843 292.134C262.547 307.962 270.014 322.406 283.121 327.378C312.121 338.378 354.121 330.378 360.121 323.878C362.243 321.579 365.177 313.467 367.819 303.497C384.899 293.9 399.632 299.099 404.528 302.464C405.792 310.243 407.15 316.429 408.151 318.274C411.197 323.886 432.515 330.792 447.234 321.296C461.954 311.799 462.461 254.391 459.67 248.348C456.275 241 404 244.5 401.806 258.275C400.324 262.478 401.067 275.48 402.571 288.364C394.573 285.697 383.457 284.577 371.191 288.841C374.103 274.045 375.517 259.204 372.621 254.378C367.5 237 261 229.5 258.621 242.878C256.078 249.836 254.892 264.48 256.697 279.763C213.081 274.203 141.426 265.196 125.628 263.533C119.654 262.904 108.869 264.402 99.7918 269.691C95.145 272.398 90.697 276.244 87.6559 281.573C84.5773 286.968 83.1544 293.516 84.0396 301.188L95.9605 299.812C95.3456 294.484 96.3602 290.532 98.0784 287.521C99.8343 284.444 102.542 281.977 105.833 280.059C112.631 276.098 120.846 275.096 124.372 275.467C140.459 277.16 215.644 286.62 258.843 292.134Z"
            fill="#595757" />
    </g>
    <g style="mix-blend-mode:screen" opacity="0.2">
        <mask id="mask0_39_14" style="mask-type:alpha" maskUnits="userSpaceOnUse" x="83" y="236" width="378"
            height="97">
            <g style="mix-blend-mode:multiply">
                <path fill-rule="evenodd" clip-rule="evenodd"
                    d="M258.561 290.605C262.17 307.578 269.785 323.414 284 328C315 338 354.121 330.299 360.121 323.591C362.286 321.171 365.477 312.607 368.272 302.132C385.192 292.528 399.704 297.884 404.5 301.317C405.771 309.427 407.142 315.891 408.151 317.809C411.196 323.6 432.514 330.727 447.234 320.927C461.954 311.127 462.461 251.883 459.67 245.646C446.642 241.192 419.064 238.074 401.806 255.892C400.317 260.25 401.074 273.774 402.593 287.132C394.677 284.416 383.722 283.257 371.629 287.461C374.507 272.4 375.575 257.273 371.5 252C358 238 283 231 259 241C256.487 244.301 254.705 260.559 256.61 278.245C212.984 272.506 141.435 263.225 125.648 261.51C119.629 260.856 108.811 262.414 99.7205 267.88C95.0632 270.681 90.6343 274.642 87.6163 280.1C84.5676 285.613 83.1606 292.295 84.037 300.133L95.9627 298.8C95.3392 293.223 96.3696 289.068 98.1178 285.907C99.8967 282.689 102.624 280.136 105.904 278.164C112.689 274.084 120.87 273.062 124.352 273.44C140.405 275.184 215.32 284.91 258.561 290.605Z"
                    fill="#595757" />
            </g>
        </mask>
        <g mask="url(#mask0_39_14)">
            <path d="M303.819 223.625L238.102 314.517L256.123 328.273L340.725 221L303.819 223.625Z" fill="white" />
            <path d="M344.247 235.347L266.947 331.379L269.896 353.715L364.815 242.34L344.247 235.347Z" fill="white" />
            <path d="M474.801 231.607L397.501 327.639L400.45 349.975L495.369 238.6L474.801 231.607Z" fill="white" />
        </g>
    </g>
</svg>