<svg width="530" height="600" viewBox="0 0 530 600" fill="none" xmlns="http://www.w3.org/2000/svg">
    <path fill-rule="evenodd" clip-rule="evenodd"
        d="M396.994 294.273C401.343 292.769 408.304 289.899 413.9 286.189C417.025 289.677 418.941 295.283 418.931 300.271C418.916 308.232 415.314 316.78 406.095 315.798C398.358 314.973 396.382 304.814 396.392 299.813C396.396 297.918 396.604 296.045 396.994 294.273Z"
        fill="#2A1200" />
    <path fill-rule="evenodd" clip-rule="evenodd"
        d="M301.243 283.111C298.448 286.85 296.615 292.148 296.603 298.547C296.579 311.002 302.75 317.539 312.022 320.022C324.901 321.998 331.104 312.359 331.126 300.483C331.131 298.33 330.854 296.186 330.336 294.119C323.754 294.178 312.772 291.916 301.243 283.111Z"
        fill="#2A1200" />
    <path
        d="M332.092 270.313C318.45 272.776 303.701 267.92 293.678 257.724C290.447 254.437 289.456 248.524 292.705 244.692C295.707 241.146 301.261 239.981 304.72 243.504C305.756 244.561 306.837 245.56 307.981 246.484C308.336 246.771 309.319 247.276 309.633 247.704C309.806 247.814 309.975 247.924 310.151 248.03C311.238 248.688 312.354 249.288 313.495 249.83C314.149 250.14 314.808 250.426 315.476 250.697C315.687 250.781 315.898 250.862 316.112 250.942C316.695 251.033 317.368 251.336 317.902 251.472C318.597 251.649 319.293 251.803 319.998 251.937C321.228 252.17 322.468 252.341 323.713 252.444C323.888 252.459 324.059 252.469 324.234 252.479C324.904 252.464 325.574 252.465 326.245 252.427C327.673 252.342 329.093 252.158 330.505 251.906C334.913 251.108 339.574 255.38 339.789 260.158C340.019 265.417 336.815 269.459 332.092 270.313Z"
        fill="#71472D" />
    <path
        d="M421.666 261.428C415.779 267.492 407.916 270.899 399.935 271.073C397.781 271.12 395.44 269.962 393.999 268.323C392.58 266.709 391.571 264.077 391.755 261.781C391.948 259.398 392.777 256.929 394.518 255.282C396.283 253.613 398.331 252.685 400.67 252.631C401.054 252.623 401.432 252.569 401.816 252.542C402.969 252.32 404.099 252.004 405.214 251.603C406.507 250.973 407.74 250.225 408.918 249.358C409.312 249.003 409.723 248.669 410.097 248.285C411.71 246.626 414.061 245.615 416.25 245.633C418.344 245.651 420.808 246.677 422.184 248.387C423.61 250.157 424.626 252.473 424.429 254.929C424.233 257.376 423.372 259.671 421.666 261.428Z"
        fill="#71472D" />
</svg>