<svg width="1661" height="1881" viewBox="0 0 1661 1881" fill="none" xmlns="http://www.w3.org/2000/svg">
    <path fill-rule="evenodd" clip-rule="evenodd"
        d="M1244.16 922.547C1257.79 917.83 1279.61 908.833 1297.15 897.204C1306.94 908.137 1312.95 925.711 1312.92 941.35C1312.87 966.306 1301.58 993.106 1272.69 990.025C1248.44 987.439 1242.25 955.592 1242.28 939.915C1242.29 933.972 1242.94 928.1 1244.16 922.547Z"
        fill="#2A1200" />
    <path fill-rule="evenodd" clip-rule="evenodd"
        d="M944.085 887.552C935.326 899.275 929.58 915.883 929.541 935.946C929.466 974.99 948.808 995.484 977.864 1003.27C1018.23 1009.46 1037.67 979.245 1037.74 942.014C1037.75 935.266 1036.88 928.544 1035.26 922.062C1014.63 922.247 980.216 915.155 944.085 887.552Z"
        fill="#2A1200" />
    <path
        d="M1040.77 847.431C998.011 855.153 951.787 839.93 920.378 807.966C910.25 797.66 907.143 779.122 917.328 767.108C926.736 755.993 944.141 752.34 954.98 763.386C958.23 766.698 961.616 769.831 965.201 772.726C966.315 773.628 969.395 775.21 970.379 776.553C970.92 776.897 971.45 777.241 972.003 777.573C975.408 779.636 978.905 781.517 982.482 783.217C984.532 784.188 986.598 785.086 988.69 785.935C989.351 786.199 990.012 786.451 990.684 786.704C992.512 786.989 994.621 787.939 996.292 788.364C998.471 788.92 1000.65 789.401 1002.86 789.822C1006.72 790.554 1010.6 791.088 1014.51 791.412C1015.05 791.458 1015.59 791.49 1016.14 791.523C1018.24 791.476 1020.34 791.479 1022.44 791.357C1026.92 791.093 1031.36 790.516 1035.79 789.725C1049.61 787.224 1064.21 800.617 1064.89 815.594C1065.61 832.082 1055.57 844.753 1040.77 847.431Z"
        fill="#451E00" />
    <path
        d="M1321.49 819.576C1303.04 838.587 1278.39 849.269 1253.38 849.814C1246.63 849.96 1239.29 846.331 1234.78 841.193C1230.33 836.132 1227.17 827.882 1227.75 820.684C1228.35 813.213 1230.95 805.474 1236.4 800.311C1241.94 795.076 1248.36 792.167 1255.69 791.998C1256.89 791.973 1258.07 791.806 1259.28 791.718C1262.89 791.023 1266.43 790.031 1269.92 788.774C1273.98 786.801 1277.84 784.455 1281.53 781.739C1282.77 780.626 1284.06 779.577 1285.23 778.373C1290.28 773.172 1297.65 770.004 1304.51 770.06C1311.08 770.115 1318.8 773.333 1323.11 778.694C1327.58 784.243 1330.76 791.504 1330.14 799.202C1329.53 806.875 1326.83 814.07 1321.49 819.576Z"
        fill="#451E00" />
</svg>