<svg width="1661" height="1881" viewBox="0 0 1661 1881" fill="none" xmlns="http://www.w3.org/2000/svg">
    <path
        d="M941.281 969.227C968.961 968.726 996.671 978.7 1021.19 993.597C1035.89 978.569 1042.96 952.893 1037.43 926.072C1029.68 888.431 1000.37 863.192 971.969 869.706C943.566 876.22 926.836 912.022 934.596 949.662C936.04 956.728 938.456 963.176 941.281 969.227Z"
        fill="#2A1200" />
    <path
        d="M1304.07 973.817C1308.16 964.796 1310.55 953.778 1310.32 941.744C1309.76 911.841 1293.74 887.716 1274.56 887.881C1255.37 888.033 1240.27 912.41 1240.83 942.326C1241.15 958.775 1246.23 973.301 1253.84 983.171C1269.86 976.958 1286.87 973.991 1304.07 973.817Z"
        fill="#2A1200" />
    <path
        d="M1045.16 748.249C1002.28 741.274 956.326 757.3 925.479 789.807C915.532 800.288 912.749 818.878 923.142 830.713C932.742 841.661 950.208 845.011 960.853 833.777C964.044 830.409 967.376 827.218 970.909 824.26C972.008 823.339 975.059 821.703 976.02 820.343C976.555 819.99 977.078 819.637 977.625 819.295C980.995 817.173 984.458 815.231 988.005 813.47C990.038 812.463 992.088 811.529 994.165 810.644C994.82 810.368 995.477 810.104 996.145 809.84C997.968 809.523 1000.06 808.536 1001.72 808.082C1003.89 807.489 1006.07 806.969 1008.27 806.51C1012.11 805.711 1015.99 805.109 1019.88 804.717C1020.43 804.662 1020.96 804.62 1021.51 804.577C1023.61 804.588 1025.71 804.549 1027.82 804.633C1032.29 804.82 1036.75 805.319 1041.19 806.033C1055.05 808.292 1069.42 794.647 1069.83 779.66C1070.27 763.162 1060.01 750.669 1045.16 748.249Z"
        fill="#451E00" />
    <path
        d="M1333.06 797.513C1317.49 776.08 1294.6 762.016 1269.92 757.934C1263.26 756.833 1255.48 759.387 1250.28 763.834C1245.16 768.213 1240.87 775.932 1240.42 783.139C1239.96 790.621 1241.44 798.65 1246.11 804.534C1250.84 810.5 1256.78 814.288 1264.02 815.494C1265.2 815.688 1266.35 816.022 1267.53 816.279C1271.01 817.479 1274.38 818.963 1277.66 820.702C1281.39 823.229 1284.88 826.099 1288.15 829.311C1289.22 830.587 1290.35 831.808 1291.34 833.165C1295.6 839.031 1302.45 843.21 1309.25 844.126C1315.75 845.002 1323.85 842.909 1328.88 838.213C1334.09 833.354 1338.27 826.616 1338.75 818.908C1339.22 811.225 1337.57 803.721 1333.06 797.513Z"
        fill="#451E00" />
</svg>