<svg width="530" height="600" viewBox="0 0 530 600" fill="none" xmlns="http://www.w3.org/2000/svg">
    <path
        d="M330.178 300.479C330.155 312.355 323.95 321.994 311.066 320.018C301.792 317.535 295.618 310.999 295.642 298.544C295.668 285.495 303.269 277.027 311.15 277.012C321.684 276.992 330.201 288.603 330.178 300.479Z"
        fill="#2A1200" />
    <path fill-rule="evenodd" clip-rule="evenodd"
        d="M396.385 292.992C402.042 293.325 409.832 292.734 415.062 289.11C416.934 292.399 418.02 296.507 418.013 300.264C417.997 308.225 414.394 316.774 405.171 315.791C397.432 314.967 395.456 304.808 395.466 299.807C395.47 297.45 395.792 295.127 396.385 292.992Z"
        fill="#2A1200" />
    <path
        d="M332.006 238.124C318.256 236.361 303.774 241.964 294.286 252.658C291.226 256.106 290.538 262.063 293.98 265.724C297.159 269.111 302.765 269.991 306.039 266.296C307.02 265.188 308.049 264.134 309.144 263.154C309.484 262.848 310.44 262.294 310.731 261.85C310.898 261.732 311.061 261.613 311.232 261.499C312.284 260.786 313.367 260.13 314.479 259.53C315.117 259.187 315.761 258.867 316.414 258.563C316.62 258.468 316.826 258.377 317.036 258.285C317.614 258.165 318.271 257.828 318.796 257.665C319.482 257.452 320.17 257.264 320.867 257.094C322.083 256.798 323.313 256.564 324.551 256.397C324.725 256.374 324.895 256.355 325.069 256.335C325.739 256.316 326.408 256.281 327.081 256.285C328.511 256.296 329.938 256.408 331.361 256.587C335.805 257.159 340.241 252.654 340.212 247.872C340.172 242.608 336.766 238.735 332.006 238.124Z"
        fill="#71472D" />
    <path
        d="M419.494 276.073C412.066 280.105 403.545 281.012 395.875 278.797C393.805 278.199 391.916 276.395 391.03 274.401C390.157 272.437 389.979 269.624 390.84 267.488C391.734 265.271 393.262 263.162 395.415 262.109C397.598 261.042 399.83 260.767 402.079 261.414C402.447 261.521 402.824 261.582 403.199 261.67C404.366 261.803 405.538 261.838 406.722 261.788C408.144 261.573 409.545 261.227 410.927 260.751C411.409 260.529 411.901 260.333 412.373 260.078C414.408 258.976 416.953 258.712 419.036 259.382C421.03 260.024 423.076 261.739 423.879 263.781C424.712 265.896 424.991 268.41 424.07 270.695C423.153 272.972 421.646 274.906 419.494 276.073Z"
        fill="#71472D" />
</svg>