<svg width="1661" height="1881" viewBox="0 0 1661 1881" fill="none" xmlns="http://www.w3.org/2000/svg">
    <path
        d="M1034.77 942.002C1034.69 979.233 1015.25 1009.45 974.869 1003.26C945.803 995.473 926.456 974.98 926.532 935.936C926.612 895.026 950.432 868.478 975.131 868.431C1008.15 868.369 1034.84 904.771 1034.77 942.002Z"
        fill="#2A1200" />
    <path fill-rule="evenodd" clip-rule="evenodd"
        d="M1242.26 918.53C1259.98 919.575 1284.4 917.721 1300.79 906.359C1306.66 916.67 1310.06 929.549 1310.04 941.329C1309.99 966.285 1298.69 993.086 1269.79 990.005C1245.54 987.42 1239.34 955.573 1239.37 939.896C1239.39 932.505 1240.4 925.224 1242.26 918.53Z"
        fill="#2A1200" />
    <path
        d="M1040.49 746.517C997.401 740.99 952.014 758.555 922.279 792.083C912.691 802.893 910.536 821.566 921.321 833.044C931.285 843.663 948.853 846.423 959.114 834.836C962.19 831.363 965.412 828.061 968.844 824.986C969.911 824.028 972.905 822.291 973.82 820.9C974.343 820.528 974.854 820.158 975.389 819.798C978.685 817.564 982.081 815.506 985.566 813.626C987.564 812.551 989.582 811.549 991.628 810.594C992.274 810.296 992.921 810.011 993.58 809.724C995.391 809.346 997.449 808.289 999.096 807.779C1001.24 807.113 1003.4 806.521 1005.58 805.988C1009.39 805.06 1013.25 804.327 1017.13 803.805C1017.67 803.731 1018.21 803.671 1018.75 803.61C1020.85 803.55 1022.95 803.44 1025.06 803.454C1029.54 803.489 1034.01 803.838 1038.47 804.401C1052.4 806.193 1066.3 792.071 1066.21 777.079C1066.09 760.576 1055.41 748.435 1040.49 746.517Z"
        fill="#451E00" />
    <path
        d="M1314.68 865.49C1291.4 878.13 1264.69 880.972 1240.66 874.028C1234.17 872.153 1228.25 866.499 1225.47 860.248C1222.74 854.09 1222.18 845.272 1224.88 838.574C1227.68 831.623 1232.47 825.012 1239.22 821.712C1246.06 818.367 1253.05 817.506 1260.1 819.532C1261.25 819.867 1262.44 820.061 1263.61 820.337C1267.27 820.752 1270.94 820.862 1274.65 820.704C1279.11 820.03 1283.5 818.945 1287.83 817.454C1289.34 816.76 1290.88 816.143 1292.36 815.344C1298.74 811.888 1306.71 811.063 1313.24 813.163C1319.49 815.175 1325.9 820.551 1328.42 826.954C1331.03 833.584 1331.91 841.465 1329.02 848.628C1326.14 855.768 1321.42 861.83 1314.68 865.49Z"
        fill="#451E00" />
</svg>