<svg width="530" height="600" viewBox="0 0 530 600" fill="none" xmlns="http://www.w3.org/2000/svg">
    <path
        d="M331.178 300.479C331.155 312.355 324.95 321.994 312.066 320.018C302.792 317.535 296.618 310.999 296.642 298.544C296.668 285.495 304.269 277.027 312.15 277.012C322.684 276.992 331.201 288.603 331.178 300.479Z"
        fill="#2A1200" />
    <path
        d="M419.013 300.265C418.998 308.225 415.394 316.774 406.171 315.791C398.432 314.967 396.456 304.808 396.466 299.807C396.483 291.06 400.866 282.796 407.261 282.784C414.138 282.771 419.029 292.304 419.013 300.265Z"
        fill="#2A1200" />
    <path
        d="M336.947 244.202C324.524 238.05 309.006 238.622 296.548 245.637C292.532 247.898 289.938 253.304 291.997 257.888C293.898 262.127 298.91 264.788 303.21 262.362C304.499 261.635 305.815 260.975 307.17 260.405C307.592 260.227 308.676 260.015 309.096 259.691C309.293 259.633 309.485 259.575 309.684 259.522C310.911 259.191 312.149 258.924 313.396 258.72C314.111 258.604 314.823 258.512 315.54 258.437C315.766 258.414 315.991 258.396 316.219 258.378C316.805 258.452 317.536 258.348 318.085 258.365C318.802 258.388 319.514 258.434 320.229 258.501C321.475 258.617 322.714 258.798 323.938 259.044C324.11 259.079 324.278 259.116 324.449 259.154C325.089 259.355 325.732 259.54 326.366 259.763C327.715 260.241 329.027 260.811 330.314 261.446C334.328 263.435 339.991 260.624 341.524 256.094C343.204 251.105 341.247 246.333 336.947 244.202Z"
        fill="#71472D" />
    <path
        d="M423.529 248.526C416.101 244.494 407.58 243.588 399.91 245.803C397.84 246.401 395.951 248.204 395.065 250.198C394.191 252.162 394.014 254.975 394.874 257.111C395.769 259.329 397.297 261.438 399.45 262.49C401.633 263.557 403.865 263.832 406.114 263.186C406.482 263.079 406.859 263.017 407.234 262.929C408.401 262.796 409.573 262.761 410.757 262.812C412.179 263.027 413.579 263.373 414.962 263.849C415.444 264.07 415.936 264.267 416.408 264.521C418.442 265.624 420.988 265.887 423.071 265.217C425.065 264.575 427.111 262.861 427.914 260.818C428.747 258.703 429.026 256.189 428.105 253.905C427.188 251.627 425.681 249.693 423.529 248.526Z"
        fill="#71472D" />
</svg>