<svg width="1661" height="1881" viewBox="0 0 1661 1881" fill="none" xmlns="http://www.w3.org/2000/svg">
    <path
        d="M1037.9 942.002C1037.83 979.233 1018.38 1009.45 978.003 1003.26C948.937 995.474 929.59 974.981 929.666 935.936C929.745 895.026 953.566 868.478 978.265 868.432C1011.28 868.369 1037.97 904.771 1037.9 942.002Z"
        fill="#2A1200" />
    <path
        d="M1313.17 941.329C1313.12 966.285 1301.83 993.086 1272.93 990.006C1248.67 987.42 1242.48 955.573 1242.51 939.896C1242.56 912.474 1256.3 886.567 1276.34 886.529C1297.89 886.488 1313.22 916.374 1313.17 941.329Z"
        fill="#2A1200" />
    <path
        d="M1055.98 765.574C1017.05 746.287 968.414 748.081 929.372 770.072C916.783 777.162 908.656 794.11 915.108 808.479C921.064 821.769 936.771 830.11 950.249 822.506C954.29 820.227 958.412 818.157 962.659 816.37C963.98 815.812 967.377 815.147 968.696 814.131C969.311 813.95 969.915 813.767 970.538 813.601C974.382 812.565 978.264 811.728 982.171 811.088C984.411 810.724 986.645 810.435 988.89 810.2C989.598 810.129 990.303 810.071 991.019 810.015C992.855 810.248 995.144 809.921 996.867 809.976C999.115 810.047 1001.35 810.191 1003.59 810.4C1007.49 810.766 1011.37 811.332 1015.21 812.104C1015.75 812.212 1016.27 812.329 1016.81 812.45C1018.81 813.078 1020.83 813.658 1022.82 814.359C1027.05 815.855 1031.16 817.644 1035.19 819.632C1047.77 825.87 1065.52 817.057 1070.32 802.855C1075.59 787.215 1069.46 772.255 1055.98 765.574Z"
        fill="#451E00" />
    <path
        d="M1327.32 779.13C1304.04 766.489 1277.34 763.647 1253.3 770.591C1246.82 772.467 1240.89 778.12 1238.12 784.371C1235.38 790.529 1234.82 799.347 1237.52 806.045C1240.33 812.996 1245.11 819.608 1251.86 822.907C1258.7 826.253 1265.7 827.113 1272.74 825.087C1273.9 824.752 1275.08 824.558 1276.26 824.282C1279.91 823.867 1283.59 823.758 1287.3 823.915C1291.75 824.589 1296.14 825.674 1300.47 827.166C1301.98 827.86 1303.53 828.476 1305.01 829.275C1311.38 832.731 1319.36 833.556 1325.89 831.456C1332.14 829.444 1338.55 824.068 1341.07 817.665C1343.68 811.035 1344.55 803.154 1341.66 795.992C1338.79 788.851 1334.07 782.789 1327.32 779.13Z"
        fill="#451E00" />
</svg>