<svg width="1661" height="1881" viewBox="0 0 1661 1881" fill="none" xmlns="http://www.w3.org/2000/svg">
    <path fill-rule="evenodd" clip-rule="evenodd"
        d="M1259.49 892.752C1271.7 898.365 1288.54 905.027 1305.1 908.911C1310.09 918.7 1312.93 930.359 1312.9 941.106C1312.84 966.063 1301.44 992.872 1272.32 989.809C1247.87 987.239 1241.65 955.394 1241.69 939.716C1241.74 920.557 1248.52 902.134 1259.49 892.752Z"
        fill="#2A1200" />
    <path fill-rule="evenodd" clip-rule="evenodd"
        d="M928.278 917.084C927.083 922.952 926.427 929.257 926.41 935.946C926.31 974.992 945.795 995.474 975.083 1003.24C1015.77 1009.41 1035.39 979.178 1035.48 941.945C1035.54 920.306 1026.48 898.953 1012.36 884.879C994.8 898.315 967.121 912.163 928.278 917.084Z"
        fill="#2A1200" />
    <path
        d="M1018.06 745.296C975.072 751.619 936.116 780.796 916.541 821.113C910.228 834.112 913.195 852.673 926.679 860.81C939.14 868.342 956.8 866.251 963.551 852.323C965.575 848.148 967.786 844.098 970.259 840.21C971.028 838.999 973.442 836.517 973.947 834.93C974.35 834.432 974.742 833.937 975.16 833.445C977.73 830.404 980.445 827.505 983.292 824.753C984.926 823.178 986.598 821.668 988.31 820.196C988.851 819.735 989.398 819.285 989.955 818.831C991.596 817.977 993.292 816.404 994.74 815.468C996.628 814.246 998.543 813.093 1000.5 811.99C1003.92 810.067 1007.44 808.319 1011.03 806.768C1011.53 806.55 1012.03 806.348 1012.54 806.141C1014.55 805.516 1016.53 804.844 1018.57 804.287C1022.89 803.11 1027.29 802.238 1031.74 801.575C1045.63 799.537 1055.21 782.183 1051.07 767.773C1046.49 751.917 1032.94 743.112 1018.06 745.296Z"
        fill="#451E00" />
    <path
        d="M1332.58 816.477C1322.75 791.873 1304.02 772.616 1281.1 762.591C1274.91 759.887 1266.75 760.45 1260.62 763.484C1254.58 766.47 1248.52 772.897 1246.31 779.773C1244.03 786.912 1243.49 795.058 1246.57 801.909C1249.7 808.856 1254.53 813.99 1261.24 816.936C1262.34 817.416 1263.38 818.023 1264.46 818.562C1267.53 820.58 1270.43 822.845 1273.18 825.337C1276.18 828.704 1278.86 832.345 1281.24 836.262C1281.96 837.76 1282.75 839.222 1283.38 840.78C1286.08 847.515 1291.69 853.249 1298.05 855.807C1304.14 858.255 1312.51 858.218 1318.53 854.902C1324.78 851.472 1330.48 845.968 1332.84 838.614C1335.19 831.284 1335.43 823.603 1332.58 816.477Z"
        fill="#451E00" />
</svg>