<svg width="530" height="600" viewBox="0 0 530 600" fill="none" xmlns="http://www.w3.org/2000/svg">
    <path fill-rule="evenodd" clip-rule="evenodd"
        d="M401.884 284.769C405.782 286.56 411.154 288.685 416.439 289.924C418.029 293.046 418.937 296.765 418.928 300.193C418.907 308.154 415.27 316.706 405.977 315.729C398.177 314.909 396.192 304.751 396.205 299.75C396.221 293.639 398.384 287.762 401.884 284.769Z"
        fill="#2A1200" />
    <path fill-rule="evenodd" clip-rule="evenodd"
        d="M296.2 292.531C295.818 294.403 295.609 296.414 295.604 298.547C295.572 311.002 301.789 317.536 311.134 320.013C324.118 321.981 330.377 312.338 330.407 300.461C330.425 293.559 327.536 286.747 323.028 282.258C317.426 286.544 308.594 290.961 296.2 292.531Z"
        fill="#2A1200" />
    <path
        d="M324.846 237.734C311.131 239.751 298.701 249.058 292.454 261.918C290.44 266.065 291.387 271.985 295.69 274.581C299.666 276.983 305.301 276.316 307.455 271.873C308.101 270.542 308.806 269.25 309.595 268.01C309.841 267.623 310.611 266.832 310.772 266.326C310.901 266.166 311.026 266.009 311.159 265.852C311.979 264.882 312.845 263.957 313.754 263.079C314.275 262.577 314.809 262.095 315.355 261.626C315.528 261.478 315.702 261.335 315.88 261.19C316.404 260.918 316.945 260.416 317.407 260.117C318.009 259.728 318.62 259.36 319.246 259.008C320.336 258.395 321.458 257.837 322.605 257.342C322.765 257.273 322.924 257.208 323.087 257.142C323.727 256.943 324.361 256.729 325.01 256.551C326.39 256.176 327.794 255.897 329.213 255.686C333.646 255.036 336.7 249.5 335.38 244.904C333.92 239.846 329.595 237.037 324.846 237.734Z"
        fill="#71472D" />
    <path
        d="M425.206 260.439C422.069 252.591 416.095 246.449 408.78 243.251C406.805 242.388 404.2 242.568 402.244 243.536C400.317 244.488 398.383 246.538 397.68 248.731C396.951 251.009 396.778 253.607 397.762 255.793C398.759 258.009 400.3 259.646 402.443 260.586C402.794 260.739 403.124 260.932 403.469 261.104C404.451 261.748 405.375 262.47 406.253 263.265C407.21 264.339 408.066 265.501 408.825 266.75C409.054 267.228 409.307 267.694 409.507 268.192C410.368 270.34 412.157 272.169 414.188 272.985C416.132 273.766 418.801 273.754 420.724 272.696C422.716 271.602 424.537 269.846 425.289 267.5C426.039 265.162 426.116 262.713 425.206 260.439Z"
        fill="#71472D" />
</svg>