<svg width="1661" height="1881" viewBox="0 0 1661 1881" fill="none" xmlns="http://www.w3.org/2000/svg">
    <path
        d="M1069.63 905.359C1019.42 944.89 957.264 936.328 931.621 926.842C931.426 926.77 931.299 927.032 931.435 927.189C1000.48 1006.87 1052.29 946.487 1069.95 905.577C1070.03 905.387 1069.79 905.231 1069.63 905.359Z"
        fill="#2A1200" />
    <path
        d="M1239.74 926.862C1264.96 956.368 1296.98 949.151 1310.62 941.476C1310.79 941.377 1310.98 941.63 1310.87 941.806C1273.79 1004.37 1247.95 958.58 1239.39 927.009C1239.33 926.801 1239.59 926.696 1239.74 926.862Z"
        fill="#2A1200" />
    <path
        d="M1055.98 765.574C1017.05 746.287 968.414 748.081 929.372 770.071C916.783 777.161 908.656 794.109 915.108 808.479C921.064 821.768 936.771 830.11 950.249 822.505C954.29 820.226 958.412 818.156 962.659 816.369C963.98 815.812 967.377 815.147 968.696 814.13C969.311 813.95 969.915 813.766 970.538 813.6C974.382 812.564 978.264 811.727 982.171 811.088C984.411 810.723 986.645 810.435 988.89 810.199C989.598 810.129 990.303 810.07 991.019 810.014C992.855 810.248 995.144 809.92 996.867 809.976C999.115 810.047 1001.35 810.19 1003.59 810.4C1007.49 810.766 1011.37 811.331 1015.21 812.103C1015.75 812.211 1016.27 812.329 1016.81 812.449C1018.81 813.077 1020.83 813.657 1022.82 814.358C1027.05 815.854 1031.16 817.644 1035.19 819.632C1047.77 825.87 1065.52 817.057 1070.32 802.855C1075.59 787.215 1069.46 772.254 1055.98 765.574Z"
        fill="#451E00" />
    <path
        d="M1327.32 779.129C1304.04 766.489 1277.34 763.647 1253.3 770.591C1246.82 772.466 1240.89 778.12 1238.12 784.371C1235.38 790.529 1234.82 799.347 1237.52 806.044C1240.33 812.996 1245.11 819.607 1251.86 822.906C1258.7 826.252 1265.7 827.113 1272.74 825.087C1273.9 824.752 1275.08 824.558 1276.26 824.282C1279.91 823.867 1283.59 823.757 1287.3 823.914C1291.75 824.588 1296.14 825.674 1300.47 827.165C1301.98 827.859 1303.53 828.476 1305.01 829.275C1311.38 832.731 1319.36 833.556 1325.89 831.455C1332.14 829.444 1338.55 824.068 1341.07 817.664C1343.68 811.035 1344.55 803.154 1341.66 795.991C1338.79 788.85 1334.07 782.789 1327.32 779.129Z"
        fill="#451E00" />
</svg>