<svg width="530" height="600" viewBox="0 0 530 600" fill="none" xmlns="http://www.w3.org/2000/svg">
    <path
        d="M342.942 294.416C342.914 309.181 333.612 321.169 314.286 318.718C300.374 315.636 293.018 309.894 293.048 294.41C293.08 278.185 300.775 267.421 314.39 265.247C335.276 261.913 342.971 279.65 342.942 294.416Z"
        fill="#2A1200" />
    <path
        d="M419.173 290.886C419.154 302.659 414.339 315.303 402.013 313.852C391.669 312.634 389.027 297.611 389.039 290.215C389.06 277.278 394.916 265.056 403.462 265.036C412.653 265.015 419.192 279.113 419.173 290.886Z"
        fill="#2A1200" />
    <path
        d="M402.178 273.964C402.435 272.969 403.809 272.888 404.093 273.851L406.72 282.738C406.856 283.198 407.302 283.479 407.78 283.406L412.804 282.636C413.624 282.51 414.188 283.385 413.759 284.116L409.575 291.231C409.428 291.479 409.39 291.774 409.47 292.043L412.053 300.786C412.348 301.784 411.101 302.569 410.381 301.839L406.73 298.138C406.322 297.724 405.635 297.775 405.253 298.247L399.644 305.175C399.022 305.943 397.825 305.502 397.894 304.53L398.63 294.221C398.65 293.937 398.551 293.663 398.358 293.466L392.81 287.843C392.241 287.266 392.603 286.248 393.423 286.123L398.592 285.33C399.002 285.267 399.342 284.957 399.447 284.549L402.178 273.964Z"
        fill="white" />
    <path
        d="M318.019 272.679C318.358 271.851 319.53 271.85 319.87 272.677L324.606 284.196C324.778 284.615 325.209 284.866 325.658 284.808L335.317 283.571C336.232 283.454 336.804 284.533 336.194 285.224L328.989 293.391C328.737 293.676 328.669 294.08 328.814 294.432L333.276 305.284C333.652 306.2 332.613 307.047 331.792 306.494L323.409 300.843C323.039 300.594 322.55 300.62 322.208 300.906L310.679 310.565C309.978 311.152 308.922 310.569 309.046 309.663L310.725 297.324C310.777 296.947 310.609 296.573 310.293 296.36L301.263 290.273C300.498 289.758 300.78 288.569 301.695 288.452L311.537 287.192C311.894 287.146 312.199 286.912 312.335 286.578L318.019 272.679Z"
        fill="white" />
    <path
        d="M331.172 233.547C317.883 229.598 302.689 232.801 291.606 241.833C288.033 244.745 286.397 250.513 289.205 254.68C291.799 258.534 297.191 260.303 301.016 257.181C302.163 256.245 303.347 255.371 304.585 254.579C304.97 254.332 306.003 253.938 306.362 253.547C306.546 253.457 306.726 253.367 306.913 253.281C308.065 252.746 309.24 252.273 310.434 251.859C311.118 251.623 311.805 251.411 312.498 251.215C312.717 251.155 312.936 251.098 313.158 251.042C313.748 251.015 314.45 250.788 314.995 250.712C315.705 250.612 316.414 250.537 317.13 250.481C318.378 250.384 319.629 250.351 320.878 250.385C321.053 250.39 321.224 250.398 321.399 250.407C322.064 250.496 322.729 250.569 323.393 250.681C324.803 250.922 326.193 251.261 327.569 251.667C331.863 252.945 336.965 249.211 337.705 244.487C338.512 239.285 335.772 234.915 331.172 233.547Z"
        fill="#71472D" />
    <path
        d="M422.688 243.735C416.226 238.288 408.063 235.681 400.104 236.303C397.956 236.472 395.742 237.857 394.472 239.631C393.22 241.379 392.479 244.098 392.891 246.364C393.32 248.716 394.391 251.09 396.288 252.555C398.211 254.041 400.341 254.76 402.674 254.58C403.056 254.55 403.438 254.565 403.823 254.555C404.993 254.661 406.148 254.863 407.297 255.151C408.647 255.648 409.949 256.27 411.207 257.014C411.634 257.328 412.077 257.62 412.487 257.965C414.257 259.455 416.697 260.226 418.873 259.99C420.956 259.764 423.305 258.497 424.504 256.659C425.746 254.755 426.526 252.349 426.085 249.926C425.646 247.51 424.561 245.312 422.688 243.735Z"
        fill="#71472D" />
</svg>