<svg width="1661" height="1881" viewBox="0 0 1661 1881" fill="none" xmlns="http://www.w3.org/2000/svg">
    <path
        d="M1074.77 922.993C1074.68 969.283 1045.53 1006.86 984.96 999.182C941.361 989.519 918.307 971.519 918.402 922.974C918.501 872.109 942.618 838.365 985.286 831.55C1050.74 821.096 1074.86 876.702 1074.77 922.993Z"
        fill="#2A1200" />
    <path
        d="M1313.67 911.927C1313.61 948.836 1298.52 988.476 1259.89 983.926C1227.48 980.108 1219.2 933.009 1219.23 909.823C1219.3 869.267 1237.65 830.949 1264.44 830.888C1293.24 830.822 1313.73 875.018 1313.67 911.927Z"
        fill="#2A1200" />
    <path
        d="M1262.35 851.363C1262.61 850.368 1263.98 850.287 1264.26 851.25L1275.15 888.079C1275.28 888.539 1275.73 888.82 1276.21 888.747L1297.99 885.405C1298.81 885.28 1299.38 886.155 1298.95 886.885L1283.1 913.841C1282.95 914.09 1282.92 914.385 1283 914.653L1293.83 951.338C1294.13 952.336 1292.88 953.121 1292.16 952.391L1273.05 933.011C1272.64 932.598 1271.95 932.649 1271.57 933.12L1248.27 961.915C1247.64 962.683 1246.45 962.242 1246.52 961.27L1249.36 921.429C1249.38 921.145 1249.28 920.871 1249.09 920.675L1228.08 899.371C1227.51 898.794 1227.87 897.777 1228.69 897.651L1250.62 894.287C1251.03 894.224 1251.37 893.914 1251.48 893.506L1262.35 851.363Z"
        fill="white" />
    <path
        d="M998.63 850.029C998.968 849.201 1000.14 849.2 1000.48 850.028L1017.92 892.47C1018.1 892.888 1018.53 893.139 1018.98 893.081L1056.49 888.275C1057.41 888.157 1057.98 889.236 1057.37 889.928L1030.16 920.776C1029.91 921.061 1029.84 921.465 1029.99 921.817L1047.16 963.592C1047.53 964.508 1046.49 965.355 1045.67 964.802L1012.22 942.246C1011.85 941.997 1011.36 942.023 1011.02 942.309L969.426 977.165C968.725 977.752 967.67 977.169 967.793 976.264L973.98 930.795C974.032 930.418 973.864 930.044 973.549 929.831L939.448 906.839C938.683 906.323 938.965 905.135 939.88 905.018L977.578 900.188C977.935 900.142 978.24 899.907 978.376 899.574L998.63 850.029Z"
        fill="white" />
    <path
        d="M1037.88 732.168C996.234 719.788 948.616 729.832 913.883 758.146C902.683 767.275 897.557 785.359 906.359 798.421C914.488 810.503 931.385 816.05 943.373 806.263C946.967 803.329 950.678 800.588 954.559 798.104C955.766 797.33 959 796.097 960.127 794.87C960.702 794.588 961.266 794.305 961.852 794.035C965.464 792.36 969.147 790.874 972.888 789.579C975.033 788.839 977.185 788.174 979.358 787.56C980.044 787.37 980.728 787.193 981.424 787.016C983.273 786.933 985.474 786.221 987.181 785.982C989.407 785.67 991.63 785.432 993.873 785.257C997.783 784.954 1001.71 784.85 1005.62 784.957C1006.17 784.972 1006.7 784.999 1007.25 785.026C1009.34 785.304 1011.42 785.532 1013.5 785.885C1017.92 786.64 1022.28 787.703 1026.59 788.976C1040.05 792.982 1056.04 781.278 1058.35 766.466C1060.88 750.157 1052.3 736.459 1037.88 732.168Z"
        fill="#451E00" />
    <path
        d="M1324.69 764.109C1304.44 747.031 1278.85 738.86 1253.91 740.811C1247.18 741.338 1240.24 745.681 1236.26 751.244C1232.34 756.722 1230.01 765.247 1231.31 772.351C1232.65 779.725 1236.01 787.167 1241.95 791.76C1247.98 796.417 1254.65 798.672 1261.96 798.11C1263.16 798.014 1264.36 798.063 1265.57 798.03C1269.23 798.361 1272.85 798.995 1276.45 799.897C1280.68 801.456 1284.76 803.405 1288.71 805.74C1290.04 806.725 1291.43 807.64 1292.72 808.72C1298.27 813.392 1305.91 815.81 1312.73 815.07C1319.26 814.361 1326.62 810.389 1330.38 804.625C1334.27 798.658 1336.72 791.116 1335.33 783.518C1333.96 775.944 1330.56 769.055 1324.69 764.109Z"
        fill="#451E00" />
</svg>