<svg width="530" height="600" viewBox="0 0 530 600" fill="none" xmlns="http://www.w3.org/2000/svg">
    <path
        d="M340.876 308.878C325.256 296.897 306.172 299.253 297.776 302.174C297.58 302.242 297.431 301.988 297.568 301.832C319.146 277.349 335.391 295.691 341.189 308.65C341.273 308.84 341.041 309.005 340.876 308.878Z"
        fill="#2A1200" />
    <path
        d="M419.013 300.265C418.998 308.225 415.394 316.774 406.172 315.791C398.432 314.967 396.456 304.808 396.466 299.808C396.483 291.06 400.866 282.797 407.261 282.784C414.138 282.771 419.029 292.304 419.013 300.265Z"
        fill="#2A1200" />
    <path
        d="M333.495 238.676C319.812 236.451 305.149 241.563 295.306 251.932C292.133 255.275 291.245 261.205 294.561 264.98C297.624 268.473 303.197 269.541 306.594 265.958C307.612 264.883 308.675 263.865 309.802 262.922C310.153 262.628 311.127 262.106 311.433 261.673C311.604 261.56 311.771 261.447 311.946 261.338C313.021 260.661 314.126 260.042 315.257 259.48C315.906 259.159 316.56 258.861 317.223 258.578C317.432 258.491 317.642 258.407 317.855 258.322C318.437 258.221 319.104 257.906 319.635 257.761C320.327 257.572 321.021 257.407 321.723 257.26C322.948 257.005 324.186 256.813 325.428 256.688C325.603 256.671 325.774 256.657 325.949 256.644C326.619 256.647 327.288 256.634 327.961 256.661C329.39 256.721 330.812 256.88 332.229 257.108C336.65 257.828 341.236 253.476 341.367 248.695C341.506 243.433 338.232 239.448 333.495 238.676Z"
        fill="#71472D" />
    <path
        d="M425.358 254.39C420.39 247.554 413.088 243.067 405.212 241.765C403.086 241.414 400.605 242.229 398.947 243.647C397.313 245.044 395.942 247.506 395.799 249.805C395.652 252.192 396.123 254.753 397.614 256.63C399.125 258.533 401.021 259.741 403.329 260.126C403.707 260.188 404.074 260.294 404.451 260.376C405.561 260.759 406.634 261.232 407.681 261.787C408.872 262.593 409.987 263.508 411.03 264.533C411.37 264.94 411.73 265.33 412.046 265.762C413.408 267.633 415.592 268.967 417.761 269.259C419.837 269.538 422.421 268.871 424.025 267.373C425.688 265.822 427.021 263.673 427.173 261.215C427.326 258.764 426.799 256.37 425.358 254.39Z"
        fill="#71472D" />
</svg>